<svg width="945" height="249" viewBox="0 0 945 249" fill="none" xmlns="http://www.w3.org/2000/svg">
<path d="M944.85 -989.604C944.85 -989.604 936.64 -572.994 651.64 -638.895C458.85 -683.466 335.02 -772.726 221.78 -741.692C126.61 -715.611 66.93 -565.029 57.13 -479.004C43.46 -359.062 118.32 -191.806 95.13 -73.3797C46.67 174.18 -421.38 174.063 -557 -141.032" stroke="url(#paint0_linear_2_1925)" stroke-width="0.25" stroke-miterlimit="10"/>
<path d="M941.64 -991.397C941.64 -991.397 932.87 -580.862 653.8 -639.504C465.32 -679.111 342.94 -763.086 229.64 -731.742C208.16 -725.817 188.44 -713.679 170.64 -697.483C159.43 -687.299 148.99 -675.545 139.36 -662.755C96.9599 -606.494 70.2799 -529.351 62.7999 -476.869C46.0799 -360.589 115.45 -198.158 90.53 -82.1339C39.13 159.992 -416.47 165.148 -547.79 -129.022" stroke="url(#paint1_linear_2_1925)" stroke-width="0.25" stroke-miterlimit="10"/>
<path d="M938.43 -993.18C938.43 -993.18 929.14 -588.73 655.95 -640.112C471.79 -674.755 350.86 -753.446 237.48 -721.803C216.19 -715.888 196.57 -703.996 178.79 -688.217C167.58 -678.288 157.1 -666.897 147.4 -654.535C104.69 -600.163 77.2501 -525.572 68.4401 -474.755C48.6601 -362.137 112.28 -204.595 85.8901 -90.9198C30.9801 145.612 -411.6 156.213 -538.61 -117.043" stroke="url(#paint2_linear_2_1925)" stroke-width="0.25" stroke-miterlimit="10"/>
<path d="M935.23 -994.963C935.23 -994.963 925.44 -596.598 658.12 -640.721C478.3 -670.41 358.79 -743.816 245.35 -711.853C224.24 -705.949 204.73 -694.302 186.96 -678.94C175.75 -669.278 165.23 -658.239 155.47 -646.304C112.44 -593.822 84.2401 -521.782 74.1201 -472.62C51.2801 -363.675 109.3 -210.99 81.2901 -99.6742C23.1701 131.327 -406.7 147.298 -529.4 -105.044" stroke="url(#paint3_linear_2_1925)" stroke-width="0.25" stroke-miterlimit="10"/>
<path d="M932.02 -996.756C932.02 -996.756 921.76 -604.476 660.28 -641.34C484.81 -666.075 366.7 -734.187 253.2 -701.925C232.27 -696.032 212.86 -684.63 195.12 -669.684C183.9 -660.278 173.35 -649.603 163.52 -638.094C120.18 -587.491 91.3301 -517.971 79.7801 -470.507C54.1401 -365.148 106.31 -217.417 76.6801 -108.45C15.3701 117.022 -401.8 138.363 -520.2 -93.0551" stroke="url(#paint4_linear_2_1925)" stroke-width="0.25" stroke-miterlimit="10"/>
<path d="M928.81 -998.539C928.81 -998.539 918.12 -612.366 662.43 -641.948C491.35 -661.741 374.62 -724.546 261.05 -691.975C240.31 -686.092 221 -674.936 203.27 -660.406C192.05 -651.257 181.46 -640.945 171.57 -629.863C127.92 -581.15 98.33 -514.17 85.44 -468.371C56.8 -366.642 103.32 -223.811 72.06 -117.214C7.57 102.717 -396.91 129.449 -511 -81.066" stroke="url(#paint5_linear_2_1925)" stroke-width="0.25" stroke-miterlimit="10"/>
<path d="M925.6 -1000.32C925.6 -1000.32 914.5 -620.266 664.59 -642.557C497.91 -657.428 382.54 -714.917 268.9 -682.036C248.34 -676.164 229.14 -665.253 211.42 -651.151C200.2 -642.258 189.57 -632.308 179.61 -621.654C135.64 -574.83 105.32 -510.38 91.0802 -466.258C59.4402 -368.158 100.32 -230.238 67.4302 -125.99C-0.209824 88.3897 -392.04 120.513 -501.82 -69.0774" stroke="url(#paint6_linear_2_1925)" stroke-width="0.25" stroke-miterlimit="10"/>
<path d="M922.39 -1002.12C922.39 -1002.12 910.92 -628.198 666.74 -643.176C504.48 -653.126 390.45 -705.287 276.75 -672.096C256.37 -666.235 237.28 -655.581 219.58 -641.884C208.35 -633.247 197.69 -623.661 187.67 -613.433C143.39 -568.499 112.32 -506.59 96.7499 -464.133C62.0899 -369.663 97.3599 -236.665 62.8199 -134.754C-7.96011 74.0737 -387.14 111.588 -492.62 -57.0778" stroke="url(#paint7_linear_2_1925)" stroke-width="0.25" stroke-miterlimit="10"/>
<path d="M919.19 -1003.9C919.19 -1003.9 907.39 -636.141 668.91 -643.784C511.09 -648.845 398.38 -695.658 284.61 -662.157C264.42 -656.307 245.42 -645.898 227.74 -632.618C216.51 -624.237 205.8 -615.003 195.72 -605.213C151.13 -562.168 119.32 -502.79 102.41 -462.009C64.7401 -371.158 94.4001 -243.081 58.2001 -143.519C-15.6999 59.7467 -382.25 102.674 -483.42 -45.0891" stroke="url(#paint8_linear_2_1925)" stroke-width="0.25" stroke-miterlimit="10"/>
<path d="M915.98 -1005.69C915.98 -1005.69 903.88 -644.115 671.06 -644.404C517.7 -644.596 406.36 -685.772 292.46 -652.218C272.46 -646.325 253.56 -636.215 235.9 -623.351C224.66 -615.237 213.92 -606.355 203.78 -596.993C158.87 -555.838 126.31 -498.989 108.07 -459.884C67.37 -372.653 91.45 -249.508 53.59 -152.295C-23.4 45.4092 -377.36 93.7383 -474.22 -33.1002" stroke="url(#paint9_linear_2_1925)" stroke-width="0.25" stroke-miterlimit="10"/>
<path d="M912.77 -1007.47C912.77 -1007.47 900.41 -652.122 673.22 -645.012C524.35 -640.357 414.29 -676.11 300.31 -642.279C280.5 -636.397 261.72 -626.49 244.05 -614.084C232.82 -606.206 222.03 -597.708 211.82 -588.783C166.6 -549.507 133.29 -495.189 113.72 -457.77C70 -374.147 88.5 -255.935 48.97 -161.059C-31.09 31.0824 -372.47 84.8134 -465.03 -21.1112" stroke="url(#paint10_linear_2_1925)" stroke-width="0.25" stroke-miterlimit="10"/>
<path d="M909.56 -1009.26C909.56 -1009.26 896.97 -660.161 675.37 -645.621C531.01 -636.151 422.2 -666.46 308.16 -632.329C288.53 -626.458 269.86 -616.796 252.2 -604.807C240.97 -597.185 230.14 -589.05 219.87 -580.552C174.34 -543.166 140.27 -491.378 119.38 -455.635C72.6101 -375.642 85.5602 -262.362 44.3401 -169.824C-38.7699 16.7556 -367.59 75.8885 -455.84 -9.11171" stroke="url(#paint11_linear_2_1925)" stroke-width="0.25" stroke-miterlimit="10"/>
<path d="M906.36 -1011.05C906.36 -1011.05 893.58 -668.264 677.54 -646.24C537.7 -631.988 430.14 -656.83 316.02 -622.401C296.58 -616.54 278.01 -607.124 260.37 -595.551C249.14 -588.185 238.29 -580.392 227.93 -572.342C182.15 -536.749 147.26 -487.588 125.04 -453.521C75.2299 -377.136 82.6499 -268.799 39.7299 -178.61C-46.4001 2.40744 -362.7 66.9529 -446.64 2.86649" stroke="url(#paint12_linear_2_1925)" stroke-width="0.25" stroke-miterlimit="10"/>
<path d="M903.15 -1012.83C903.15 -1012.83 890.21 -676.399 679.69 -646.848C544.4 -627.856 438.05 -647.179 323.87 -612.451C304.61 -606.59 286.14 -597.43 268.52 -586.274C257.28 -579.164 246.4 -571.723 235.98 -564.111C189.89 -530.397 154.23 -483.776 130.7 -451.386C77.8301 -378.62 79.74 -275.215 35.11 -187.365C-54.01 -11.9089 -357.8 58.0386 -437.44 14.8659" stroke="url(#paint13_linear_2_1925)" stroke-width="0.25" stroke-miterlimit="10"/>
<path d="M899.94 -1014.62C899.94 -1014.62 886.87 -684.609 681.85 -647.446C551.12 -623.757 445.98 -637.518 331.72 -602.501C312.65 -596.651 294.28 -587.737 276.68 -576.997C265.44 -570.143 254.51 -563.065 244.03 -555.88C197.63 -524.045 161.2 -479.965 136.36 -449.251C80.42 -380.104 76.85 -281.631 30.5 -196.119C-61.6 -26.2144 -352.91 49.1243 -428.24 26.876" stroke="url(#paint14_linear_2_1925)" stroke-width="0.25" stroke-miterlimit="10"/>
<path d="M896.73 -1016.41C896.73 -1016.41 883.55 -692.893 684 -648.065C557.85 -619.721 453.89 -627.888 339.57 -592.573C320.68 -586.733 302.42 -578.065 284.83 -567.741C273.59 -561.144 262.62 -554.429 252.08 -547.671C205.36 -517.725 168.17 -476.175 142.02 -447.137C83.01 -381.62 73.9699 -288.058 25.8799 -204.905C-69.1601 -40.5413 -348.02 40.1886 -419.05 38.8435" stroke="url(#paint15_linear_2_1925)" stroke-width="0.25" stroke-miterlimit="10"/>
<path d="M893.52 -1018.19C893.52 -1018.19 880.24 -701.252 686.16 -648.674C564.59 -615.739 461.81 -618.248 347.42 -582.623C328.71 -576.794 310.56 -568.371 292.98 -558.464C281.73 -552.122 270.73 -545.77 260.12 -539.44C213.08 -511.373 175.12 -472.375 147.66 -445.002C85.5602 -383.115 71.0801 -294.464 21.2401 -213.659C-76.7199 -54.8252 -343.16 31.2746 -409.88 50.8539" stroke="url(#paint16_linear_2_1925)" stroke-width="0.25" stroke-miterlimit="10"/>
<path d="M890.32 -1019.98C890.32 -1019.98 876.95 -709.696 688.33 -649.282C571.34 -611.821 469.74 -608.619 355.29 -572.684C336.77 -566.866 318.71 -558.688 301.16 -549.197C289.91 -543.112 278.87 -537.123 268.2 -531.219C220.85 -505.043 182.11 -468.585 153.35 -442.888C88.1599 -384.642 68.2599 -300.88 16.6599 -222.434C-84.1901 -69.1201 -338.23 22.3389 -400.64 62.8319" stroke="url(#paint17_linear_2_1925)" stroke-width="0.25" stroke-miterlimit="10"/>
<path d="M887.11 -1021.77C887.11 -1021.77 873.64 -718.237 690.48 -649.902C578.07 -607.957 477.65 -598.989 363.13 -562.745C344.79 -556.937 326.84 -549.005 309.3 -539.931C298.04 -534.102 286.97 -528.465 276.23 -522.999C228.56 -498.701 189.05 -464.795 158.99 -440.764C90.71 -386.168 65.4 -307.274 12.02 -231.21C-91.69 -83.4042 -333.36 13.414 -391.47 74.8208" stroke="url(#paint18_linear_2_1925)" stroke-width="0.25" stroke-miterlimit="10"/>
<path d="M883.9 -1023.55C883.9 -1023.55 870.32 -726.874 692.64 -650.51C584.8 -604.156 485.57 -589.36 370.99 -552.806C352.83 -547.009 334.98 -539.322 317.47 -530.664C306.21 -525.102 295.1 -519.818 284.3 -514.779C236.31 -492.37 196.02 -461.016 164.66 -438.639C93.27 -387.706 62.58 -313.669 7.41003 -239.975C-99.13 -97.6457 -328.47 4.489 -382.26 86.8203" stroke="url(#paint19_linear_2_1925)" stroke-width="0.25" stroke-miterlimit="10"/>
<path d="M880.69 -1025.35C880.69 -1025.35 866.95 -735.628 694.79 -651.129C591.49 -600.43 493.48 -579.741 378.83 -542.867C360.86 -537.091 343.11 -529.65 325.61 -521.398C314.34 -516.092 303.19 -511.17 292.34 -506.558C244.03 -486.04 202.97 -457.236 170.31 -436.515C95.8199 -389.253 59.75 -320.043 2.78998 -248.739C-106.57 -111.866 -323.58 -4.4357 -373.07 98.8094" stroke="url(#paint20_linear_2_1925)" stroke-width="0.25" stroke-miterlimit="10"/>
<path d="M877.49 -1027.13C877.49 -1027.13 863.55 -744.467 696.96 -651.738C598.17 -596.747 501.41 -570.122 386.7 -532.927C368.91 -527.162 351.27 -519.967 333.78 -512.131C322.51 -507.081 311.32 -502.523 300.4 -498.338C251.78 -479.709 209.93 -453.457 175.98 -434.39C98.3899 -390.801 56.9599 -326.405 -1.82013 -257.515C-113.97 -126.075 -318.68 -13.3711 -363.87 110.798" stroke="url(#paint21_linear_2_1925)" stroke-width="0.25" stroke-miterlimit="10"/>
<path d="M874.28 -1028.91C874.28 -1028.91 860.07 -753.403 699.11 -652.346C604.8 -593.128 509.32 -560.503 394.54 -522.978C376.93 -517.223 359.39 -510.274 341.93 -502.854C330.65 -498.06 319.43 -493.865 308.45 -490.107C259.51 -473.378 216.88 -449.678 181.63 -432.255C100.93 -392.36 54.1598 -332.736 -6.44019 -266.269C-121.36 -140.242 -313.8 -22.2854 -354.68 122.798" stroke="url(#paint22_linear_2_1925)" stroke-width="0.25" stroke-miterlimit="10"/>
<path d="M871.07 -1030.71C871.07 -1030.71 856.5 -762.445 701.27 -652.965C611.38 -589.562 517.24 -550.895 402.4 -513.049C384.98 -507.306 367.54 -500.612 350.09 -493.598C338.81 -489.072 327.55 -485.228 316.5 -481.897C267.24 -467.058 223.84 -445.931 187.29 -430.141C103.49 -393.951 51.38 -339.077 -11.06 -275.044C-128.73 -154.377 -308.91 -31.2105 -345.48 134.787" stroke="url(#paint23_linear_2_1925)" stroke-width="0.25" stroke-miterlimit="10"/>
<path d="M867.86 -1032.49C867.86 -1032.49 852.82 -771.562 703.42 -653.574C617.9 -586.029 525.14 -541.276 410.24 -503.1C393 -497.377 375.66 -490.918 358.24 -484.332C346.95 -480.061 335.65 -476.602 324.55 -473.677C274.95 -460.834 230.8 -442.162 192.95 -428.017C106.05 -395.531 48.6099 -345.387 -15.6801 -283.82C-136.09 -168.49 -304.02 -40.1461 -336.29 146.775" stroke="url(#paint24_linear_2_1925)" stroke-width="0.25" stroke-miterlimit="10"/>
<path d="M864.65 -1034.27C864.65 -1034.27 849.03 -780.743 705.58 -654.182C624.36 -582.527 532.99 -531.892 418.1 -493.16C401.03 -487.481 383.8 -481.278 366.4 -475.065C355.1 -471.083 343.77 -467.955 332.6 -465.457C282.68 -454.503 237.75 -438.404 198.61 -425.892C108.62 -397.121 45.8399 -351.675 -20.2901 -292.584C-143.43 -182.55 -299.13 -49.0603 -327.08 158.764" stroke="url(#paint25_linear_2_1925)" stroke-width="0.25" stroke-miterlimit="10"/>
<path d="M861.45 -1036.06C861.45 -1036.06 845.13 -789.978 707.74 -654.802C630.76 -579.057 540.91 -522.263 425.95 -483.221C409.07 -477.553 391.93 -471.596 374.55 -465.799C363.25 -462.073 351.88 -459.308 340.65 -457.247C290.42 -448.184 244.71 -434.657 204.26 -423.779C111.18 -398.734 43.0701 -357.963 -24.9199 -301.36C-150.78 -196.599 -294.25 -57.996 -317.9 170.753" stroke="url(#paint26_linear_2_1925)" stroke-width="0.25" stroke-miterlimit="10"/>
<path d="M858.24 -1037.85C858.24 -1037.85 841.08 -799.223 709.9 -655.4C637.08 -575.566 548.83 -512.612 433.81 -473.271C417.11 -467.613 400.08 -461.902 382.72 -456.521C371.41 -453.052 360.01 -450.65 348.71 -449.016C298.17 -441.842 251.68 -430.899 209.93 -421.644C113.76 -400.335 40.3201 -364.197 -29.5199 -310.125C-158.09 -210.584 -289.34 -66.9208 -308.69 182.742" stroke="url(#paint27_linear_2_1925)" stroke-width="0.25" stroke-miterlimit="10"/>
<path d="M855.03 -1039.64C855.03 -1039.64 836.91 -808.49 712.05 -656.019C643.33 -572.097 556.74 -502.993 441.65 -463.332C425.14 -457.685 408.21 -452.219 390.86 -447.255C379.55 -444.041 368.11 -442.002 356.75 -440.796C305.89 -435.501 258.64 -427.152 215.58 -419.519C116.33 -401.936 37.56 -370.421 -34.15 -318.89C-165.44 -224.537 -284.46 -75.835 -299.5 194.742" stroke="url(#paint28_linear_2_1925)" stroke-width="0.25" stroke-miterlimit="10"/>
<path d="M851.82 -1041.42C851.82 -1041.42 832.6 -817.735 714.21 -656.627C649.51 -568.585 564.67 -493.353 449.51 -453.393C433.18 -447.757 416.36 -442.536 399.03 -437.988C387.71 -435.031 376.24 -433.344 364.81 -432.576C313.64 -429.17 265.61 -423.469 221.24 -417.395C118.9 -403.708 34.8 -376.624 -38.77 -327.654C-172.77 -238.459 -279.57 -84.7601 -290.3 206.73" stroke="url(#paint29_linear_2_1925)" stroke-width="0.25" stroke-miterlimit="10"/>
<path d="M848.62 -1043.21C848.62 -1043.21 828.18 -826.937 716.37 -657.236C655.64 -565.051 572.59 -483.712 457.36 -443.454C441.21 -437.828 424.49 -432.853 407.18 -428.721C395.86 -426.031 384.34 -424.697 372.86 -424.355C321.38 -422.839 272.58 -419.69 226.9 -415.27C121.5 -405.246 32.0401 -382.805 -43.3799 -336.43C-180.12 -252.337 -274.68 -93.6955 -281.11 218.719" stroke="url(#paint30_linear_2_1925)" stroke-width="0.25" stroke-miterlimit="10"/>
<path d="M845.41 -1045C845.41 -1045 788.6 -499.779 415.34 -419.455C404.02 -417.021 392.46 -416.05 380.91 -416.135C-6.1799 -418.911 -268.11 -367.325 -271.92 230.719" stroke="url(#paint31_linear_2_1925)" stroke-width="0.25" stroke-miterlimit="10"/>
<path d="M839.01 -1043.42C839.76 -1040.67 830.02 -944.328 792.65 -827.055C755.56 -710.668 692.03 -574.04 581.89 -486.157C536.8 -449.966 483.73 -421.91 421.5 -407.071C410.23 -404.36 398.73 -403.1 387.2 -402.876C368.67 -402.523 350.37 -402.107 332.32 -401.595C215.92 -398.467 111.29 -391.314 23.3401 -362.863C-14.6699 -350.415 -49.6299 -333.942 -81.2499 -312.132C-158.59 -259.031 -216.3 -174.618 -249.41 -38.4593C-267.45 35.7157 -277.41 125.349 -278.66 231.306" stroke="url(#paint32_linear_2_1925)" stroke-width="0.25" stroke-miterlimit="10"/>
<path d="M832.61 -1041.85C834.12 -1036.33 824.76 -940.452 789.58 -823.991C754.01 -706.227 693.34 -568.552 585.95 -477.883C541.74 -440.55 489.43 -410.904 427.65 -394.709C416.44 -391.73 404.98 -390.172 393.48 -389.638C375.01 -388.805 356.7 -387.962 338.59 -387.108C222.19 -381.973 116.59 -376.603 27.7901 -350.287C-10.4499 -338.96 -45.5999 -323.448 -77.6899 -302.951C-156.2 -252.785 -216.37 -172.515 -252.55 -38.3419C-272.49 35.5982 -283.59 126.001 -285.43 231.872" stroke="url(#paint33_linear_2_1925)" stroke-width="0.25" stroke-miterlimit="10"/>
<path d="M826.22 -1040.28C828.48 -1032.01 819.54 -936.545 786.52 -820.927C752.49 -701.764 694.77 -562.873 590.02 -469.599C546.73 -431.049 495.12 -400.036 433.81 -382.336C422.65 -379.111 411.24 -377.222 399.77 -376.389C381.35 -375.065 363.05 -373.763 344.87 -372.599C228.5 -365.158 121.94 -361.699 32.2501 -337.7C-6.18994 -327.42 -41.5999 -312.975 -74.1199 -293.748C-153.87 -246.604 -216.49 -170.379 -255.68 -38.1924C-277.54 35.5342 -289.77 126.673 -292.18 232.469" stroke="url(#paint34_linear_2_1925)" stroke-width="0.25" stroke-miterlimit="10"/>
<path d="M819.82 -1038.7C822.84 -1027.67 814.35 -932.606 783.45 -817.852C750.98 -697.27 696.2 -557.172 594.08 -461.315C551.71 -421.547 500.81 -389.05 439.96 -369.962C428.86 -366.482 417.49 -364.283 406.04 -363.14C387.67 -361.336 369.37 -359.596 351.13 -358.102C234.77 -348.568 127.29 -346.796 36.7001 -325.124C-1.93993 -315.879 -37.5999 -302.524 -70.5599 -284.567C-151.56 -240.444 -216.67 -168.244 -258.82 -38.0749C-282.62 35.4382 -295.95 127.324 -298.94 233.035" stroke="url(#paint35_linear_2_1925)" stroke-width="0.25" stroke-miterlimit="10"/>
<path d="M813.42 -1037.13C817.19 -1023.35 809.2 -928.656 780.38 -814.788C749.5 -692.754 697.63 -551.46 598.13 -453.03C556.69 -412.035 506.49 -378.076 446.1 -357.589C435.05 -353.842 423.74 -351.344 412.31 -349.881C394 -347.597 375.69 -345.419 357.39 -343.593C241.05 -331.967 132.64 -331.871 41.14 -312.538C2.31004 -304.328 -33.6299 -292.051 -67.0199 -275.365C-149.27 -234.274 -216.92 -166.098 -261.97 -37.9361C-287.74 35.3742 -302.14 127.997 -305.72 233.633" stroke="url(#paint36_linear_2_1925)" stroke-width="0.25" stroke-miterlimit="10"/>
<path d="M807.03 -1035.56C811.56 -1019.02 804.1 -924.674 777.32 -811.725C748.04 -688.217 699.08 -545.738 602.2 -444.746C561.69 -402.513 512.19 -367.091 452.26 -345.216C441.27 -341.202 430 -338.405 418.6 -336.633C400.34 -333.857 382.03 -331.252 363.67 -329.096C247.35 -315.399 138.02 -316.947 45.61 -299.951C6.58002 -292.777 -29.62 -281.589 -63.44 -266.173C-146.95 -228.114 -217.19 -163.942 -265.09 -37.8082C-292.86 35.2992 -308.31 128.659 -312.46 234.21" stroke="url(#paint37_linear_2_1925)" stroke-width="0.25" stroke-miterlimit="10"/>
<path d="M800.63 -1033.98C805.91 -1014.68 799.02 -920.66 774.25 -808.65C746.61 -683.648 700.52 -539.984 606.26 -436.462C566.67 -392.99 517.89 -356.095 458.41 -332.843C447.47 -328.562 436.25 -325.466 424.88 -323.384C406.67 -320.128 388.36 -317.096 369.93 -314.587C253.64 -298.819 143.39 -302.011 50.05 -287.364C10.84 -281.215 -25.64 -271.126 -59.89 -256.981C-144.67 -221.954 -217.54 -161.807 -268.24 -37.6694C-298.03 35.2459 -314.5 129.321 -319.24 234.797" stroke="url(#paint38_linear_2_1925)" stroke-width="0.25" stroke-miterlimit="10"/>
<path d="M794.23 -1032.41C800.27 -1010.36 793.99 -916.646 771.19 -805.586C745.21 -679.068 701.98 -534.219 610.33 -428.177C571.68 -383.457 523.59 -345.099 464.58 -320.47C453.7 -315.922 442.52 -312.516 431.18 -310.136C413.03 -306.399 394.72 -302.929 376.22 -300.09C259.95 -282.25 148.79 -287.065 54.52 -274.788C15.12 -269.653 -21.64 -260.675 -56.31 -247.789C-142.36 -215.815 -217.9 -159.661 -271.36 -37.5412C-303.19 35.182 -320.67 129.982 -325.98 235.373" stroke="url(#paint39_linear_2_1925)" stroke-width="0.25" stroke-miterlimit="10"/>
<path d="M787.84 -1030.84C794.63 -1006.03 789 -912.61 768.13 -802.522C743.85 -674.477 703.45 -528.444 614.4 -419.893C576.68 -373.912 529.29 -334.103 470.74 -308.097C459.91 -303.282 448.79 -299.577 437.46 -296.887C419.36 -292.659 401.05 -288.763 382.49 -285.592C266.24 -265.703 154.18 -272.109 58.98 -262.212C19.4 -258.091 -17.65 -250.223 -52.74 -238.608C-140.07 -209.677 -218.33 -157.547 -274.48 -37.4239C-308.38 35.0964 -326.83 130.634 -332.73 235.95" stroke="url(#paint40_linear_2_1925)" stroke-width="0.25" stroke-miterlimit="10"/>
<path d="M781.44 -1029.26C788.99 -1001.69 784.05 -908.543 765.06 -799.447C742.5 -669.844 704.92 -522.647 618.46 -411.608C581.68 -364.368 534.99 -323.107 476.89 -295.723C466.11 -290.642 455.04 -286.638 443.74 -283.638C425.7 -278.93 407.38 -274.607 388.76 -271.094C272.53 -249.156 159.58 -257.141 63.43 -249.636C23.66 -246.529 -13.68 -239.782 -49.18 -229.416C-137.8 -203.549 -218.82 -155.423 -277.63 -37.2957C-313.63 35.0217 -333.03 131.296 -339.5 236.526" stroke="url(#paint41_linear_2_1925)" stroke-width="0.25" stroke-miterlimit="10"/>
<path d="M775.04 -1027.69C783.34 -997.365 779.13 -904.475 761.99 -796.383C741.19 -665.221 706.39 -516.85 622.52 -403.324C586.68 -354.813 540.68 -312.1 483.04 -283.35C472.32 -278.002 461.3 -273.667 450.02 -270.39C432.04 -265.159 413.72 -260.451 395.03 -256.586C278.83 -232.608 164.97 -242.152 67.89 -237.039C27.94 -234.936 -9.68999 -229.32 -45.62 -220.214C-135.53 -197.41 -219.35 -153.309 -280.76 -37.1462C-318.88 34.9684 -339.2 131.968 -346.25 237.124" stroke="url(#paint42_linear_2_1925)" stroke-width="0.25" stroke-miterlimit="10"/>
<path d="M768.65 -1026.13C777.71 -993.041 774.25 -900.397 758.93 -793.319C739.93 -660.567 707.89 -511.032 626.58 -395.05C591.69 -345.269 546.38 -301.093 489.19 -270.988C478.52 -265.372 467.55 -260.739 456.3 -257.152C438.38 -251.43 420.05 -246.295 401.3 -242.099C285.12 -216.082 170.37 -227.164 72.34 -224.473C32.21 -223.374 -5.72003 -218.901 -42.06 -211.043C-133.26 -191.325 -219.93 -151.249 -283.9 -37.0395C-324.17 34.8509 -345.38 132.609 -353.02 237.69" stroke="url(#paint43_linear_2_1925)" stroke-width="0.25" stroke-miterlimit="10"/>
<path d="M762.25 -1024.55C772.06 -988.707 769.41 -896.287 755.86 -790.245C738.7 -655.901 709.39 -505.202 630.64 -386.755C596.7 -335.704 552.07 -290.076 495.34 -258.604C484.73 -252.721 473.8 -247.789 462.58 -243.893C444.71 -237.69 426.38 -232.128 407.57 -227.591C291.41 -199.556 175.77 -212.154 76.8 -211.887C36.49 -211.78 -1.74002 -208.449 -38.49 -201.841C-130.99 -185.197 -220.53 -149.167 -287.02 -36.9006C-329.46 34.7549 -351.55 133.281 -359.76 238.277" stroke="url(#paint44_linear_2_1925)" stroke-width="0.25" stroke-miterlimit="10"/>
<path d="M755.85 -1022.98C766.42 -984.372 764.6 -892.187 752.79 -787.181C737.51 -651.236 710.9 -499.363 634.7 -378.471C601.71 -326.138 557.77 -279.048 501.49 -246.231C490.94 -240.071 480.06 -234.85 468.85 -230.644C451.04 -223.961 432.7 -217.972 413.83 -213.093C297.69 -183.041 181.16 -197.133 81.2399 -199.311C40.7499 -200.186 2.21994 -198.019 -34.9401 -192.66C-128.74 -179.112 -221.2 -147.138 -290.17 -36.7832C-334.8 34.6268 -357.74 133.922 -366.54 238.843" stroke="url(#paint45_linear_2_1925)" stroke-width="0.25" stroke-miterlimit="10"/>
<path d="M749.46 -1021.41C760.78 -980.049 759.83 -888.088 749.73 -784.117C736.37 -646.56 712.43 -493.523 638.77 -370.197C606.74 -316.573 563.48 -268.041 507.65 -233.868C497.15 -227.441 486.32 -221.911 475.14 -217.406C457.38 -210.232 439.05 -203.826 420.11 -198.595C303.98 -166.525 186.56 -182.101 85.7 -186.724C45.03 -188.592 6.20995 -187.589 -31.3701 -183.457C-126.47 -173.016 -221.88 -145.11 -293.3 -36.6337C-340.15 34.5201 -363.92 134.605 -373.29 239.441" stroke="url(#paint46_linear_2_1925)" stroke-width="0.25" stroke-miterlimit="10"/>
<path d="M743.06 -1019.83C755.14 -975.715 755.09 -883.967 746.66 -781.053C735.26 -641.873 713.97 -487.673 642.83 -361.913C611.77 -307.008 569.18 -257.013 513.8 -221.495C503.36 -214.801 492.57 -208.972 481.42 -204.147C463.71 -196.492 445.38 -189.66 426.38 -184.087C310.27 -150.01 191.96 -167.049 90.16 -174.137C49.31 -176.977 10.1899 -177.159 -27.8101 -174.265C-124.2 -166.931 -222.6 -143.114 -296.44 -36.5057C-345.53 34.3705 -370.1 135.267 -380.06 240.028" stroke="url(#paint47_linear_2_1925)" stroke-width="0.25" stroke-miterlimit="10"/>
<path d="M736.66 -1018.26C749.49 -971.391 750.39 -879.846 743.59 -777.989C734.2 -637.197 715.51 -481.812 646.89 -353.628C616.8 -297.431 574.89 -245.985 519.96 -209.122C509.57 -202.15 498.84 -196.033 487.71 -190.898C470.06 -182.763 451.72 -175.514 432.65 -169.589C316.56 -133.516 197.36 -151.996 94.6099 -161.561C53.5799 -165.383 14.1599 -166.739 -24.2501 -165.073C-121.94 -160.867 -223.35 -141.149 -299.58 -36.3775C-350.93 34.1998 -376.29 135.929 -386.82 240.605" stroke="url(#paint48_linear_2_1925)" stroke-width="0.25" stroke-miterlimit="10"/>
<path d="M730.27 -1016.69C743.86 -967.056 745.72 -875.736 740.54 -774.925C733.21 -632.5 717.09 -475.951 650.97 -345.355C621.86 -287.866 580.61 -234.968 526.13 -196.759C515.8 -189.521 505.1 -183.126 494.01 -177.66C476.4 -169.077 458.07 -161.369 438.94 -155.103C322.86 -117.033 202.77 -136.943 99.09 -148.996C57.88 -153.789 18.16 -156.33 -20.66 -155.903C-119.65 -154.825 -224.09 -139.238 -302.68 -36.2709C-356.31 33.9861 -382.43 136.559 -393.55 241.159" stroke="url(#paint49_linear_2_1925)" stroke-width="0.25" stroke-miterlimit="10"/>
<path d="M723.87 -1015.12C738.21 -962.733 741.08 -871.626 737.47 -771.861C732.25 -627.814 718.66 -470.08 655.03 -337.071C626.9 -278.279 586.32 -223.94 532.28 -184.386C522.01 -176.87 511.35 -170.187 500.28 -164.412C482.72 -155.348 464.39 -147.224 445.2 -140.594C329.13 -100.539 208.15 -121.858 103.53 -136.399C62.13 -142.153 22.12 -145.889 -17.11 -146.701C-117.39 -148.75 -224.9 -137.317 -305.83 -36.1214C-361.75 33.794 -388.63 137.242 -400.32 241.757" stroke="url(#paint50_linear_2_1925)" stroke-width="0.25" stroke-miterlimit="10"/>
<path d="M717.47 -1013.54C732.57 -958.398 736.47 -867.505 734.4 -768.787C731.34 -623.127 720.25 -464.197 659.08 -328.786C631.94 -268.703 592.02 -212.901 538.42 -172.013C528.21 -164.22 517.59 -157.248 506.55 -151.163C489.05 -141.608 470.71 -133.068 451.46 -126.096C335.39 -84.0554 213.53 -106.773 107.98 -123.823C66.4 -130.538 26.0999 -135.48 -13.5501 -137.509C-115.13 -142.708 -225.71 -135.438 -308.97 -35.9932C-367.2 33.5592 -394.81 137.904 -407.08 242.345" stroke="url(#paint51_linear_2_1925)" stroke-width="0.25" stroke-miterlimit="10"/>
<path d="M711.08 -1011.97C726.93 -954.075 731.9 -863.395 731.34 -765.723C730.49 -618.451 721.86 -458.325 663.15 -320.502C637.01 -259.127 597.75 -201.862 544.58 -159.64C534.43 -151.579 523.86 -144.299 512.84 -137.915C495.39 -127.879 477.05 -118.922 457.74 -111.599C341.68 -67.5828 218.92 -91.678 112.44 -111.247C70.6699 -118.922 30.0799 -125.072 -9.99011 -128.328C-112.86 -136.676 -226.54 -133.602 -312.11 -35.8759C-372.67 33.2923 -400.99 138.555 -413.85 242.91" stroke="url(#paint52_linear_2_1925)" stroke-width="0.25" stroke-miterlimit="10"/>
<path d="M704.68 -1010.4C721.29 -949.74 727.35 -859.295 728.27 -762.659C729.69 -613.775 723.46 -452.454 667.21 -312.217C642.07 -249.54 603.46 -190.824 550.73 -147.266C540.63 -138.929 530.11 -131.36 519.12 -124.666C501.72 -114.15 483.38 -104.766 464.01 -97.1012C347.95 -51.1208 224.3 -76.5717 116.89 -98.6705C74.9399 -107.297 34.0599 -114.673 -6.43011 -119.136C-110.58 -130.634 -227.39 -131.787 -315.24 -35.7477C-378.14 33.0147 -407.17 139.206 -420.6 243.487" stroke="url(#paint53_linear_2_1925)" stroke-width="0.25" stroke-miterlimit="10"/>
<path d="M698.28 -1008.82C715.64 -945.406 722.82 -855.196 725.2 -759.584C728.94 -609.109 725.09 -446.571 671.27 -303.933C647.13 -239.953 609.18 -179.785 556.88 -134.893C546.84 -126.278 536.36 -118.421 525.4 -111.417C508.06 -100.411 489.71 -90.6209 470.28 -82.5927C354.22 -34.6373 229.67 -61.4441 121.35 -86.073C79.2102 -95.6598 38.0501 -104.243 -2.85986 -109.933C-108.3 -124.591 -228.24 -129.993 -318.37 -35.5981C-383.62 32.7266 -413.34 139.89 -427.36 244.085" stroke="url(#paint54_linear_2_1925)" stroke-width="0.25" stroke-miterlimit="10"/>
<path d="M691.89 -1007.25C710.01 -941.082 718.34 -851.107 722.14 -756.52C728.26 -604.466 726.73 -440.7 675.34 -295.648C652.21 -230.377 614.91 -168.735 563.04 -122.52C553.06 -113.627 542.62 -105.482 531.68 -98.1686C514.39 -86.6815 496.04 -76.4755 476.55 -68.095C360.48 -18.1859 235.04 -46.3272 125.8 -73.4969C83.4599 -84.0232 42.0299 -93.8449 0.69989 -100.752C-106.01 -118.581 -229.1 -128.242 -321.51 -35.4807C-389.12 32.385 -419.53 140.541 -434.12 244.661" stroke="url(#paint55_linear_2_1925)" stroke-width="0.25" stroke-miterlimit="10"/>
<path d="M685.49 -1005.68C704.36 -936.759 713.86 -847.04 719.07 -753.456C727.62 -599.832 728.37 -434.828 679.4 -287.364C657.29 -220.79 620.64 -157.697 569.2 -110.147C559.28 -100.987 548.89 -92.532 537.97 -84.9202C520.73 -72.9421 502.37 -62.3304 482.83 -53.5977C366.76 -1.72426 240.41 -31.2 130.27 -60.9212C87.7399 -72.3976 46.0299 -83.447 4.27991 -91.5606C-103.71 -112.56 -229.96 -126.513 -324.63 -35.3528C-394.61 32.0324 -425.69 141.203 -440.87 245.238" stroke="url(#paint56_linear_2_1925)" stroke-width="0.25" stroke-miterlimit="10"/>
<path d="M679.09 -1004.1C698.72 -932.413 709.41 -842.972 716 -750.381C727.05 -595.21 730.02 -428.946 683.46 -279.08C662.37 -211.214 626.36 -146.647 575.35 -97.7736C565.5 -88.3363 555.14 -79.5929 544.25 -71.6715C527.07 -59.2129 508.7 -48.1848 489.1 -39.0998C373.02 14.7273 245.77 -16.0615 134.72 -48.345C91.9902 -60.7715 50.0101 -73.0486 7.83014 -82.3792C-101.43 -106.549 -230.84 -124.826 -327.77 -35.2352C-400.12 31.6483 -431.88 141.843 -447.63 245.804" stroke="url(#paint57_linear_2_1925)" stroke-width="0.25" stroke-miterlimit="10"/>
<path d="M672.69 -1002.53C693.07 -928.09 704.98 -838.926 712.93 -747.318C726.53 -590.619 731.69 -423.074 687.51 -270.795C667.45 -201.627 632.08 -135.598 581.49 -85.4004C571.7 -75.6855 561.38 -66.6538 550.52 -58.4121C533.39 -45.4731 515.02 -34.0287 495.36 -24.5807C379.26 31.2 251.11 -0.891279 139.16 -35.7476C96.2399 -49.1136 53.9799 -62.6291 11.3799 -73.166C-99.1401 -100.528 -231.72 -123.139 -330.91 -35.0857C-405.65 31.264 -438.06 142.527 -454.39 246.401" stroke="url(#paint58_linear_2_1925)" stroke-width="0.25" stroke-miterlimit="10"/>
<path d="M666.3 -1000.96C687.44 -923.766 700.58 -834.891 709.88 -744.254C726.09 -586.061 733.38 -417.213 691.59 -262.522C672.56 -192.062 637.92 -124.463 587.66 -73.0382C577.95 -63.0243 567.65 -53.7258 556.82 -45.1745C539.75 -31.7445 521.35 -19.9371 501.64 -10.0941C385.43 47.4054 256.47 14.2466 143.63 -23.1719C100.51 -37.4773 57.9901 -52.2312 14.9601 -63.9852C-96.8299 -94.5178 -232.59 -121.506 -334.04 -34.9578C-411.16 30.8367 -444.23 143.188 -461.15 246.988" stroke="url(#paint59_linear_2_1925)" stroke-width="0.25" stroke-miterlimit="10"/>
<path d="M659.9 -999.383C681.79 -919.432 696.2 -830.866 706.81 -741.179C725.7 -581.513 735.06 -411.342 695.65 -254.227C677.65 -182.475 643.62 -113.435 593.81 -60.6543C584.15 -50.3735 573.91 -40.7654 563.09 -31.9152C546.07 -18.0047 527.67 -5.77028 507.9 4.41437C391.7 63.9316 261.8 29.417 148.07 -10.585C104.74 -25.83 61.9801 -41.8863 18.5101 -54.7826C-94.4999 -88.6674 -233.48 -119.873 -337.19 -34.819C-416.71 30.3991 -450.43 143.861 -467.92 247.576" stroke="url(#paint60_linear_2_1925)" stroke-width="0.25" stroke-miterlimit="10"/>
<path d="M653.5 -997.813C676.15 -915.098 691.83 -826.873 703.74 -738.115C725.36 -576.997 736.9 -405.449 699.71 -245.942C682.82 -172.878 649.33 -102.418 599.96 -48.2811C590.36 -37.7335 580.16 -27.8264 569.37 -18.6666C552.4 -4.27571 534 8.38573 514.17 18.912C397.97 80.447 267.09 44.7046 152.53 1.99093C108.98 -14.1294 65.9701 -31.4668 22.0801 -45.6015C-92.1999 -82.5929 -234.34 -118.293 -340.31 -34.6909C-422.22 29.9293 -456.59 144.512 -474.67 248.152" stroke="url(#paint61_linear_2_1925)" stroke-width="0.25" stroke-miterlimit="10"/>
<path d="M647.11 -996.244C670.51 -910.774 687.48 -822.902 700.68 -735.051C725.09 -572.524 738.46 -399.641 703.78 -237.669C679.88 -126.054 617.89 -19.8835 520.45 33.3991C404.26 96.9411 272.47 59.7362 156.99 14.5564C113.25 -2.55677 69.9598 -21.0472 25.6398 -36.4309C-89.9102 -76.529 -235.21 -116.745 -343.45 -34.584C-427.76 29.4064 -462.78 145.153 -481.43 248.718" stroke="url(#paint62_linear_2_1925)" stroke-width="0.25" stroke-miterlimit="10"/>
<defs>
<linearGradient id="paint0_linear_2_1925" x1="337.412" y1="-52.8259" x2="118.619" y2="-717.814" gradientUnits="userSpaceOnUse">
<stop offset="0.7946" stop-color="#FFCE07"/>
<stop offset="1" stop-color="#B40FE7" stop-opacity="0.5"/>
</linearGradient>
<linearGradient id="paint1_linear_2_1925" x1="339.225" y1="-60.5484" x2="121.475" y2="-721.075" gradientUnits="userSpaceOnUse">
<stop offset="0.7946" stop-color="#FFCE07"/>
<stop offset="1" stop-color="#B40FE7" stop-opacity="0.5"/>
</linearGradient>
<linearGradient id="paint2_linear_2_1925" x1="341.027" y1="-68.172" x2="124.284" y2="-724.289" gradientUnits="userSpaceOnUse">
<stop offset="0.7946" stop-color="#FFCE07"/>
<stop offset="1" stop-color="#B40FE7" stop-opacity="0.5"/>
</linearGradient>
<linearGradient id="paint3_linear_2_1925" x1="342.846" y1="-75.5487" x2="127.004" y2="-727.393" gradientUnits="userSpaceOnUse">
<stop offset="0.7946" stop-color="#FFCE07"/>
<stop offset="1" stop-color="#B40FE7" stop-opacity="0.5"/>
</linearGradient>
<linearGradient id="paint4_linear_2_1925" x1="344.655" y1="-82.7064" x2="129.614" y2="-730.406" gradientUnits="userSpaceOnUse">
<stop offset="0.7946" stop-color="#FFCE07"/>
<stop offset="1" stop-color="#B40FE7" stop-opacity="0.5"/>
</linearGradient>
<linearGradient id="paint5_linear_2_1925" x1="346.464" y1="-89.5738" x2="132.105" y2="-733.285" gradientUnits="userSpaceOnUse">
<stop offset="0.7946" stop-color="#FFCE07"/>
<stop offset="1" stop-color="#B40FE7" stop-opacity="0.5"/>
</linearGradient>
<linearGradient id="paint6_linear_2_1925" x1="348.266" y1="-96.1212" x2="134.452" y2="-736.025" gradientUnits="userSpaceOnUse">
<stop offset="0.7946" stop-color="#FFCE07"/>
<stop offset="1" stop-color="#B40FE7" stop-opacity="0.5"/>
</linearGradient>
<linearGradient id="paint7_linear_2_1925" x1="350.075" y1="-102.256" x2="136.62" y2="-738.584" gradientUnits="userSpaceOnUse">
<stop offset="0.7946" stop-color="#FFCE07"/>
<stop offset="1" stop-color="#B40FE7" stop-opacity="0.5"/>
</linearGradient>
<linearGradient id="paint8_linear_2_1925" x1="351.89" y1="-107.895" x2="138.586" y2="-740.916" gradientUnits="userSpaceOnUse">
<stop offset="0.7946" stop-color="#FFCE07"/>
<stop offset="1" stop-color="#B40FE7" stop-opacity="0.5"/>
</linearGradient>
<linearGradient id="paint9_linear_2_1925" x1="353.7" y1="-112.93" x2="140.275" y2="-742.981" gradientUnits="userSpaceOnUse">
<stop offset="0.7946" stop-color="#FFCE07"/>
<stop offset="1" stop-color="#B40FE7" stop-opacity="0.5"/>
</linearGradient>
<linearGradient id="paint10_linear_2_1925" x1="355.505" y1="-117.175" x2="141.621" y2="-744.683" gradientUnits="userSpaceOnUse">
<stop offset="0.7946" stop-color="#FFCE07"/>
<stop offset="1" stop-color="#B40FE7" stop-opacity="0.5"/>
</linearGradient>
<linearGradient id="paint11_linear_2_1925" x1="357.311" y1="-120.407" x2="142.52" y2="-745.922" gradientUnits="userSpaceOnUse">
<stop offset="0.7946" stop-color="#FFCE07"/>
<stop offset="1" stop-color="#B40FE7" stop-opacity="0.5"/>
</linearGradient>
<linearGradient id="paint12_linear_2_1925" x1="359.126" y1="-122.308" x2="142.833" y2="-746.551" gradientUnits="userSpaceOnUse">
<stop offset="0.7946" stop-color="#FFCE07"/>
<stop offset="1" stop-color="#B40FE7" stop-opacity="0.5"/>
</linearGradient>
<linearGradient id="paint13_linear_2_1925" x1="360.935" y1="-122.331" x2="142.305" y2="-746.296" gradientUnits="userSpaceOnUse">
<stop offset="0.7946" stop-color="#FFCE07"/>
<stop offset="1" stop-color="#B40FE7" stop-opacity="0.5"/>
</linearGradient>
<linearGradient id="paint14_linear_2_1925" x1="362.744" y1="-119.67" x2="140.568" y2="-744.769" gradientUnits="userSpaceOnUse">
<stop offset="0.7946" stop-color="#FFCE07"/>
<stop offset="1" stop-color="#B40FE7" stop-opacity="0.5"/>
</linearGradient>
<linearGradient id="paint15_linear_2_1925" x1="364.55" y1="-112.929" x2="136.963" y2="-741.278" gradientUnits="userSpaceOnUse">
<stop offset="0.7946" stop-color="#FFCE07"/>
<stop offset="1" stop-color="#B40FE7" stop-opacity="0.5"/>
</linearGradient>
<linearGradient id="paint16_linear_2_1925" x1="366.347" y1="-102.916" x2="131.808" y2="-736.101" gradientUnits="userSpaceOnUse">
<stop offset="0.7946" stop-color="#FFCE07"/>
<stop offset="1" stop-color="#B40FE7" stop-opacity="0.5"/>
</linearGradient>
<linearGradient id="paint17_linear_2_1925" x1="368.178" y1="-92.9177" x2="126.578" y2="-730.73" gradientUnits="userSpaceOnUse">
<stop offset="0.7946" stop-color="#FFCE07"/>
<stop offset="1" stop-color="#B40FE7" stop-opacity="0.5"/>
</linearGradient>
<linearGradient id="paint18_linear_2_1925" x1="369.976" y1="-82.9113" x2="121.21" y2="-725.169" gradientUnits="userSpaceOnUse">
<stop offset="0.7946" stop-color="#FFCE07"/>
<stop offset="1" stop-color="#B40FE7" stop-opacity="0.5"/>
</linearGradient>
<linearGradient id="paint19_linear_2_1925" x1="371.789" y1="-72.8942" x2="115.749" y2="-719.386" gradientUnits="userSpaceOnUse">
<stop offset="0.7946" stop-color="#FFCE07"/>
<stop offset="1" stop-color="#B40FE7" stop-opacity="0.5"/>
</linearGradient>
<linearGradient id="paint20_linear_2_1925" x1="373.594" y1="-62.8876" x2="110.183" y2="-713.403" gradientUnits="userSpaceOnUse">
<stop offset="0.7946" stop-color="#FFCE07"/>
<stop offset="1" stop-color="#B40FE7" stop-opacity="0.5"/>
</linearGradient>
<linearGradient id="paint21_linear_2_1925" x1="375.41" y1="-52.8795" x2="104.534" y2="-707.196" gradientUnits="userSpaceOnUse">
<stop offset="0.7946" stop-color="#FFCE07"/>
<stop offset="1" stop-color="#B40FE7" stop-opacity="0.5"/>
</linearGradient>
<linearGradient id="paint22_linear_2_1925" x1="377.215" y1="-42.8625" x2="98.7773" y2="-700.759" gradientUnits="userSpaceOnUse">
<stop offset="0.7946" stop-color="#FFCE07"/>
<stop offset="1" stop-color="#B40FE7" stop-opacity="0.5"/>
</linearGradient>
<linearGradient id="paint23_linear_2_1925" x1="379.024" y1="-32.8562" x2="92.9334" y2="-694.097" gradientUnits="userSpaceOnUse">
<stop offset="0.7946" stop-color="#FFCE07"/>
<stop offset="1" stop-color="#B40FE7" stop-opacity="0.5"/>
</linearGradient>
<linearGradient id="paint24_linear_2_1925" x1="380.83" y1="-22.8483" x2="87.0047" y2="-687.193" gradientUnits="userSpaceOnUse">
<stop offset="0.7946" stop-color="#FFCE07"/>
<stop offset="1" stop-color="#B40FE7" stop-opacity="0.5"/>
</linearGradient>
<linearGradient id="paint25_linear_2_1925" x1="382.643" y1="-12.8402" x2="80.9989" y2="-680.038" gradientUnits="userSpaceOnUse">
<stop offset="0.7946" stop-color="#FFCE07"/>
<stop offset="1" stop-color="#B40FE7" stop-opacity="0.5"/>
</linearGradient>
<linearGradient id="paint26_linear_2_1925" x1="384.45" y1="-2.83393" x2="74.9117" y2="-672.643" gradientUnits="userSpaceOnUse">
<stop offset="0.7946" stop-color="#FFCE07"/>
<stop offset="1" stop-color="#B40FE7" stop-opacity="0.5"/>
</linearGradient>
<linearGradient id="paint27_linear_2_1925" x1="386.264" y1="7.17418" x2="68.7557" y2="-664.974" gradientUnits="userSpaceOnUse">
<stop offset="0.7946" stop-color="#FFCE07"/>
<stop offset="1" stop-color="#B40FE7" stop-opacity="0.5"/>
</linearGradient>
<linearGradient id="paint28_linear_2_1925" x1="388.069" y1="17.1897" x2="62.5185" y2="-657.041" gradientUnits="userSpaceOnUse">
<stop offset="0.7946" stop-color="#FFCE07"/>
<stop offset="1" stop-color="#B40FE7" stop-opacity="0.5"/>
</linearGradient>
<linearGradient id="paint29_linear_2_1925" x1="389.878" y1="27.1975" x2="56.231" y2="-648.833" gradientUnits="userSpaceOnUse">
<stop offset="0.7946" stop-color="#FFCE07"/>
<stop offset="1" stop-color="#B40FE7" stop-opacity="0.5"/>
</linearGradient>
<linearGradient id="paint30_linear_2_1925" x1="391.69" y1="37.2057" x2="49.8935" y2="-640.347" gradientUnits="userSpaceOnUse">
<stop offset="0.7946" stop-color="#FFCE07"/>
<stop offset="1" stop-color="#B40FE7" stop-opacity="0.5"/>
</linearGradient>
<linearGradient id="paint31_linear_2_1925" x1="393.495" y1="47.2211" x2="43.4895" y2="-631.57" gradientUnits="userSpaceOnUse">
<stop offset="0.7946" stop-color="#FFCE07"/>
<stop offset="1" stop-color="#B40FE7" stop-opacity="0.5"/>
</linearGradient>
<linearGradient id="paint32_linear_2_1925" x1="386.981" y1="47.9511" x2="37.4749" y2="-630.63" gradientUnits="userSpaceOnUse">
<stop offset="0.7946" stop-color="#FFCE07"/>
<stop offset="1" stop-color="#B40FE7" stop-opacity="0.5"/>
</linearGradient>
<linearGradient id="paint33_linear_2_1925" x1="380.499" y1="48.6613" x2="31.5151" y2="-629.732" gradientUnits="userSpaceOnUse">
<stop offset="0.7946" stop-color="#FFCE07"/>
<stop offset="1" stop-color="#B40FE7" stop-opacity="0.5"/>
</linearGradient>
<linearGradient id="paint34_linear_2_1925" x1="374.068" y1="49.3988" x2="25.6035" y2="-628.83" gradientUnits="userSpaceOnUse">
<stop offset="0.7946" stop-color="#FFCE07"/>
<stop offset="1" stop-color="#B40FE7" stop-opacity="0.5"/>
</linearGradient>
<linearGradient id="paint35_linear_2_1925" x1="367.667" y1="50.1105" x2="19.7504" y2="-627.955" gradientUnits="userSpaceOnUse">
<stop offset="0.7946" stop-color="#FFCE07"/>
<stop offset="1" stop-color="#B40FE7" stop-opacity="0.5"/>
</linearGradient>
<linearGradient id="paint36_linear_2_1925" x1="361.292" y1="50.8481" x2="13.9197" y2="-627.087" gradientUnits="userSpaceOnUse">
<stop offset="0.7946" stop-color="#FFCE07"/>
<stop offset="1" stop-color="#B40FE7" stop-opacity="0.5"/>
</linearGradient>
<linearGradient id="paint37_linear_2_1925" x1="354.978" y1="51.5673" x2="8.16542" y2="-626.238" gradientUnits="userSpaceOnUse">
<stop offset="0.7946" stop-color="#FFCE07"/>
<stop offset="1" stop-color="#B40FE7" stop-opacity="0.5"/>
</linearGradient>
<linearGradient id="paint38_linear_2_1925" x1="348.678" y1="52.2974" x2="2.44084" y2="-625.399" gradientUnits="userSpaceOnUse">
<stop offset="0.7946" stop-color="#FFCE07"/>
<stop offset="1" stop-color="#B40FE7" stop-opacity="0.5"/>
</linearGradient>
<linearGradient id="paint39_linear_2_1925" x1="342.438" y1="53.0166" x2="-3.21827" y2="-624.578" gradientUnits="userSpaceOnUse">
<stop offset="0.7946" stop-color="#FFCE07"/>
<stop offset="1" stop-color="#B40FE7" stop-opacity="0.5"/>
</linearGradient>
<linearGradient id="paint40_linear_2_1925" x1="336.24" y1="53.7358" x2="-8.81958" y2="-623.778" gradientUnits="userSpaceOnUse">
<stop offset="0.7946" stop-color="#FFCE07"/>
<stop offset="1" stop-color="#B40FE7" stop-opacity="0.5"/>
</linearGradient>
<linearGradient id="paint41_linear_2_1925" x1="330.078" y1="54.4568" x2="-14.3624" y2="-622.994" gradientUnits="userSpaceOnUse">
<stop offset="0.7946" stop-color="#FFCE07"/>
<stop offset="1" stop-color="#B40FE7" stop-opacity="0.5"/>
</linearGradient>
<linearGradient id="paint42_linear_2_1925" x1="323.974" y1="55.1943" x2="-19.8512" y2="-622.218" gradientUnits="userSpaceOnUse">
<stop offset="0.7946" stop-color="#FFCE07"/>
<stop offset="1" stop-color="#B40FE7" stop-opacity="0.5"/>
</linearGradient>
<linearGradient id="paint43_linear_2_1925" x1="317.927" y1="55.9046" x2="-25.2458" y2="-621.488" gradientUnits="userSpaceOnUse">
<stop offset="0.7946" stop-color="#FFCE07"/>
<stop offset="1" stop-color="#B40FE7" stop-opacity="0.5"/>
</linearGradient>
<linearGradient id="paint44_linear_2_1925" x1="311.951" y1="56.6346" x2="-30.5618" y2="-620.758" gradientUnits="userSpaceOnUse">
<stop offset="0.7946" stop-color="#FFCE07"/>
<stop offset="1" stop-color="#B40FE7" stop-opacity="0.5"/>
</linearGradient>
<linearGradient id="paint45_linear_2_1925" x1="306.034" y1="57.3447" x2="-35.7837" y2="-620.082" gradientUnits="userSpaceOnUse">
<stop offset="0.7946" stop-color="#FFCE07"/>
<stop offset="1" stop-color="#B40FE7" stop-opacity="0.5"/>
</linearGradient>
<linearGradient id="paint46_linear_2_1925" x1="300.218" y1="58.0823" x2="-40.899" y2="-619.414" gradientUnits="userSpaceOnUse">
<stop offset="0.7946" stop-color="#FFCE07"/>
<stop offset="1" stop-color="#B40FE7" stop-opacity="0.5"/>
</linearGradient>
<linearGradient id="paint47_linear_2_1925" x1="294.49" y1="58.8122" x2="-45.8844" y2="-618.789" gradientUnits="userSpaceOnUse">
<stop offset="0.7946" stop-color="#FFCE07"/>
<stop offset="1" stop-color="#B40FE7" stop-opacity="0.5"/>
</linearGradient>
<linearGradient id="paint48_linear_2_1925" x1="288.882" y1="59.5316" x2="-50.7174" y2="-618.215" gradientUnits="userSpaceOnUse">
<stop offset="0.7946" stop-color="#FFCE07"/>
<stop offset="1" stop-color="#B40FE7" stop-opacity="0.5"/>
</linearGradient>
<linearGradient id="paint49_linear_2_1925" x1="283.43" y1="60.2324" x2="-55.3477" y2="-617.7" gradientUnits="userSpaceOnUse">
<stop offset="0.7946" stop-color="#FFCE07"/>
<stop offset="1" stop-color="#B40FE7" stop-opacity="0.5"/>
</linearGradient>
<linearGradient id="paint50_linear_2_1925" x1="278.122" y1="60.97" x2="-59.798" y2="-617.231" gradientUnits="userSpaceOnUse">
<stop offset="0.7946" stop-color="#FFCE07"/>
<stop offset="1" stop-color="#B40FE7" stop-opacity="0.5"/>
</linearGradient>
<linearGradient id="paint51_linear_2_1925" x1="273.023" y1="61.7001" x2="-63.9719" y2="-616.835" gradientUnits="userSpaceOnUse">
<stop offset="0.7946" stop-color="#FFCE07"/>
<stop offset="1" stop-color="#B40FE7" stop-opacity="0.5"/>
</linearGradient>
<linearGradient id="paint52_linear_2_1925" x1="268.181" y1="62.4102" x2="-67.8047" y2="-616.555" gradientUnits="userSpaceOnUse">
<stop offset="0.7946" stop-color="#FFCE07"/>
<stop offset="1" stop-color="#B40FE7" stop-opacity="0.5"/>
</linearGradient>
<linearGradient id="paint53_linear_2_1925" x1="263.701" y1="63.1295" x2="-71.181" y2="-616.394" gradientUnits="userSpaceOnUse">
<stop offset="0.7946" stop-color="#FFCE07"/>
<stop offset="1" stop-color="#B40FE7" stop-opacity="0.5"/>
</linearGradient>
<linearGradient id="paint54_linear_2_1925" x1="259.656" y1="63.8687" x2="-73.9958" y2="-616.377" gradientUnits="userSpaceOnUse">
<stop offset="0.7946" stop-color="#FFCE07"/>
<stop offset="1" stop-color="#B40FE7" stop-opacity="0.5"/>
</linearGradient>
<linearGradient id="paint55_linear_2_1925" x1="255.968" y1="64.5882" x2="-76.3452" y2="-616.5" gradientUnits="userSpaceOnUse">
<stop offset="0.7946" stop-color="#FFCE07"/>
<stop offset="1" stop-color="#B40FE7" stop-opacity="0.5"/>
</linearGradient>
<linearGradient id="paint56_linear_2_1925" x1="252.575" y1="65.3072" x2="-78.3198" y2="-616.713" gradientUnits="userSpaceOnUse">
<stop offset="0.7946" stop-color="#FFCE07"/>
<stop offset="1" stop-color="#B40FE7" stop-opacity="0.5"/>
</linearGradient>
<linearGradient id="paint57_linear_2_1925" x1="249.443" y1="66.0191" x2="-79.9483" y2="-617.008" gradientUnits="userSpaceOnUse">
<stop offset="0.7946" stop-color="#FFCE07"/>
<stop offset="1" stop-color="#B40FE7" stop-opacity="0.5"/>
</linearGradient>
<linearGradient id="paint58_linear_2_1925" x1="246.545" y1="66.7566" x2="-81.2976" y2="-617.357" gradientUnits="userSpaceOnUse">
<stop offset="0.7946" stop-color="#FFCE07"/>
<stop offset="1" stop-color="#B40FE7" stop-opacity="0.5"/>
</linearGradient>
<linearGradient id="paint59_linear_2_1925" x1="243.871" y1="67.4848" x2="-82.3577" y2="-617.768" gradientUnits="userSpaceOnUse">
<stop offset="0.7946" stop-color="#FFCE07"/>
<stop offset="1" stop-color="#B40FE7" stop-opacity="0.5"/>
</linearGradient>
<linearGradient id="paint60_linear_2_1925" x1="241.379" y1="68.2149" x2="-83.1824" y2="-618.218" gradientUnits="userSpaceOnUse">
<stop offset="0.7946" stop-color="#FFCE07"/>
<stop offset="1" stop-color="#B40FE7" stop-opacity="0.5"/>
</linearGradient>
<linearGradient id="paint61_linear_2_1925" x1="239.107" y1="68.9343" x2="-83.7349" y2="-618.721" gradientUnits="userSpaceOnUse">
<stop offset="0.7946" stop-color="#FFCE07"/>
<stop offset="1" stop-color="#B40FE7" stop-opacity="0.5"/>
</linearGradient>
<linearGradient id="paint62_linear_2_1925" x1="236.932" y1="69.6444" x2="-84.1625" y2="-619.238" gradientUnits="userSpaceOnUse">
<stop offset="0.7946" stop-color="#FFCE07"/>
<stop offset="1" stop-color="#B40FE7" stop-opacity="0.5"/>
</linearGradient>
</defs>
</svg>
