<svg width="1440" height="334" viewBox="0 0 1440 334" fill="none" xmlns="http://www.w3.org/2000/svg">
<path opacity="0.5" d="M-298.774 501.486C412.311 715.365 257.907 220.637 402.562 129.693C442.97 104.287 492.704 135.956 511.26 175.674C536.193 229.038 483.304 297.725 428.922 267.844C374.025 237.684 398.241 136.842 447.089 109.353C471.325 95.7164 500.615 97.129 525.88 106.072C619.28 139.154 657.177 252.107 718.738 324.305C763.757 377.11 818.664 422.543 883.571 444.01C956.036 467.983 1037.51 456.897 1101.67 408.171C1257.47 289.851 1356.11 -17.8145 1592.74 35.3631C1801.79 82.3525 1864.55 377.439 1889.6 568.251M1891.36 560.734C1874.64 446.594 1843.14 294.74 1775.19 185.266C1746.23 138.761 1711.2 100.289 1668.06 74.3523C1644.21 60.0139 1617.74 49.4841 1588.39 43.7056C1541.98 34.4564 1500.7 38.782 1463.1 52.4485C1394.89 77.2164 1338.28 133.331 1286.5 194.011C1250.24 236.51 1216.95 280.78 1184.21 321.658C1159.61 352.384 1134.19 381.084 1106.16 403.665C1079.32 425.328 1048.63 440.174 1016.6 448.014C975.399 458.144 932.119 456.782 891.476 444.289C826.543 424.495 770.926 380.247 725.584 327.187C662.583 253.541 622.254 146.302 531.564 116.93C525.605 114.998 519.437 113.548 513.212 112.633C494.035 109.807 474.053 111.824 456.893 121.754C410.997 148.22 389.056 243.37 440.205 270.418C448.725 274.924 457.131 276.922 465.168 276.784C506.297 276.312 537.192 222.731 515.547 179.961C496.307 141.937 447.046 111.827 406.575 137.347C391.514 146.839 379.595 160.631 369.539 177.482C283.35 322.028 322.409 684.189 -291.939 485.321M1893.13 553.196C1874.76 439.877 1840.56 288.95 1770.86 183.6C1741.08 138.852 1705.9 103.121 1663.1 79.437C1639.42 66.3575 1613.15 56.9893 1584.06 52.0112C1538.11 44.1475 1497.06 49.0588 1459.44 62.8759C1391.45 87.7799 1333.72 142.596 1281.88 199.585C1245.59 239.502 1213.4 279.581 1183.59 318.35C1160.96 347.796 1137.43 376.232 1110.67 399.119C1085.06 421.123 1055.08 436.716 1023.52 445.26C982.881 456.381 939.951 455.954 899.393 444.539C834.47 426.26 778.096 383.349 732.429 330.045C667.978 254.948 625.197 153.417 537.251 127.777C531.487 126.099 525.554 124.939 519.629 124.281C501.445 122.262 482.705 124.61 466.702 134.144C423.753 159.597 404.099 249.025 451.492 272.981C459.571 277.065 467.478 278.823 475.01 278.465C513.966 277.096 542.29 225.211 519.82 184.231C499.905 147.904 451.097 119.348 410.564 144.98C395.534 154.473 383.538 168.157 373.344 184.832C285.965 327.828 306.718 675.33 -285.124 469.149M1894.89 545.655C1874.88 433.155 1837.96 283.156 1766.51 181.941C1735.9 138.959 1700.58 105.949 1658.12 84.5384C1634.62 72.7177 1608.56 64.4813 1579.71 60.3436C1534.25 53.8188 1493.39 59.3689 1455.75 73.3266C1387.98 98.3767 1329.14 151.879 1277.25 205.186C1240.92 242.521 1209.84 278.402 1182.95 315.058C1162.3 343.218 1140.64 371.393 1115.15 394.597C1090.78 416.953 1061.51 433.27 1030.42 442.534C990.346 454.635 947.744 455.204 907.29 444.815C842.352 428.146 785.256 386.482 739.266 332.923C673.372 256.388 628.096 160.537 542.935 138.635C537.369 137.2 531.67 136.33 526.036 135.927C508.841 134.725 491.351 137.382 476.5 146.531C436.503 170.962 419.13 254.653 462.765 275.551C470.412 279.215 477.812 280.731 484.848 280.158C521.639 277.893 547.403 227.708 524.098 188.514C503.509 153.884 455.155 126.881 414.572 152.621C399.583 162.117 387.509 175.693 377.164 192.199C288.595 333.646 291.052 666.49 -278.293 452.994M1896.65 538.123C1875 426.434 1835.62 277.16 1762.16 180.279C1730.83 138.967 1695.25 108.774 1653.14 89.6361C1629.82 79.0744 1603.95 71.9697 1575.36 68.6624C1530.38 63.473 1489.73 69.6687 1452.06 83.7637C1384.5 108.95 1324.54 161.144 1272.59 210.77C1236.22 245.519 1206.27 277.199 1182.3 311.75C1163.65 338.641 1143.77 366.469 1119.62 390.051C1096.44 412.68 1067.92 429.728 1037.32 439.783C997.788 452.778 955.526 454.426 915.184 445.068C850.227 429.994 792.413 389.591 746.088 335.785C678.754 257.802 630.959 167.611 548.6 149.486C543.228 148.304 537.759 147.711 532.429 147.579C516.218 147.18 500.001 150.201 486.286 158.925C449.299 182.434 434.131 260.248 474.03 278.118C481.239 281.348 488.137 282.635 494.667 281.842C529.29 278.693 552.504 230.212 528.357 192.791C507.109 159.875 459.206 134.401 418.547 160.261C403.59 169.757 391.439 183.226 380.956 199.556C291.197 339.453 275.352 657.627 -271.491 436.828M1898.42 530.586C1875.13 419.716 1833.09 271.31 1757.82 178.624C1725.69 139.051 1689.96 111.609 1648.16 94.7275C1625.03 85.4281 1599.36 79.4417 1571.02 76.9883C1526.53 73.1277 1486.08 79.9721 1448.39 94.2112C1381.05 119.533 1319.97 170.42 1267.98 216.357C1231.57 248.535 1202.77 275.997 1181.69 308.455C1165.05 334.06 1146.99 361.623 1124.13 385.529C1102.18 408.494 1074.37 426.269 1044.25 437.057C1005.27 451.016 963.347 453.686 923.112 445.344C858.128 431.886 799.595 392.721 752.957 338.664C684.17 259.239 633.817 174.694 554.311 160.354C549.126 159.421 543.903 159.112 538.861 159.244C523.624 159.646 508.674 163.017 496.105 171.342C462.087 193.869 450.415 263.037 485.318 280.705C491.857 284.02 498.486 284.56 504.52 283.552C536.97 279.504 557.653 232.757 532.641 197.088C510.755 165.882 463.269 141.948 422.56 167.915C407.645 177.415 395.416 190.776 384.785 206.927C293.837 345.274 259.686 648.788 -264.651 420.676M1900.18 523.045C1875.25 412.985 1830.53 265.463 1753.48 176.955C1720.54 139.121 1684.64 114.438 1643.19 99.8188C1620.23 91.7783 1594.78 86.917 1566.68 85.3006C1522.68 82.7654 1482.42 90.2655 1444.71 104.642C1377.59 130.1 1315.39 179.679 1263.35 221.938C1226.9 251.533 1199.28 274.776 1181.06 305.144C1166.45 329.47 1150.19 356.758 1128.63 380.98C1107.89 404.278 1080.81 422.784 1051.15 434.3C1012.74 449.226 971.142 452.902 931.01 445.587C866.002 433.735 806.756 395.82 759.783 341.515C689.556 260.642 636.582 181.744 559.983 171.184C554.987 170.492 549.999 170.473 545.262 170.876C530.986 172.084 517.319 175.789 505.898 183.715C474.852 205.25 465.634 267.802 496.59 283.251C502.64 286.274 508.818 286.444 514.347 285.216C544.632 280.274 562.797 235.254 536.904 201.354C514.391 171.863 467.321 149.469 426.549 175.548C411.665 185.049 399.368 198.305 388.59 214.277C296.452 351.074 244.005 639.932 -257.845 404.5M1901.95 515.507C1875.38 406.267 1827.98 259.62 1749.14 175.296C1715.39 139.202 1679.32 117.266 1638.21 104.92C1615.44 98.1384 1590.19 94.3989 1562.33 93.6229C1518.82 92.4165 1478.77 100.559 1441.04 115.086C1374.13 140.69 1310.81 188.962 1258.72 227.528C1222.23 254.542 1195.82 273.544 1180.42 301.852C1167.89 324.889 1153.38 351.912 1133.12 376.461C1113.6 400.092 1087.24 419.329 1058.06 431.576C1020.2 447.467 978.931 452.161 938.916 445.867C873.877 435.64 813.915 398.953 766.629 344.397C694.963 262.076 639.318 188.816 565.663 182.052C560.852 181.609 556.093 181.868 551.674 182.535C538.341 184.543 525.977 188.588 515.703 196.116C487.638 216.661 480.806 272.436 507.869 285.835C513.423 288.584 519.158 288.365 524.191 286.922C552.311 281.085 567.965 237.806 541.178 205.648C518.043 177.884 471.374 157.012 430.54 183.205C415.697 192.71 403.313 205.854 392.397 221.651C299.07 356.899 228.317 631.096 -251.027 388.352M1903.7 507.976C1875.5 399.56 1825.41 253.776 1744.79 173.637C1710.23 139.279 1674.01 120.094 1633.24 110.011C1610.64 104.489 1585.61 101.874 1557.98 101.945C1514.97 102.058 1475.11 110.859 1437.35 125.526C1370.66 151.267 1306.23 198.234 1254.08 233.119C1217.56 257.561 1192.38 272.286 1179.79 298.551C1169.36 320.289 1156.58 347.059 1137.61 371.922C1119.32 395.899 1093.67 415.86 1064.98 428.833C1027.67 445.7 986.734 451.414 946.829 446.126C881.754 437.512 821.091 402.069 773.474 347.255C700.354 263.493 641.974 195.871 571.351 192.899C566.716 192.703 562.191 193.252 558.081 194.18C545.668 196.991 534.634 201.387 525.501 208.503C500.419 228.06 493.923 282.218 519.147 288.395C524.618 289.739 529.496 290.262 534.023 288.6C559.98 281.869 573.154 240.33 545.451 209.917C521.72 183.869 475.43 164.522 434.542 190.832C419.731 200.337 407.279 213.377 396.215 228.994C301.694 362.703 212.64 622.229 -244.198 372.173M1905.47 500.438C1875.63 392.832 1822.85 247.939 1740.45 171.978C1705.07 139.356 1668.7 122.926 1628.25 115.109C1605.84 110.849 1581.01 109.343 1553.63 110.264C1511.12 111.695 1471.44 121.159 1433.67 135.967C1367.19 161.843 1301.65 207.503 1249.44 238.706C1212.88 260.566 1189 270.967 1179.14 295.246C1170.86 315.666 1159.77 342.2 1142.09 367.389C1125.02 391.7 1100.09 412.391 1071.88 426.096C1035.14 443.931 994.517 450.66 954.729 446.393C889.619 439.414 828.245 405.189 780.311 350.134C705.751 264.923 644.549 202.975 577.034 203.757C572.566 203.804 568.289 204.636 564.494 205.839C552.988 209.46 543.292 214.186 535.302 220.913C513.207 239.495 508.628 287.545 530.426 290.978C535.459 291.775 539.835 292.184 543.867 290.306C567.649 282.676 578.366 242.876 549.725 214.211C525.417 189.884 479.492 172.069 438.532 198.49C423.763 207.998 411.233 220.93 400.018 236.378C304.308 368.537 196.951 613.393 -237.381 356.024M1907.23 492.897C1875.75 386.11 1820.26 242.092 1736.11 170.309C1699.91 139.434 1663.38 125.755 1623.28 120.2C1601.04 117.199 1576.44 116.808 1549.28 118.586C1507.27 121.326 1467.79 131.462 1429.99 146.407C1363.72 172.42 1297.06 216.772 1244.8 244.296C1208.21 263.575 1185.67 269.576 1178.51 291.954C1172.41 311.006 1162.97 337.367 1146.58 362.86C1130.74 387.517 1106.53 408.939 1078.78 423.359C1042.59 442.168 1002.3 449.916 962.629 446.659C897.479 441.303 835.404 408.321 787.142 352.998C711.143 266.34 647.035 210.116 582.708 214.611C578.403 214.91 574.36 216.034 570.891 217.481C560.266 221.924 551.953 226.975 545.091 233.296C525.996 250.896 523.157 296.843 541.694 293.535C546.074 294.718 550.16 294.088 553.699 291.984C575.317 283.46 583.586 245.401 553.994 218.491C529.132 195.882 483.54 179.6 442.53 206.126C427.802 215.639 415.189 228.449 403.833 243.732C306.932 374.34 181.279 604.54 -230.565 339.852M1909 485.359C1875.87 379.393 1817.68 236.258 1731.77 168.654C1694.75 139.524 1658.08 128.586 1618.31 125.295C1596.26 123.553 1571.86 124.273 1544.96 126.906C1503.45 130.954 1464.15 141.759 1426.33 156.848C1360.29 183.01 1292.51 226.041 1240.19 249.884C1203.56 266.59 1182.41 268.064 1177.9 288.649C1174.03 306.267 1166.19 332.511 1151.1 358.328C1136.48 383.331 1112.98 405.481 1085.71 420.622C1050.08 440.408 1010.11 449.182 970.551 446.922C905.363 443.212 842.58 411.437 794.002 355.874C716.55 267.774 649.474 217.329 588.414 225.465C584.263 226.014 580.464 227.432 577.326 229.137C567.561 234.429 560.642 239.774 554.918 245.694C538.846 262.308 538.091 302.766 552.996 296.115C556.916 296.925 560.522 296.006 563.556 293.683C583.01 284.264 588.857 247.933 558.291 222.781C532.89 201.874 487.62 187.13 446.544 213.78C431.847 223.293 419.166 235.999 407.662 251.102C309.572 380.161 165.613 595.701 -223.725 323.7M1910.76 477.828C1875.99 372.671 1815.08 230.431 1727.42 166.992C1689.57 139.605 1652.75 131.411 1613.33 130.393C1591.45 129.909 1567.28 131.745 1540.6 135.234C1499.59 140.592 1460.48 152.059 1422.64 167.295C1356.81 193.594 1287.9 235.327 1235.54 255.481C1198.88 269.605 1179.14 266.392 1177.25 285.365C1175.64 301.433 1169.38 327.685 1155.57 353.806C1142.18 379.155 1119.4 402.032 1092.61 417.895C1057.53 438.669 1017.88 448.458 978.448 447.198C913.212 445.13 849.74 414.57 800.83 358.749C721.937 269.201 651.78 224.643 594.085 236.33C590.083 237.138 586.524 238.859 583.726 240.802C574.798 246.98 569.309 252.577 564.706 258.111C551.676 273.747 552.999 308.701 564.262 298.705C567.723 299.142 570.849 297.934 573.39 295.385C590.671 285.068 594.128 250.465 562.556 227.071C536.631 207.859 491.674 194.674 450.534 221.438C435.879 230.954 423.12 243.551 411.469 258.476C312.189 385.986 149.925 586.865 -216.908 307.551M1912.53 470.291C1876.12 365.954 1812.49 224.604 1723.08 165.336C1684.4 139.692 1647.45 134.166 1608.35 135.494C1586.66 136.226 1562.69 139.207 1536.25 143.557C1495.75 150.213 1456.82 162.359 1418.95 177.736C1353.34 204.17 1283.33 244.599 1230.9 261.058C1194.21 272.6 1172.43 265.151 1176.61 282.05C1174.37 296.362 1172.57 322.83 1160.05 349.26C1147.88 374.955 1125.81 398.56 1099.51 415.145C1064.98 436.896 1025.65 447.71 986.342 447.451C921.059 447.026 856.897 417.68 807.661 361.614C727.325 270.628 654.02 232.079 599.759 247.184C595.894 248.258 592.585 250.287 590.12 252.454C582.026 259.552 577.979 265.369 574.491 270.504C564.533 285.139 567.892 314.62 575.526 301.272C578.537 301.339 581.174 299.838 583.209 297.07C598.322 285.868 599.41 252.967 566.815 231.348C540.392 213.818 495.712 202.2 454.523 229.071C439.9 238.587 427.063 251.077 415.274 265.826C314.804 391.786 134.244 578.009 -210.092 291.379M1914.29 462.749C1876.24 359.233 1809.88 218.783 1718.74 163.667C1679.23 139.776 1642.13 136.981 1603.38 140.576C1581.86 142.566 1558.12 146.652 1531.91 151.859C1491.91 159.814 1453.17 172.642 1415.28 188.16C1349.89 214.73 1278.76 253.852 1226.28 266.632C1189.55 275.602 1168.74 263.846 1175.99 278.731C1175.62 291.683 1175.8 317.974 1164.56 344.704C1153.62 370.746 1132.27 395.091 1106.43 412.381C1072.47 435.123 1033.46 446.953 994.263 447.69C928.938 448.921 864.071 420.772 814.513 364.452C732.728 272.015 656.218 239.66 605.448 257.998C601.716 259.348 598.675 261.691 596.541 264.059C589.286 272.124 586.698 278.088 584.305 282.851C577.464 296.445 582.826 320.486 586.818 303.792C589.369 303.486 591.517 301.692 593.066 298.712C606.014 286.615 604.736 255.406 571.099 235.588C544.189 219.733 499.784 209.694 458.523 236.674C443.944 246.185 431.027 258.577 419.09 273.147C317.43 397.557 118.568 569.109 -203.275 275.174M1916.06 455.211C1876.37 352.505 1807.27 212.972 1714.4 162.009C1674.05 139.869 1636.81 139.82 1598.4 145.677C1577.06 148.926 1553.54 154.114 1527.56 160.191C1488.07 169.435 1449.51 182.955 1411.6 198.611C1346.42 225.327 1274.17 263.131 1221.65 272.233C1184.88 278.621 1165.04 262.569 1175.36 275.453C1176.86 287.044 1178.99 313.165 1169.05 340.198C1159.34 366.6 1138.7 391.659 1113.34 409.672C1079.94 433.391 1041.24 446.256 1002.17 447.983C936.803 450.88 871.245 423.922 821.362 367.357C738.137 273.472 658.382 247.478 611.14 268.892C607.541 270.519 604.768 273.176 602.952 275.751C596.566 284.816 595.417 290.864 594.107 295.285C590.401 307.764 597.736 326.445 598.1 306.399C600.19 305.72 601.859 303.636 602.902 300.437C613.686 287.446 610.072 257.906 575.375 239.905C547.991 225.695 503.843 217.251 462.529 244.348C447.982 253.859 434.996 266.146 422.908 280.547C320.059 403.407 102.891 560.3 -196.446 259.052M1917.81 447.68C1876.49 345.797 1804.64 207.178 1710.05 160.35C1668.87 139.963 1631.49 142.648 1593.43 150.778C1572.26 155.297 1548.95 161.576 1523.22 168.514C1484.22 179.043 1445.85 193.255 1407.92 209.055C1342.96 235.907 1269.59 272.413 1217.01 277.823C1180.21 281.63 1161.34 261.271 1174.72 272.152C1178.1 282.382 1182.2 308.326 1173.55 335.659C1165.07 362.411 1145.14 388.197 1120.26 406.928C1087.42 431.638 1049.03 445.525 1010.08 448.239C944.662 452.802 878.403 427.031 828.206 370.216C743.537 274.892 660.545 255.444 616.83 279.73C613.367 281.656 610.876 284.621 609.372 287.39C603.899 297.483 604.137 303.55 603.915 307.675C603.318 318.905 612.655 332.35 609.383 308.972C611.014 307.921 612.202 305.548 612.749 302.133C621.359 288.243 615.426 260.355 579.663 244.192C551.821 231.611 507.91 224.788 466.532 251.999C452.027 261.513 438.954 273.689 426.728 287.914C322.689 409.225 87.2156 551.457 -189.616 242.896M1919.58 440.143C1876.62 339.079 1802.03 201.378 1705.72 158.694C1663.7 140.07 1626.18 145.49 1588.45 155.869C1567.47 161.647 1544.37 169.018 1518.88 176.84C1480.39 188.644 1442.2 203.552 1404.25 219.499C1339.5 246.487 1265.01 281.686 1212.39 283.417C1175.55 284.642 1157.65 259.987 1174.1 268.854C1179.35 277.723 1185.43 303.494 1178.05 331.134C1170.81 358.236 1151.59 384.759 1127.18 404.198C1094.9 429.896 1056.82 444.822 1018 448.513C952.531 454.751 885.585 430.161 835.057 373.087C748.938 276.312 662.749 263.617 622.523 290.591C619.182 292.823 616.995 296.093 615.798 299.042C611.284 310.179 612.808 316.195 613.733 320.069C616.09 329.947 627.593 338.263 620.67 311.535C621.841 310.111 622.549 307.449 622.591 303.815C629.037 289.03 620.786 262.76 583.935 248.462C555.643 237.489 511.971 232.312 470.531 259.636C456.057 269.15 442.916 281.222 430.543 295.268C325.314 415.029 71.5439 542.604 -182.791 226.728M1921.34 432.602C1876.74 332.348 1799.4 195.597 1701.37 157.022C1658.5 140.157 1620.85 148.315 1583.47 160.957C1562.66 167.994 1539.79 176.456 1514.53 185.148C1476.54 198.228 1438.53 213.839 1400.57 229.929C1336.04 257.054 1260.44 290.948 1207.75 288.994C1170.86 287.643 1153.94 258.686 1173.46 265.549C1180.58 273.057 1188.63 298.651 1182.53 326.591C1176.54 354.056 1158.02 381.304 1134.07 401.448C1102.35 428.136 1064.6 444.098 1025.89 448.765C960.377 456.68 892.729 433.277 841.888 375.952C754.33 277.729 665.018 271.963 628.198 301.445C625.003 304.004 623.099 307.548 622.192 310.694C618.672 322.866 621.383 328.872 623.519 332.462C628.636 341.055 642.486 344.182 631.934 314.102C632.658 312.298 632.874 309.353 632.42 305.503C636.701 289.824 626.143 265.143 588.2 252.752C559.465 243.368 516.019 239.842 474.516 267.28C460.083 276.798 446.865 288.761 434.344 302.628C327.925 420.84 55.8497 533.755 -175.985 210.552M1923.1 425.06C1876.86 325.627 1796.77 189.813 1697.02 155.363C1653.32 140.271 1615.54 151.143 1578.49 166.059C1557.86 174.354 1535.21 183.898 1510.18 193.481C1472.69 207.826 1434.87 224.152 1396.88 240.38C1332.57 267.641 1255.85 300.227 1203.11 294.595C1166.19 290.662 1150.23 257.409 1172.82 262.257C1181.81 268.404 1191.85 293.825 1187.02 322.072C1182.27 349.891 1164.45 377.862 1140.98 398.724C1109.84 426.407 1072.38 443.401 1033.8 449.045C968.239 458.649 899.897 436.413 848.725 378.831C759.723 279.17 667.414 280.457 633.881 312.302C630.83 315.198 629.231 319.013 628.604 322.353C626.128 335.544 629.931 341.62 633.323 344.863C641.133 352.327 657.41 350.101 643.217 316.675C643.481 314.499 643.217 311.264 642.258 307.195C644.365 290.618 631.512 267.495 592.469 257.032C563.298 249.216 520.076 247.375 478.51 274.927C464.11 284.445 450.813 296.3 438.154 309.992C330.543 426.664 40.1686 524.898 -169.163 194.393M1924.87 417.533C1876.98 318.919 1794.15 184.056 1692.68 153.704C1648.13 140.385 1610.24 154.059 1573.52 171.15C1553.09 180.758 1530.62 191.336 1505.84 201.793C1468.84 217.41 1431.22 234.445 1393.21 250.814C1329.11 278.221 1251.27 309.489 1198.48 300.175C1161.52 293.661 1150.43 245.103 1172.19 258.956C1182.22 265.347 1195.07 288.993 1191.52 317.533C1188.01 345.705 1170.89 374.41 1147.9 395.981C1117.31 424.664 1080.17 442.683 1041.71 449.305C976.108 460.598 907.074 439.529 855.575 381.703C765.124 280.59 669.971 289.033 639.565 323.16C636.675 326.399 635.37 330.458 635.007 334.008C633.595 348.191 638.48 354.425 643.114 357.27C653.655 363.732 672.309 356.033 654.483 319.265C654.288 316.716 653.544 313.192 652.088 308.907C652.032 291.435 636.871 269.843 596.74 261.335C567.121 255.061 524.126 254.929 482.497 282.594C468.138 292.116 454.764 303.863 441.958 317.376C333.156 432.498 24.4859 516.076 -162.35 178.255M1926.63 409.992C1877.11 312.188 1791.51 178.292 1688.34 152.046C1642.95 140.499 1604.93 156.887 1568.53 176.248C1548.28 187.114 1526.03 198.771 1501.48 210.122C1464.98 227 1427.55 244.752 1389.51 261.261C1325.64 288.807 1246.67 318.775 1193.83 305.773C1156.84 296.686 1143.21 251.508 1171.54 255.661C1184.62 257.583 1198.28 284.164 1195.99 313.011C1193.73 341.536 1177.32 370.975 1154.78 393.25C1124.76 422.925 1087.93 441.989 1049.6 449.577C983.958 462.573 914.214 442.655 862.394 384.574C770.503 282.014 672.641 297.651 645.23 334.011C642.517 337.61 641.481 341.892 641.405 345.65C641.077 360.798 647.274 366.762 652.903 369.653C665.76 376.247 681.684 364.865 665.751 321.822C664.726 319.037 663.872 315.086 661.921 310.586C659.7 292.219 642.233 272.125 601.012 265.605C570.944 260.849 528.181 262.439 486.499 290.221C472.172 299.743 458.72 311.382 445.776 324.72C335.784 438.292 8.80842 507.209 -155.521 162.076M1928.4 402.454C1877.23 305.47 1788.9 172.549 1684 150.38C1637.77 140.616 1599.63 159.713 1563.57 181.342C1543.5 193.468 1521.45 206.203 1497.15 218.438C1461.14 236.564 1423.91 255.039 1385.84 271.695C1322.18 299.378 1242.1 328.037 1189.2 311.343C1152.18 299.675 1139.25 250.707 1170.91 252.339C1185.68 253.097 1201.52 279.302 1200.49 308.452C1199.48 337.333 1183.77 367.506 1161.71 390.487C1132.26 421.155 1095.74 441.266 1057.51 449.813C991.827 464.522 921.388 445.748 869.242 387.422C775.908 283.424 675.498 306.223 650.921 344.848C648.407 348.805 647.628 353.318 647.825 357.289C648.588 373.382 655.679 380.048 662.715 382.033C678.922 386.603 697.818 370.42 677.042 324.375C675.617 321.228 674.223 316.977 671.766 312.257C667.377 293.006 647.598 274.373 605.288 269.865C574.775 266.617 532.246 269.953 490.501 297.848C476.215 307.374 462.685 318.905 449.59 332.073C338.409 444.096 -6.87257 498.353 -148.696 145.907M1930.16 394.913C1877.35 298.749 1786.26 166.798 1679.65 148.718C1632.58 140.74 1594.31 162.538 1558.58 186.43C1538.69 199.815 1516.85 213.624 1492.8 226.75C1457.28 246.135 1420.26 265.332 1382.17 282.129C1318.73 309.948 1237.53 337.303 1184.58 316.927C1147.52 302.677 1135.41 249.891 1170.29 249.041C1186.83 248.638 1204.75 274.47 1204.99 303.923C1205.22 333.147 1190.22 364.068 1168.62 387.753C1139.74 419.416 1103.53 440.572 1065.42 450.083C999.699 466.495 928.551 448.871 876.083 390.291C781.299 284.841 678.481 314.773 656.604 355.706C654.303 360.013 653.775 364.743 654.228 368.944C656.081 385.96 664.284 392.874 672.507 394.44C691.604 398.067 713.643 375.975 688.311 326.955C686.494 323.425 684.554 318.895 681.604 313.949C675.041 293.8 652.943 276.614 609.563 274.159C578.579 272.399 536.299 277.496 494.495 305.495C480.241 315.021 466.643 326.448 453.4 339.437C341.03 449.91 -22.548 489.51 -141.884 129.745M1931.92 387.385C1877.49 292.034 1783.65 161.078 1675.31 147.063C1627.41 140.871 1589 165.38 1553.62 191.535C1533.91 206.182 1512.26 221.063 1488.46 235.086C1453.42 255.716 1416.6 275.646 1378.49 292.583C1315.26 320.548 1232.95 346.586 1179.95 322.531C1142.85 305.709 1131.63 249.029 1169.66 245.753C1188 244.18 1207.98 269.641 1209.49 299.397C1210.98 328.979 1196.67 360.633 1175.54 385.023C1147.23 417.691 1111.33 439.882 1073.34 450.356C1007.59 468.484 935.733 452 882.939 393.176C786.711 286.288 681.61 323.24 662.307 366.57C660.231 371.222 659.931 376.171 660.663 380.6C663.613 398.517 672.943 405.696 682.333 406.838C704.343 409.519 729.314 381.542 699.613 329.536C697.381 325.626 694.916 320.813 691.461 315.648C682.734 294.604 658.301 278.849 613.85 278.445C582.4 278.163 540.366 285.034 498.508 313.149C484.295 322.679 470.611 333.994 457.23 346.808C343.669 455.731 -38.2104 480.661 -135.044 113.593M1933.68 379.844C1877.61 285.313 1781.03 155.345 1670.97 145.404C1622.23 140.998 1583.68 168.208 1548.63 196.633C1529.1 212.539 1507.66 228.494 1484.11 243.405C1449.55 265.28 1412.93 285.946 1374.81 303.024C1311.79 331.124 1228.37 355.855 1175.31 328.118C1138.18 308.714 1127.87 248.11 1169.01 242.458C1189.19 239.681 1211.2 264.805 1213.96 294.875C1216.71 324.803 1203.11 357.191 1182.43 382.283C1154.71 415.948 1119.1 439.191 1081.23 450.619C1015.44 470.473 942.877 455.116 889.761 396.037C792.094 287.701 684.794 331.59 667.971 377.421C666.14 382.423 666.05 387.586 667.047 392.248C671.085 411.064 681.556 418.502 692.11 419.228C717.049 420.946 744.787 387.127 710.868 332.099C708.216 327.797 705.228 322.724 701.28 317.333C690.389 295.395 663.601 281.04 618.11 282.722C586.165 283.907 544.417 292.554 502.484 320.789C488.312 330.323 474.55 341.53 461.022 354.165C346.272 461.538 -53.9138 471.808 -128.242 97.4274M1935.45 372.306C1877.74 278.585 1778.42 149.625 1666.63 143.735C1617.05 141.125 1578.38 171.03 1543.66 201.714C1524.31 218.879 1503.07 235.899 1479.76 251.717C1445.68 274.847 1409.27 296.236 1371.13 313.454C1308.33 341.691 1223.78 365.124 1170.68 333.699C1133.51 311.713 1124.17 247.141 1168.38 239.147C1190.41 235.159 1214.44 259.943 1218.46 290.325C1222.47 320.6 1209.56 353.733 1189.35 379.53C1162.2 414.189 1126.92 438.481 1089.14 450.879C1023.33 472.453 950.053 458.232 896.611 398.909C797.494 289.122 688.077 339.841 673.659 388.268C672.069 393.598 672.191 398.997 673.464 403.897C678.583 423.598 690.2 431.307 701.918 431.618C729.796 432.378 760.189 392.732 722.155 334.662C719.082 329.967 715.575 324.625 711.122 319.015C698.057 296.178 668.899 283.207 622.382 286.992C589.946 289.634 548.469 300.074 506.486 328.416C492.346 337.95 478.516 349.053 464.84 361.508C348.9 467.332 -69.5913 462.942 -121.413 81.2487M1937.21 364.775C1877.85 271.874 1775.8 143.915 1662.28 142.086C1611.87 141.273 1573.05 173.878 1538.68 206.825C1519.51 225.249 1498.46 243.341 1475.41 260.049C1441.81 284.421 1405.62 306.539 1367.45 323.908C1304.87 352.281 1219.2 374.406 1166.04 339.299C1128.83 314.741 1120.48 246.152 1167.75 235.855C1191.64 230.654 1217.67 255.111 1222.95 285.806C1228.22 316.418 1216 350.304 1196.26 376.806C1169.68 412.473 1134.71 437.811 1097.04 451.155C1031.21 474.462 957.2 461.372 903.439 401.784C802.879 290.559 691.391 347.978 679.329 399.133C677.992 404.793 678.315 410.426 679.863 415.563C686.058 436.134 698.831 444.119 711.705 444.035C742.53 443.815 775.505 398.396 733.421 337.252C729.924 332.175 725.901 326.552 720.952 320.727C705.723 296.996 674.177 285.4 626.649 291.306C593.694 295.395 552.525 307.641 510.469 336.093C496.37 345.631 482.453 356.622 468.639 368.902C351.51 473.176 -85.2777 454.129 -114.609 65.1066M1938.98 357.237C1877.98 265.156 1773.21 138.212 1657.94 140.417C1606.7 141.404 1567.74 176.697 1533.71 211.917C1514.72 231.603 1493.86 250.762 1471.07 268.372C1437.92 293.981 1401.96 316.842 1363.76 334.349C1301.4 362.868 1214.62 383.678 1161.4 344.89C1124.17 317.75 1116.8 245.126 1167.12 232.567C1192.89 226.133 1220.91 250.272 1227.45 281.281C1233.97 312.239 1222.51 346.9 1203.18 374.076C1177.25 410.785 1142.52 437.134 1104.96 451.428C1039.11 476.469 964.382 464.501 910.299 404.66C808.298 291.986 694.771 356.025 685.032 409.997C683.953 415.969 684.465 421.841 686.289 427.215C693.55 448.655 707.498 456.922 721.523 456.429C755.29 455.24 790.784 404.047 744.717 339.819C740.79 334.345 736.258 328.457 730.804 322.413C713.41 297.786 679.456 287.561 630.94 295.582C597.466 301.119 556.599 315.158 514.49 343.727C500.427 353.255 486.437 364.152 472.472 376.263C354.153 478.987 -100.94 445.28 -107.765 48.9446M1940.74 349.696C1878.1 258.425 1770.61 132.679 1653.6 138.758C1601.53 141.625 1562.42 179.525 1528.72 217.005C1509.92 237.949 1489.24 258.177 1466.73 276.684C1434.04 303.541 1398.3 327.132 1360.09 344.783C1297.94 373.438 1210.05 392.941 1156.77 350.47C1119.5 320.748 1113.14 244.057 1166.49 229.256C1194.15 221.581 1224.2 245.404 1231.94 276.742C1239.77 308.017 1228.95 343.438 1210.08 371.329C1184.72 409.019 1150.32 436.444 1112.86 451.684C1047 478.468 971.548 467.614 917.13 407.525C813.68 293.399 698.127 363.962 690.709 420.841C689.89 427.123 690.597 433.249 692.696 438.86C701.024 461.168 716.135 469.747 731.321 468.816C768.035 466.705 806.004 409.711 755.991 342.389C751.633 336.519 746.592 330.365 740.642 324.105C721.074 298.58 684.707 289.71 635.209 299.862C601.197 306.839 560.646 322.688 518.484 351.374C504.462 360.906 490.399 371.685 476.283 383.627C356.774 484.801 -116.621 436.424 -100.944 32.7859M1942.51 342.158C1878.23 251.707 1768.02 126.889 1649.26 137.093C1596.37 141.716 1557.13 182.35 1523.76 222.099C1505.13 244.303 1484.62 265.568 1462.39 285C1430.14 313.061 1394.66 337.429 1356.42 355.217C1294.49 384.008 1205.47 402.213 1152.16 356.044C1114.85 323.74 1109.5 242.964 1165.87 225.938C1195.42 217.009 1227.43 240.538 1236.46 272.186C1245.51 303.811 1235.41 339.959 1217.01 368.569C1192.22 407.239 1158.17 435.781 1120.79 451.927C1054.94 480.525 978.732 470.71 924 410.37C819.107 294.806 701.529 371.801 696.423 431.676C695.866 438.259 696.758 444.634 699.129 450.492C708.523 473.668 724.807 482.506 741.146 481.19C780.811 478.056 821.221 415.384 767.285 344.933C762.494 338.676 756.946 332.246 750.491 325.766C728.755 299.357 689.946 291.833 639.498 304.116C604.93 312.526 564.724 330.195 522.489 358.991C508.499 368.523 494.359 379.194 480.105 390.96C359.402 490.595 -132.286 427.551 -94.1116 16.5971M1944.26 334.627C1878.34 244.996 1765.42 121.106 1644.91 135.441C1591.19 141.829 1551.8 185.195 1518.77 227.207C1473.67 284.569 1417.46 335.329 1352.72 365.674C1291.01 394.605 1200.87 411.499 1147.5 361.648C1110.15 326.772 1105.82 241.888 1165.21 222.659C1196.66 212.471 1230.61 235.712 1240.92 267.68C1251.22 299.649 1241.81 336.527 1223.89 365.859C1156.82 475.623 1017.02 508.126 930.812 413.261C812.855 283.468 678.579 400.222 705.515 462.164C743.711 550.011 875.669 438.627 760.318 327.488C714.698 275.361 605.796 300.269 483.904 398.354C362.012 496.439 -147.981 418.735 -87.3107 0.465021M1943.78 327.877C1879.99 241.142 1768.65 126.459 1648.42 143.868C1595.6 151.519 1556.5 194.183 1523.53 235.874C1478.53 292.76 1422.65 343.141 1358.42 373.534C1297.01 402.609 1207.99 419.744 1154.46 371.827C1116.96 338.304 1111.38 256.144 1167.42 237.204C1180.14 232.9 1193.29 234.522 1204.9 240.203C1220.38 247.746 1233.08 262.459 1238.31 279.901C1247.56 310.495 1237.59 345.749 1219.53 373.832C1151.97 478.804 1013.65 510.301 927.15 418.492C809.976 294.123 677.593 407.512 701.55 468.807C735.433 555.519 861.978 447.837 748.035 340.443C701.284 290.186 594.382 315.622 472.744 407.922C348.68 502.051 -151.737 418.406 -90.4024 5.50627M1943.28 321.137C1881.62 237.284 1771.91 131.779 1651.93 152.315C1600.04 161.202 1561.21 203.204 1528.27 244.567C1483.37 300.978 1427.82 350.99 1364.08 381.408C1302.99 410.619 1215.08 427.989 1161.39 382.005C1123.75 349.839 1116.91 270.403 1169.61 251.761C1181.55 247.514 1193.92 248.994 1204.77 254.357C1219.29 261.479 1231.06 275.51 1235.68 292.138C1243.8 321.398 1233.37 354.968 1215.13 381.819C1147.11 481.982 1010.29 512.504 923.472 423.739C807.144 304.796 676.574 414.745 697.567 475.466C727.127 560.959 848.275 457.053 735.732 353.424C687.852 305.028 582.798 330.946 461.559 417.503C335.172 507.735 -155.51 418.093 -93.5333 10.5674M1942.8 314.39C1883.27 233.43 1775.23 137.053 1655.46 160.746C1604.48 170.834 1565.93 212.209 1533.04 253.247C1488.22 309.18 1433.01 358.826 1369.78 389.268C1308.99 418.626 1222.2 436.235 1168.35 392.17C1130.55 361.357 1122.46 284.646 1171.82 266.302C1182.98 262.122 1194.54 263.447 1204.66 268.504C1218.21 275.216 1229.09 288.554 1233.07 304.359C1240.1 332.264 1229.17 364.173 1210.77 389.792C1142.29 485.14 1006.98 514.717 919.81 428.97C804.377 315.436 675.551 421.874 693.608 482.122C718.834 566.301 834.599 466.28 723.456 366.391C674.434 319.862 571.083 346.189 450.404 427.085C321.541 513.465 -159.256 417.767 -96.6286 15.6187M1942.31 307.64C1884.9 229.573 1778.57 142.267 1658.97 169.183C1608.93 180.443 1570.63 221.217 1537.79 261.923C1493.08 317.381 1438.2 366.648 1375.46 397.135C1314.98 426.63 1229.29 444.483 1175.3 402.342C1137.35 372.885 1128 298.895 1174.02 280.853C1184.4 276.729 1195.17 277.9 1204.55 282.652C1217.15 288.946 1227.1 301.595 1230.46 316.579C1236.4 343.13 1224.97 373.369 1206.39 397.762C1137.49 488.272 1003.71 516.93 916.139 434.197C801.672 326.054 674.5 428.901 689.632 488.762C710.554 571.523 820.898 475.486 711.16 379.352C661.006 334.694 559.197 361.346 439.226 436.646C307.729 519.197 -163.021 417.435 -99.7486 20.6498M1941.82 300.9C1886.54 225.725 1781.93 147.444 1662.49 177.62C1613.39 190.022 1575.34 230.219 1542.55 270.61C1497.94 325.583 1443.37 374.487 1381.15 405.005C1320.99 434.637 1236.41 452.739 1182.26 412.52C1144.16 384.417 1133.6 313.269 1176.23 295.397C1185.85 291.367 1195.82 292.36 1204.45 296.803C1216.08 302.676 1225.13 314.63 1227.86 328.817C1232.71 354.01 1220.79 382.581 1202.04 405.753C1132.74 491.41 1000.51 519.168 912.506 439.438C799.062 336.672 673.492 435.843 685.705 495.418C702.352 576.649 807.245 484.71 698.912 392.33C647.63 349.532 547.208 376.408 428.1 446.238C293.806 524.968 -166.743 417.129 -102.819 25.7214M1941.33 294.15C1888.17 221.868 1785.34 152.557 1666 186.058C1617.86 199.571 1580.04 239.227 1547.29 279.293C1502.78 333.79 1448.54 382.325 1386.82 412.869C1326.96 442.644 1243.5 460.984 1189.2 422.688C1150.96 395.941 1139.14 327.542 1178.43 309.944C1187.27 305.985 1196.44 306.809 1204.32 310.944C1215 316.399 1223.13 327.664 1225.23 341.03C1228.98 364.856 1216.58 391.763 1197.65 413.719C1127.99 494.512 997.318 521.398 908.826 444.661C796.471 347.239 672.452 442.669 681.72 502.054C694.147 581.637 793.545 493.916 686.62 405.281C634.206 364.354 535.021 391.341 416.921 455.799C279.671 530.707 -170.518 416.793 -105.93 30.7558M1940.84 287.409C1889.8 218.02 1788.76 157.618 1669.52 194.499C1622.34 209.091 1584.76 248.241 1552.06 287.973C1507.64 341.992 1453.73 390.151 1392.52 420.729C1332.96 450.641 1250.69 469.099 1196.16 432.864C1157.81 407.376 1144.71 341.825 1180.63 324.495C1188.69 320.602 1197.07 321.272 1204.21 325.102C1213.92 330.135 1221.14 340.702 1222.61 353.271C1225.26 375.725 1212.4 400.962 1193.27 421.709C1123.27 497.628 994.179 523.66 905.157 449.912C793.966 357.805 671.435 449.403 677.748 508.717C686.029 586.532 779.847 503.146 674.327 418.265C620.78 379.209 522.699 406.18 405.754 465.387C265.396 536.452 -174.271 416.488 -109.038 35.8137M1940.35 280.659C1891.44 214.162 1792.2 162.618 1673.04 202.936C1626.81 218.572 1589.46 257.249 1556.81 296.66C1512.49 350.203 1458.91 397.993 1398.21 428.609C1338.96 458.669 1257.8 477.351 1203.11 443.049C1164.62 418.908 1150.28 356.118 1182.84 339.05C1190.13 335.227 1197.7 335.738 1204.11 339.253C1212.86 343.869 1219.15 353.733 1220.01 365.495C1221.55 386.578 1208.25 410.141 1188.91 429.686C1118.62 500.724 991.111 525.902 901.505 455.146C791.543 368.32 670.481 456.022 673.797 515.376C678.038 591.315 766.171 512.373 662.059 431.236C607.384 394.04 510.259 420.872 394.6 474.968C250.984 542.135 -178.018 416.162 -112.137 40.8751M1939.86 273.919C1893.08 210.305 1795.66 167.554 1676.55 211.373C1631.29 228.021 1594.17 266.251 1561.56 305.346C1517.34 358.415 1464.09 405.835 1403.89 436.476C1344.95 466.673 1264.91 485.583 1210.06 453.22C1171.42 430.423 1155.84 370.398 1185.03 353.597C1191.55 349.844 1198.33 350.191 1203.98 353.407C1211.77 357.612 1217.15 366.767 1217.39 377.732C1217.81 397.43 1204.07 419.333 1184.52 437.676C1113.99 503.826 988.072 528.154 897.827 460.393C789.182 378.813 669.551 462.548 669.815 522.036C670.151 595.987 752.463 521.599 649.756 444.217C593.949 408.892 497.666 435.43 383.424 484.553C236.408 547.769 -181.781 415.853 -115.255 45.9296M1939.37 267.169C1894.71 206.447 1799.12 172.414 1680.07 219.8C1635.76 237.436 1598.88 275.252 1566.32 314.013C1522.21 366.596 1469.28 413.648 1409.58 444.323C1350.96 474.656 1272.02 493.802 1217.02 463.375C1178.24 441.924 1161.42 384.664 1187.25 368.131C1193 364.448 1198.98 364.637 1203.88 367.548C1210.72 371.335 1215.17 379.774 1214.79 389.946C1214.09 408.256 1199.95 428.499 1180.16 445.64C1109.42 506.906 985.107 530.377 894.178 465.617C786.923 389.23 668.724 468.965 665.862 528.672C662.425 600.537 738.795 530.806 637.487 457.165C580.548 423.71 484.99 449.809 372.267 494.111C221.717 553.282 -185.533 415.514 -118.343 50.9609M1938.88 260.429C1896.34 202.6 1802.58 177.216 1683.58 228.247C1640.23 246.837 1603.58 284.27 1571.06 322.706C1527.04 374.811 1474.45 421.496 1415.24 452.207C1356.92 482.683 1279.11 502.047 1223.95 473.564C1185.01 453.466 1166.99 398.97 1189.43 382.685C1194.4 379.072 1199.58 379.103 1203.75 381.699C1209.62 385.065 1213.15 392.781 1212.15 402.18C1210.34 419.082 1195.8 437.688 1175.77 453.626C1104.87 510.027 982.164 532.596 890.494 470.851C784.704 399.593 667.955 475.311 661.884 535.321C654.831 605.021 725.091 540.022 625.188 470.135C567.117 438.551 472.18 464.059 361.091 503.696C206.887 558.709 -189.296 415.205 -121.461 56.0153M1938.4 253.682C1897.99 198.745 1806.04 181.951 1687.1 236.678C1644.71 256.185 1608.3 293.275 1575.83 331.386C1531.9 383.015 1479.64 429.332 1420.95 460.07C1362.93 490.684 1286.23 510.282 1230.91 483.742C1191.83 464.987 1172.6 413.257 1191.64 397.24C1195.85 393.7 1200.23 393.562 1203.64 395.856C1208.55 398.805 1211.16 405.785 1209.54 414.411C1206.62 429.884 1191.68 446.878 1171.39 461.61C1100.41 513.155 979.312 534.804 886.839 476.095C782.596 409.917 667.314 481.602 657.924 541.977C647.429 609.474 711.405 549.245 612.908 483.113C553.708 453.39 459.307 478.161 349.928 513.274C191.946 564.005 -193.056 414.885 -124.569 61.0732M1937.9 246.942C1899.63 194.901 1809.49 186.613 1690.61 245.126C1649.16 265.523 1613 302.293 1580.58 340.073C1536.75 391.227 1484.82 437.161 1426.63 467.937C1368.92 498.698 1293.33 518.521 1237.86 493.914C1198.63 476.506 1178.21 427.521 1193.84 411.79C1197.3 408.315 1200.85 408.025 1203.53 410.004C1207.48 412.531 1209.18 418.769 1206.92 426.641C1202.91 440.666 1187.58 456.064 1167.01 469.59C1095.97 516.306 976.505 536.971 883.164 481.332C780.55 420.161 666.782 487.853 653.951 548.64C640.178 613.89 697.716 558.479 600.618 496.087C540.286 468.235 446.346 492.095 338.76 522.862C176.909 569.153 -196.815 414.566 -127.678 66.1312M1937.41 240.192C1901.27 191.044 1812.91 191.197 1694.13 253.553C1653.62 274.817 1617.71 311.284 1585.34 348.749C1541.61 399.428 1490 444.993 1432.31 475.804C1374.92 506.702 1300.43 526.759 1244.82 504.089C1205.44 488.034 1183.85 441.784 1196.05 426.331C1198.74 422.919 1201.48 422.478 1203.41 424.152C1206.4 426.258 1207.21 431.737 1204.31 438.862C1199.22 451.412 1183.5 465.257 1162.65 477.563C1091.61 519.485 973.768 539.095 879.512 486.566C778.596 430.326 666.394 494.09 649.995 555.286C633.108 618.282 684.039 567.682 588.351 509.058C526.887 483.076 433.345 505.877 327.606 532.444C161.797 574.102 -200.556 414.254 -130.773 71.1825M1936.92 233.451C1902.9 187.186 1816.3 195.724 1697.64 262C1658.06 284.104 1622.42 320.306 1590.09 357.446C1546.45 407.636 1495.18 452.845 1437.99 483.681C1380.9 514.726 1307.53 535.017 1251.76 514.27C1212.22 499.568 1189.49 456.014 1198.24 440.892C1200.19 437.534 1202.11 436.941 1203.3 438.31C1205.33 440.008 1205.25 444.708 1201.7 451.092C1195.55 462.154 1179.43 474.463 1158.27 485.543C1087.29 522.711 971.078 541.179 875.838 491.804C776.703 440.411 666.136 500.35 646.017 561.935C626.176 622.702 670.335 576.898 576.055 522.019C513.463 497.898 420.27 519.485 316.437 542.008C146.608 578.852 -204.321 413.922 -133.878 76.2304M1936.43 226.701C1904.54 183.329 1819.67 200.163 1701.16 270.427C1662.5 293.348 1627.12 329.304 1594.84 366.119C1551.3 415.834 1500.35 460.664 1443.67 491.538C1386.89 522.716 1314.63 543.256 1258.71 524.432C1219.02 511.083 1195.15 470.171 1200.44 455.43C1201.63 452.114 1202.74 451.394 1203.18 452.454C1204.25 453.731 1203.31 457.652 1199.07 463.32C1191.92 472.901 1175.36 483.684 1153.89 493.523C1083.01 525.999 968.454 543.197 872.163 497.041C774.876 450.406 666 506.655 642.047 568.588C619.384 627.173 656.65 586.122 563.765 534.993C500.041 512.743 407.166 532.968 305.261 551.593C131.349 583.384 -208.084 413.612 -136.995 81.2849M1935.94 219.961C1906.17 179.481 1822.99 204.552 1704.67 278.875C1666.91 302.591 1631.83 338.325 1599.59 374.805C1556.15 424.045 1505.53 468.506 1449.35 499.405C1392.89 530.72 1321.73 551.494 1265.65 534.614C1225.81 522.618 1200.76 484.286 1202.64 469.98C1203.08 466.695 1203.36 465.856 1203.07 466.601C1203.18 467.461 1201.4 470.616 1196.46 475.54C1188.35 483.644 1171.3 492.92 1149.52 501.497C1078.77 529.336 965.901 545.139 868.515 502.265C773.152 460.291 666.046 513.016 638.091 575.234C612.725 631.692 642.968 595.335 551.489 547.961C486.632 527.581 394.056 546.29 294.11 561.164C116.101 587.657 -211.83 413.287 -140.087 86.3262M1935.45 213.211C1907.81 175.623 1826.27 208.857 1708.18 287.302C1671.33 311.791 1636.53 347.313 1604.35 383.482C1561 432.243 1510.72 476.338 1455.04 507.272C1398.88 538.734 1328.82 559.743 1272.6 544.785C1232.6 534.143 1206.29 498.351 1204.83 484.528C1204.49 481.263 1203.98 480.306 1202.94 480.752C1202.08 481.19 1199.49 483.604 1193.83 487.774C1184.8 494.438 1167.24 502.177 1145.12 509.47C1074.54 532.744 963.381 546.99 864.821 507.495C771.443 470.079 666.16 519.481 634.094 581.877C606.127 636.303 629.245 604.544 539.175 560.915C473.189 542.395 380.903 559.471 282.918 570.732C100.792 591.659 -215.605 412.951 -143.224 91.3738M1934.96 206.471C1909.44 171.776 1829.5 213.097 1711.69 295.749C1675.71 320.991 1641.24 356.335 1609.1 392.179C1565.85 440.465 1515.9 484.181 1460.72 515.152C1404.88 546.751 1335.92 568.015 1279.56 554.974C1239.41 545.684 1211.76 512.472 1207.05 499.096C1205.91 495.86 1204.63 494.789 1202.84 494.917C1201.03 494.937 1197.62 496.633 1191.24 500.015C1181.29 505.286 1163.23 511.475 1140.78 517.464C1070.39 536.247 960.963 548.766 861.194 512.75C769.853 479.774 666.465 526.096 630.172 588.547C599.668 641.032 615.607 613.785 526.932 573.906C459.814 557.257 367.84 572.549 271.789 580.334C85.5613 595.417 -219.33 412.655 -146.295 96.4454M1934.48 199.724C1911.09 167.922 1832.69 217.277 1715.22 304.18C1680.1 330.157 1645.96 365.339 1613.86 400.845C1570.71 448.646 1521.08 492.003 1466.41 522.999C1410.87 554.745 1343.03 576.244 1286.51 565.126C1246.2 557.199 1217.18 526.623 1209.25 513.613C1207.3 510.42 1205.26 509.218 1202.73 509.041C1199.96 508.64 1195.74 509.655 1188.62 512.222C1177.75 516.143 1159.2 520.766 1136.4 525.424C1066.21 539.787 958.563 550.376 857.526 517.966C768.26 489.331 666.832 532.801 626.2 595.176C593.218 645.822 601.91 622.981 514.644 586.847C446.394 572.069 354.751 585.469 260.627 589.878C70.33 598.799 -223.088 412.303 -149.388 101.463M1933.99 192.984C1912.72 164.074 1835.79 221.392 1718.73 312.627C1684.46 339.336 1650.66 374.357 1618.61 409.542C1575.56 456.868 1526.25 499.852 1472.09 530.886C1416.85 562.765 1350.11 584.522 1293.45 575.317C1252.99 568.747 1222.59 540.881 1211.45 528.184C1208.7 525.051 1205.88 523.691 1202.61 523.219C1198.88 522.4 1193.84 522.75 1186 524.473C1174.2 527.075 1155.16 530.12 1132.01 533.424C1061.99 543.44 956.186 551.894 853.845 523.224C766.7 498.799 667.27 539.692 622.224 601.849C586.78 650.752 588.208 632.221 502.347 599.842C432.965 586.934 341.686 598.319 249.443 599.483C55.1456 601.937 -226.859 412.014 -152.517 106.548M1933.5 186.233C1914.36 160.207 1838.84 225.453 1722.25 321.055C1688.8 348.475 1655.37 383.348 1623.36 418.218C1580.41 465.065 1531.44 507.674 1477.77 538.743C1422.84 570.769 1357.21 592.771 1300.4 585.489C1259.78 580.282 1228.04 555.143 1213.64 542.731C1210.09 539.668 1206.5 538.15 1202.49 537.363C1197.79 536.133 1191.92 535.825 1183.38 536.7C1170.6 538.002 1151.11 539.471 1127.63 541.404C1057.77 547.147 953.84 553.24 850.183 528.454C765.169 508.129 667.778 546.71 618.255 608.501C580.36 655.78 574.523 641.444 490.066 612.819C419.556 601.772 328.689 611.045 238.289 609.065C40.0709 604.717 -230.609 411.698 -155.613 111.599M1933.01 179.483C1915.99 156.349 1841.82 229.453 1725.76 329.482C1693.13 357.61 1660.08 392.347 1628.12 426.885C1585.27 473.257 1536.62 515.496 1483.47 546.593C1428.85 578.756 1364.32 601.013 1307.37 595.648C1266.6 591.804 1233.54 569.422 1215.87 557.259C1211.52 554.269 1207.16 552.593 1202.4 551.497C1196.75 549.85 1190.02 548.897 1180.79 548.907C1167.03 548.927 1147.08 548.843 1123.29 549.364C1053.55 550.9 951.558 554.383 846.548 533.672C763.676 517.326 668.356 553.857 614.315 615.131C573.965 660.885 560.858 650.641 477.81 625.76C406.168 616.584 315.776 623.655 227.146 618.616C25.1285 607.136 -234.335 411.346 -158.697 116.62M1932.51 172.743C1917.63 152.501 1844.72 233.416 1729.27 337.929C1697.44 366.745 1664.78 401.368 1632.87 435.582C1590.12 481.478 1541.8 523.348 1489.15 554.48C1434.84 586.78 1371.41 609.295 1314.31 605.839C1273.39 603.362 1239.02 583.731 1218.06 571.826C1212.92 568.91 1207.78 567.063 1202.26 565.658C1195.65 563.59 1188.06 561.992 1178.15 561.151C1163.37 559.877 1142.99 558.26 1118.89 557.358C1049.23 554.75 949.213 555.378 842.856 538.926C762.117 526.441 668.887 561.191 610.329 621.8C567.496 666.134 547.147 659.877 465.503 638.751C392.72 631.442 302.888 636.229 215.962 628.221C10.2828 609.261 -238.115 411.053 -161.816 121.708M1932.03 165.993C1919.27 148.647 1847.54 237.324 1732.79 346.356C1701.73 375.867 1669.49 410.366 1637.62 444.255C1594.97 489.666 1546.98 531.167 1494.82 562.333C1440.81 594.777 1378.5 617.55 1321.25 615.997C1280.17 614.883 1244.52 598.011 1220.25 586.364C1214.33 583.524 1208.4 581.512 1202.14 579.802C1194.57 577.313 1186.1 575.077 1175.53 573.368C1159.72 570.807 1138.91 567.678 1114.51 565.327C1044.88 558.617 946.883 556.128 839.185 544.153C760.549 535.406 669.444 568.626 606.354 628.44C560.996 671.439 533.456 669.087 453.211 651.702C379.299 646.253 290.085 648.685 204.787 637.772C-4.40088 611.002 -241.876 410.711 -164.933 126.729M1931.53 159.253C1920.9 144.8 1850.28 241.204 1736.3 354.804C1706 385.002 1674.19 419.377 1642.38 452.941C1599.81 497.874 1552.16 539.009 1500.51 570.203C1446.82 602.784 1385.6 625.825 1328.21 626.173C1286.98 626.425 1250.03 612.306 1222.46 600.905C1215.75 598.131 1209.04 595.968 1202.04 593.94C1193.51 591.033 1184.16 588.155 1172.92 585.589C1156.07 581.738 1134.81 577.116 1110.14 573.301C1040.49 562.523 944.526 556.663 835.533 549.387C758.964 544.273 670.005 576.198 602.398 635.086C554.472 676.838 519.778 678.29 440.935 664.67C365.891 661.091 277.388 661.113 193.633 647.353C-18.8657 612.436 -245.626 410.395 -168.028 131.781M1931.04 152.503C1922.54 140.942 1852.95 245.044 1739.82 363.231C1710.26 394.12 1678.91 428.379 1647.13 461.618C1604.67 506.075 1557.34 546.841 1506.2 578.06C1452.81 610.788 1392.71 634.178 1335.15 636.344C1293.77 638.04 1255.55 626.596 1224.66 615.456C1217.16 612.756 1209.67 610.421 1201.92 608.098C1192.43 604.769 1182.19 601.237 1170.31 597.819C1152.4 592.661 1130.69 586.577 1105.76 581.281C1036.03 566.459 942.097 556.956 831.859 554.624C757.275 553.045 670.52 583.867 598.426 641.748C547.884 682.327 506.08 687.52 428.641 677.654C352.465 675.946 264.77 673.5 182.453 656.948C-33.1475 613.574 -249.403 410.092 -171.153 136.855M1930.56 145.766C1924.18 137.088 1855.53 248.856 1743.34 371.682C1714.49 403.254 1683.61 437.4 1651.89 470.318C1609.53 514.3 1562.53 554.687 1511.88 585.951C1458.81 618.815 1399.81 642.453 1342.11 646.543C1300.58 649.596 1261.09 640.902 1226.86 630.03C1218.59 627.4 1210.29 624.907 1201.81 622.269C1191.36 618.533 1180.24 614.335 1167.7 610.064C1148.74 603.598 1126.56 596.058 1101.4 589.278C1031.52 570.438 939.595 557.041 828.203 559.868C755.528 561.716 671.007 591.64 594.466 648.405C541.254 687.87 492.404 696.747 416.365 690.621C339.06 690.775 252.275 685.842 171.303 666.519C-47.1618 614.389 -253.136 409.76 -174.245 141.897M1930.07 139.015C1925.82 133.23 1858.03 252.647 1746.85 380.109C1718.72 412.372 1688.32 446.401 1656.64 478.981C1614.38 522.488 1567.7 562.505 1517.56 593.794C1464.8 626.806 1406.91 650.678 1349.06 656.691C1307.37 661.097 1266.6 655.218 1229.07 644.547C1220.01 642.004 1210.92 639.337 1201.7 636.393C1190.28 632.236 1178.26 627.379 1165.08 622.271C1145.06 614.495 1122.4 605.518 1097.01 597.234C1026.94 574.376 936.955 556.835 824.536 565.085C753.667 570.289 671.449 599.452 590.504 655.037C534.569 693.448 478.717 705.946 404.092 703.579C325.655 705.603 239.891 698.145 160.143 676.088C-60.9556 614.921 -256.892 409.431 -177.336 146.938M1929.58 132.275C1927.45 129.383 1860.44 256.417 1750.36 388.556C1722.91 421.513 1693.02 455.409 1661.39 487.678C1619.22 530.696 1572.87 570.354 1523.25 601.674C1470.79 634.82 1414.02 658.944 1356.01 666.876C1314.18 672.638 1272.14 669.481 1231.26 659.108C1221.43 656.622 1211.56 653.803 1201.58 650.547C1189.21 645.972 1176.28 640.457 1162.46 634.498C1141.37 625.411 1118.21 614.989 1092.63 605.214C1022.29 578.337 934.182 556.411 820.861 570.322C751.675 578.814 671.824 607.355 586.525 661.686C527.807 699.09 465.013 715.163 391.796 716.54C312.227 720.434 227.592 710.446 148.974 685.652C-74.4982 615.203 -260.647 409.102 -180.447 151.972M1929.09 125.525C1929.09 125.525 1598.61 796.615 1201.46 664.705C1078.47 618.628 914.289 472.003 582.562 668.353C250.831 864.713 -316.989 572.5 -183.563 157.05M2106.64 546.022C2106.64 546.022 1827.93 266.613 1663.97 530.187C1553.06 708.486 1521.52 864.583 1418.91 930.073C1332.67 985.116 1190.74 927.582 1127.3 876.091C1038.85 804.303 983.729 632.248 889.351 568.795C692.065 436.162 352.036 794.888 459.772 1114.9M2105.49 549.712C2105.49 549.712 1830.35 274.889 1665.95 528.954C1554.92 700.547 1520.98 851.911 1418.12 917.241C1398.63 929.637 1376.36 936.422 1352.82 938.957C1338.01 940.56 1322.73 940.505 1307.36 939.115C1239.72 933.019 1169.82 900.559 1130.02 870.302C1041.74 803.373 985.811 638.808 891.74 578.355C695.879 451.69 361.43 797.27 458.608 1099.64M2104.33 553.393C2104.33 553.393 1832.79 283.139 1667.92 527.722C1556.78 692.601 1520.43 839.239 1417.32 904.399C1397.98 916.656 1375.94 923.537 1352.69 926.346C1338.04 928.124 1322.97 928.346 1307.82 927.304C1241.19 922.746 1172.41 892.62 1132.75 864.513C1044.65 802.438 987.739 645.642 894.133 587.906C699.373 467.771 370.837 799.646 457.448 1084.37M2103.16 557.071C2103.16 557.071 1835.24 291.369 1669.89 526.486C1558.65 684.635 1519.88 826.564 1416.52 891.564C1397.31 903.688 1375.51 910.658 1352.54 913.742C1338.07 915.706 1323.2 916.198 1308.29 915.493C1242.66 912.463 1175 884.678 1135.47 858.71C1047.54 801.495 989.754 652.326 896.516 597.453C703.047 483.566 380.234 802.018 456.279 1069.09M2102 560.762C2102 560.762 1837.73 299.603 1671.86 525.253C1560.56 676.669 1519.33 813.892 1415.72 878.733C1396.65 890.727 1375.09 897.78 1352.41 901.131C1338.1 903.271 1323.44 904.043 1308.77 903.685C1244.16 902.197 1177.67 876.629 1138.2 852.921C1050.59 800.316 991.775 659.023 898.908 607.003C706.743 499.358 389.632 804.389 455.119 1053.82M2100.84 564.439C2100.84 564.439 1840.25 307.799 1673.82 524.014C1562.46 668.68 1518.76 801.2 1414.9 865.894C1395.97 877.756 1374.65 884.898 1352.26 888.523C1338.11 890.849 1323.66 891.891 1309.22 891.868C1245.61 891.907 1180.26 868.652 1140.91 847.115C1053.5 799.299 993.793 665.696 901.282 616.546C710.433 515.136 399.02 806.758 453.94 1038.54M2099.68 568.12C2099.68 568.12 1842.8 315.987 1675.79 522.781C1564.4 660.705 1518.21 788.528 1414.11 853.063C1395.32 864.784 1374.23 872.023 1352.12 875.922C1338.14 878.421 1323.91 879.746 1309.7 880.07C1247.1 881.651 1182.87 860.693 1143.63 841.337C1056.42 798.31 995.833 672.4 903.67 626.106C714.165 530.917 408.413 809.14 452.763 1023.28M2098.52 571.811C2098.52 571.811 1845.39 324.168 1677.77 521.548C1566.37 652.716 1517.66 775.857 1413.31 840.221C1394.67 851.814 1373.81 859.138 1351.99 863.311C1338.17 865.996 1324.14 867.588 1310.18 868.263C1248.58 871.371 1185.48 852.724 1146.36 835.538C1059.33 797.307 997.883 679.074 906.063 635.657C717.913 546.683 417.82 811.515 451.603 1008.01M2097.36 575.489C2097.36 575.489 1848.01 332.322 1679.73 520.312C1568.36 644.714 1517.11 763.182 1412.51 827.386C1394 838.846 1373.38 846.259 1351.84 850.707C1338.2 853.567 1324.37 855.44 1310.64 856.448C1250.05 861.099 1188.05 844.754 1149.08 829.745C1062.23 796.311 999.934 685.748 908.446 645.204C721.669 562.428 427.221 813.877 450.434 992.737M2096.2 579.179C2096.2 579.179 1850.69 340.487 1681.7 519.09C1570.39 636.737 1516.44 750.294 1411.71 814.565C1393.32 825.851 1372.96 833.394 1351.71 838.106C1338.23 841.152 1324.61 843.295 1311.11 844.651C1251.54 850.829 1190.66 836.795 1151.8 823.966C1065.12 795.335 1001.99 692.435 910.831 654.774C725.453 578.183 436.611 816.269 449.266 977.484M2095.03 582.857C2095.03 582.857 1853.4 348.632 1683.66 517.84C1572.44 628.722 1515.87 737.582 1410.89 801.716C1392.65 812.863 1372.52 820.465 1351.55 825.488C1338.23 828.683 1324.84 831.133 1311.57 832.827C1253.01 840.546 1193.24 828.815 1154.52 818.15C1068.01 794.321 1004.06 699.069 913.212 664.297C729.24 593.872 446.006 818.617 448.095 962.185M2093.88 586.538C2093.88 586.538 1856.18 356.777 1685.63 516.607C1574.53 620.734 1515.32 724.897 1410.1 788.885C1391.99 799.898 1372.1 807.58 1351.42 812.887C1338.27 816.258 1325.08 818.988 1312.04 821.026C1254.48 830.283 1195.82 820.869 1157.24 812.372C1070.88 793.352 1006.14 705.743 915.597 673.868C733.057 609.594 455.396 821.01 446.927 946.933M2092.72 590.229C2092.72 590.229 1859.01 364.94 1687.6 515.385C1576.66 612.761 1514.76 712.222 1409.3 776.053C1391.34 786.927 1371.68 794.702 1351.28 800.286C1338.3 803.843 1325.31 806.806 1312.51 809.228C1255.95 819.896 1198.41 812.916 1159.97 806.583C1073.77 792.372 1008.23 712.387 917.989 683.418C736.889 625.276 464.803 823.385 445.767 931.66M2091.55 593.906C2091.55 593.906 1861.89 373.1 1689.57 514.149C1578.83 604.788 1514.2 699.533 1408.49 763.218C1390.66 773.959 1371.25 781.823 1351.14 787.682C1338.31 791.411 1325.54 794.658 1312.98 797.417C1257.42 809.613 1200.99 804.96 1162.68 800.79C1076.62 791.406 1010.31 719.028 920.369 692.975C740.738 640.942 474.197 825.767 444.594 916.395M2090.39 597.597C2090.39 597.597 1864.84 381.298 1691.54 512.916C1581.04 596.845 1513.65 686.858 1407.7 750.387C1390.01 760.998 1370.83 768.948 1351 775.071C1338.35 778.986 1325.78 782.503 1313.45 785.607C1258.9 799.34 1203.56 797.011 1165.4 794.988C1079.49 790.433 1012.42 725.642 922.756 702.512C744.601 656.567 483.589 828.125 443.428 901.109M2089.23 601.275C2089.23 601.275 1867.85 389.516 1693.5 511.676C1583.28 588.909 1513.09 674.17 1406.88 737.548C1389.33 748.017 1370.39 756.066 1350.85 762.463C1338.36 766.554 1325.99 770.348 1313.91 773.792C1260.36 789.054 1206.13 789.061 1168.12 789.195C1082.34 789.486 1014.52 732.256 925.135 712.068C748.469 672.182 492.982 830.507 442.246 885.84M2088.07 604.955C2088.07 604.955 1870.92 397.771 1695.47 510.444C1585.57 581.017 1512.54 661.498 1406.08 724.717C1388.68 735.056 1369.97 743.191 1350.71 749.862C1338.38 754.136 1326.23 758.203 1314.39 761.995C1261.84 778.794 1208.72 781.129 1170.85 783.407C1085.21 788.547 1016.64 738.853 927.527 721.619C752.36 687.761 502.38 832.879 441.082 870.578M2086.91 608.646C2086.91 608.646 1874.06 406.105 1697.45 509.211C1587.91 573.166 1511.98 648.823 1405.29 711.875C1388.02 722.082 1369.55 730.303 1350.58 737.252C1338.42 741.701 1326.48 746.048 1314.86 750.174C1263.32 768.502 1211.3 773.183 1173.57 777.604C1088.06 787.614 1018.76 745.427 929.91 731.166C756.266 703.3 511.781 835.241 439.913 855.302M2085.75 612.324C2085.75 612.324 1877.24 414.488 1699.41 507.975C1590.27 565.346 1511.44 636.151 1404.48 699.04C1387.36 709.107 1369.12 717.424 1350.44 724.647C1338.44 729.282 1326.71 733.9 1315.33 738.373C1264.79 758.239 1213.87 765.256 1176.29 771.815C1090.93 786.698 1020.9 751.994 932.303 740.716C760.179 718.818 521.187 837.616 438.753 840.029M2084.59 616.005C2084.59 616.005 1880.49 422.953 1701.39 506.742C1592.68 557.596 1510.89 623.479 1403.69 686.208C1386.71 696.146 1368.7 704.559 1350.3 712.036C1338.48 716.847 1326.94 721.742 1315.8 726.562C1266.26 747.966 1216.45 757.334 1179.01 766.023C1093.79 785.788 1023.01 758.545 934.682 750.273C764.081 734.31 530.572 839.995 437.58 824.764M2083.42 619.692C2083.42 619.692 1883.76 431.529 1703.34 505.503C1595.09 549.896 1510.33 610.804 1402.87 673.37C1386.03 683.178 1368.26 691.677 1350.15 699.428C1338.49 704.425 1327.16 709.59 1316.26 714.748C1267.72 737.689 1219.02 749.408 1181.72 760.217C1096.65 784.879 1025.13 765.062 937.056 759.816C767.982 749.745 539.96 842.363 436.401 809.485M2082.27 623.373C2082.27 623.373 1887.08 440.213 1705.31 504.27C1597.54 542.254 1509.78 598.142 1402.07 660.538C1385.37 670.214 1367.84 678.802 1350.01 686.827C1338.51 691.997 1327.4 697.445 1316.73 702.951C1269.2 727.443 1221.61 741.499 1184.45 754.442C1099.54 784.006 1027.27 771.585 939.454 769.38C771.906 765.176 549.363 844.749 435.246 794.226M2081.11 627.064C2081.11 627.064 1890.4 449.014 1707.29 503.048C1599.98 534.702 1509.25 585.498 1401.28 647.707C1384.72 657.253 1367.42 665.927 1349.88 674.227C1338.54 679.582 1327.64 685.3 1317.2 691.14C1270.68 717.174 1224.2 733.579 1187.18 748.639C1102.42 783.114 1029.4 778.072 941.837 778.927C775.82 780.547 558.76 847.12 434.077 778.95M2079.94 630.742C2079.94 630.742 1893.73 457.939 1709.25 501.811C1602.43 527.208 1508.7 572.836 1400.47 634.872C1384.05 644.288 1366.99 653.058 1349.73 661.622C1338.57 667.164 1327.87 673.162 1317.67 679.339C1272.15 706.911 1226.79 725.67 1189.89 742.857C1105.3 782.248 1031.51 784.552 944.216 788.483C779.709 795.898 568.154 849.502 432.904 763.684M2078.78 634.422C2078.78 634.422 1897.03 467.005 1711.23 500.569C1604.87 519.78 1508.16 560.168 1399.68 622.03C1383.4 631.317 1366.58 640.177 1349.6 649.011C1338.6 654.729 1328.12 661.02 1318.14 667.531C1273.69 696.733 1229.38 717.765 1192.63 737.061C1108.22 781.373 1033.64 791.005 946.618 798.037C783.613 811.209 577.561 851.878 431.744 748.412M2077.62 638.11C2077.62 638.11 1900.29 476.211 1713.18 499.339C1607.25 512.432 1507.7 547.721 1398.86 609.202C1382.74 618.386 1366.15 627.342 1349.44 636.403C1338.63 642.333 1328.34 648.869 1318.59 655.714C1275.15 686.453 1231.96 709.842 1195.33 731.262C1111.1 780.494 1035.73 797.431 948.992 807.581C787.478 826.482 586.949 854.246 430.565 733.133M2076.46 641.791C2076.46 641.791 1903.49 485.534 1715.15 498.107C1609.63 505.151 1507.15 535.05 1398.06 596.37C1382.09 605.415 1365.73 614.467 1349.31 623.803C1338.65 629.905 1328.58 636.724 1319.07 643.916C1276.64 676.187 1234.57 701.94 1198.05 725.473C1114.02 779.632 1037.83 803.851 951.381 817.141C791.34 841.732 596.342 856.628 429.398 717.88M2075.3 645.482C2075.3 645.482 1906.61 494.987 1717.13 496.874C1611.95 497.931 1506.61 522.378 1397.27 583.529C1381.43 592.441 1365.31 601.582 1349.18 611.192C1338.68 617.48 1328.83 624.569 1319.55 632.099C1278.12 665.907 1237.19 694.021 1200.78 719.674C1116.95 778.75 1039.93 810.247 953.777 826.681C795.186 856.942 605.757 858.983 428.241 702.598M2074.13 649.159C2074.13 649.159 1909.64 504.533 1719.09 495.638C1614.21 490.743 1506.05 509.703 1396.46 570.694C1380.76 579.476 1364.88 588.703 1349.03 598.587C1338.71 605.051 1329.06 612.42 1320.01 620.294C1279.58 655.631 1239.78 686.112 1203.5 713.882C1119.87 777.874 1042 816.623 956.156 836.238C798.984 872.134 615.15 861.365 427.068 687.332M2072.98 652.84C2072.98 652.84 1912.57 514.165 1721.07 494.405C1616.42 483.605 1505.51 497.021 1395.66 557.862C1380.1 566.512 1364.47 575.828 1348.89 585.986C1338.74 592.637 1329.29 600.272 1320.48 608.497C1281.07 645.375 1242.44 678.273 1206.22 708.103C1122.9 777.141 1044.05 823.011 958.545 845.798C802.767 887.309 624.544 863.747 425.904 672.07M2071.82 656.531C2071.82 656.531 1915.38 523.88 1723.03 493.169C1618.55 476.493 1504.95 484.346 1394.86 545.027C1379.44 553.537 1364.04 562.949 1348.75 573.372C1338.77 580.198 1329.52 588.114 1320.96 596.676C1282.55 635.082 1245.03 670.311 1208.95 702.29C1125.8 776.178 1046.1 829.343 960.932 855.335C806.52 902.451 633.945 866.109 424.739 656.784M2070.65 660.208C2070.65 660.208 1672.42 329.836 1348.62 560.771C1338.79 567.78 1329.76 575.969 1321.42 584.875C1041.96 883.399 817.859 1048.73 423.565 641.519M2064.97 664.029C2063.72 661.557 2001.8 609.795 1908.36 560.385C1817.79 512.48 1698.49 466.573 1573.37 471.14C1496.4 473.724 1416.91 495.586 1341.5 548.16C1331.58 555.081 1322.46 563.189 1314.02 572C1232.05 657.737 1155.94 734.475 1079.45 789.688C1042.1 816.486 1004.59 838.19 966.168 853.512C866.114 893.403 760.055 890.476 634.926 820.47C567.868 782.947 495.835 725.538 418.256 646.305M2059.3 667.854C2056.79 662.919 1995.15 610.931 1903.51 560.328C1812.72 510.181 1694.22 461.351 1568.91 462.607C1491.49 463.376 1410.83 483.448 1334.42 535.543C1324.42 542.386 1315.19 550.399 1306.66 559.119C1223.95 643.824 1148.44 721.985 1072.72 778.744C1036 806.262 999.034 828.664 961.144 844.954C862.502 887.386 757.616 888.616 631.962 822.398C563.851 786.502 490.696 729.568 412.992 651.085M2053.62 671.685C2049.85 664.278 1988.51 612.024 1898.65 560.273C1807.63 507.851 1689.93 455.948 1564.43 454.077C1486.55 452.914 1404.74 471.326 1327.32 522.936C1317.22 529.701 1307.91 537.613 1299.26 546.248C1215.83 629.913 1140.82 709.397 1065.95 767.796C1029.82 795.973 993.426 819.142 956.084 836.405C858.856 881.378 755.089 886.793 628.963 824.335C559.773 790.079 485.522 733.608 407.692 655.875M2047.94 675.505C2042.92 665.63 1981.89 613.057 1893.78 560.209C1802.55 505.478 1685.64 450.511 1559.96 445.538C1481.61 442.432 1398.64 459.181 1320.2 510.315C1310.02 517.002 1300.61 524.823 1291.86 533.363C1207.7 615.999 1133.21 696.775 1059.18 756.838C1023.64 785.674 987.825 809.6 951.032 827.837C855.207 875.347 752.535 884.983 625.972 826.253C555.679 793.639 480.351 737.638 402.399 660.645M2042.26 679.326C2035.98 666.978 1975.28 614.037 1888.92 560.145C1797.46 503.072 1681.34 445.071 1555.48 436.998C1476.66 431.947 1392.45 446.873 1313.11 497.692C1302.83 504.274 1293.32 512.026 1284.47 520.482C1199.57 602.075 1125.59 684.153 1052.42 745.88C1017.47 775.365 982.221 800.067 945.967 819.274C851.554 869.325 749.935 883.212 622.967 828.177C551.556 797.223 475.171 741.665 397.094 665.421M2036.59 683.151C2029.05 668.34 1968.69 614.966 1884.07 560.087C1792.41 500.629 1677.05 439.614 1551.02 428.465C1471.74 421.458 1386.36 434.708 1306.01 485.078C1295.64 491.582 1286.03 499.226 1277.08 507.604C1191.3 587.985 1117.99 671.514 1045.67 734.929C1011.32 765.053 976.639 790.531 940.934 810.713C847.933 863.305 747.317 881.492 619.994 830.101C547.448 800.823 470.022 745.691 391.82 670.198M2030.91 686.971C2022.12 669.688 1962.12 615.855 1879.21 560.023C1787.34 498.148 1672.74 434.136 1546.54 419.925C1466.79 410.949 1380.26 422.549 1298.91 472.45C1288.44 478.873 1278.74 486.426 1269.7 494.712C1183.16 574.034 1110.38 658.859 1038.92 723.964C1005.15 754.735 971.051 780.982 935.882 802.144C844.298 857.267 744.656 879.801 617.012 832.022C543.304 804.434 464.865 749.715 386.524 674.978M2025.23 690.792C2015.18 671.037 1955.55 616.704 1874.34 559.959C1782.27 495.635 1668.44 428.639 1542.06 411.395C1461.84 400.441 1374.15 410.39 1291.8 459.843C1281.25 466.178 1271.44 473.649 1262.3 481.841C1175.02 560.107 1102.75 646.22 1032.15 713.017C998.963 744.419 965.443 771.46 930.826 793.586C840.655 851.249 741.945 878.161 614.017 833.95C539.14 808.07 459.694 753.745 381.228 679.758M2019.55 694.613C2008.24 672.386 1949.02 617.506 1869.48 559.894C1777.23 493.071 1664.14 423.142 1537.59 402.855C1456.89 389.922 1368.05 398.241 1284.7 447.226C1274.06 453.483 1264.15 460.849 1254.91 468.96C1166.88 546.166 1095.12 633.548 1025.4 702.062C992.798 734.09 959.861 761.924 925.77 785.027C837.002 845.228 739.215 876.57 611.021 835.877C534.946 811.731 454.523 757.775 375.932 684.538M2013.88 698.438C2001.31 673.748 1942.5 618.268 1864.63 559.837C1772.21 490.484 1659.84 417.624 1533.13 394.322C1451.96 379.396 1361.97 386.089 1277.61 434.605C1266.89 440.784 1256.88 448.06 1247.54 456.075C1158.77 532.239 1087.52 620.872 1018.65 691.101C986.634 723.761 954.279 752.388 920.741 776.455C833.385 839.197 736.484 875.013 608.052 837.791C530.771 815.397 449.379 761.792 370.662 689.305M2008.2 702.268C1994.37 675.106 1936 619.004 1859.76 559.783C1767.18 487.87 1655.54 412.103 1528.65 385.792C1447.01 368.864 1355.87 373.944 1270.5 421.998C1259.68 428.086 1249.58 435.28 1240.13 443.21C1150.62 518.318 1079.86 608.213 1011.88 680.163C980.433 713.442 948.671 742.866 915.678 767.917C829.734 833.199 733.686 873.522 605.05 839.739C526.551 819.127 444.201 765.842 365.358 694.105M2002.52 706.089C1987.43 676.455 1929.52 619.69 1854.9 559.718C1762.19 485.2 1651.23 406.559 1524.17 377.252C1442.07 358.311 1349.76 361.795 1263.4 409.371C1252.49 415.381 1242.3 422.483 1232.74 430.319C1142.5 504.384 1072.22 595.514 1005.12 669.195C974.254 703.097 943.074 733.314 910.616 759.345C826.089 827.158 730.881 872.052 602.049 841.653C522.316 822.841 439.024 769.859 360.052 698.881M1996.85 709.914C1980.51 677.82 1923.07 620.352 1850.04 559.658C1757.22 482.506 1646.94 400.998 1519.7 368.716C1437.13 347.762 1343.68 349.643 1256.31 396.757C1245.31 402.689 1235.01 409.697 1225.36 417.441C1134.38 490.463 1064.59 582.818 998.371 658.254C968.07 692.761 937.485 723.798 905.579 750.793C822.465 821.147 728.082 870.652 599.069 843.597C518.091 826.615 433.865 773.915 354.771 703.678M1991.17 713.734C1973.58 679.169 1916.62 620.971 1845.19 559.597C1752.28 479.776 1642.65 395.437 1515.24 360.179C1432.2 337.2 1337.6 337.504 1249.21 384.143C1238.12 389.997 1227.74 396.903 1217.98 404.563C1126.26 476.542 1056.94 570.116 991.615 647.3C961.887 682.425 931.894 714.259 900.523 742.234C818.812 815.126 725.239 869.282 596.073 845.525C513.84 830.401 428.685 777.942 349.475 708.458M1985.49 717.555C1966.64 680.517 1910.21 621.566 1840.33 559.533C1747.36 476.998 1638.36 389.863 1510.76 351.649C1427.26 326.637 1331.5 325.379 1242.11 371.526C1230.93 377.292 1220.44 384.114 1210.59 391.682C1118.14 462.622 1049.29 557.409 984.859 636.345C955.698 672.076 926.299 704.73 895.481 733.669C815.182 809.102 722.414 867.952 593.091 847.446C509.604 834.205 423.527 781.965 344.192 713.231M1979.81 721.376C1959.7 681.866 1903.81 622.145 1835.46 559.468C1742.47 474.195 1634.07 384.268 1506.28 343.109C1422.32 316.065 1325.41 313.237 1235 358.909C1223.74 364.597 1213.15 371.327 1203.18 378.807C1110.01 448.708 1041.61 544.696 978.081 625.394C949.476 661.726 920.695 695.197 890.412 725.117C811.526 803.09 719.545 866.685 590.083 849.38C505.331 838.052 418.343 786.002 338.883 718.018M1974.14 725.201C1952.77 683.228 1897.44 622.691 1830.61 559.407C1737.61 471.348 1629.79 378.667 1501.81 334.573C1417.39 305.482 1319.33 301.109 1227.91 346.295C1216.55 351.905 1205.87 358.544 1195.8 365.929C1101.9 434.801 1033.93 531.984 971.335 614.443C943.297 651.381 915.109 685.672 885.369 716.552C807.896 797.066 716.7 865.439 587.11 851.304C501.095 841.913 413.195 790.029 333.609 722.794M1968.45 729.031C1945.83 684.586 1891.09 623.23 1825.75 559.357C1732.79 468.491 1625.52 373.076 1497.34 326.047C1412.46 294.903 1313.25 288.98 1220.81 333.681C1209.37 339.213 1198.58 345.757 1188.42 353.051C1093.79 420.883 1026.26 519.26 964.579 603.488C937.089 641.024 909.518 676.132 880.323 707.997C804.266 791.042 713.855 864.25 584.124 853.235C496.845 845.814 408.034 794.062 328.319 727.587M1962.77 732.852C1938.9 685.935 1884.75 623.729 1820.88 559.292C1727.99 465.574 1621.24 367.452 1492.86 317.507C1407.54 284.311 1307.16 276.848 1213.7 321.064C1202.18 326.518 1191.29 332.971 1181.02 340.17C1085.67 406.976 1018.57 506.521 957.824 592.534C930.89 630.672 903.927 666.593 875.271 699.428C800.617 785.01 711 863.091 581.133 855.152C492.588 849.735 402.867 798.082 323.026 732.357M1957.09 736.673C1931.96 687.283 1878.45 624.218 1816.02 559.228C1723.23 462.637 1616.97 361.83 1488.39 308.967C1402.61 273.708 1301.07 264.726 1206.6 308.437C1194.99 313.813 1184.01 320.174 1173.63 327.278C1077.56 393.059 1010.87 493.777 951.062 581.566C924.676 620.302 898.326 657.051 870.219 690.86C796.977 778.983 708.152 861.968 578.141 857.07C488.328 853.689 397.7 802.102 317.734 737.127M1951.42 740.498C1925.04 688.649 1872.16 624.691 1811.16 559.167C1718.53 459.664 1612.71 356.199 1483.92 300.43C1397.7 263.099 1295 252.601 1199.51 295.823C1187.8 301.121 1176.73 307.391 1166.24 314.397C1069.45 379.162 1003.16 481.041 944.307 570.612C918.459 609.943 892.734 647.512 865.167 682.291C793.338 772.955 705.312 860.883 575.149 858.987C484.075 857.657 392.529 806.133 312.441 741.897M1945.74 744.318C1918.1 689.997 1865.91 625.15 1806.31 559.106C1713.85 456.658 1608.46 350.562 1479.44 291.9C1392.78 252.5 1288.91 240.493 1192.4 283.216C1180.6 288.436 1169.44 294.614 1158.84 301.536C1061.33 365.275 995.435 468.31 937.544 559.677C912.244 599.607 887.132 638.003 860.113 673.756C789.697 766.961 702.473 859.855 572.156 860.938C479.828 861.696 387.36 810.186 307.147 746.701M1940.06 748.139C1911.17 691.346 1859.66 625.593 1801.44 559.042C1709.23 453.622 1604.21 344.914 1474.96 283.361C1387.86 241.877 1282.81 228.371 1185.3 270.588C1173.41 275.731 1162.14 281.814 1151.46 288.644C1053.21 351.367 987.718 455.56 930.779 548.719C906.017 589.244 881.541 628.464 855.061 665.188C786.061 760.923 699.648 858.844 569.165 862.856C475.59 865.738 382.193 814.206 301.841 751.477M1934.38 751.96C1904.23 692.705 1853.44 626.02 1796.58 558.978C1704.63 450.553 1599.96 339.253 1470.49 274.821C1382.96 231.258 1276.73 216.252 1178.19 257.971C1166.22 263.036 1154.86 269.028 1144.06 275.763C1045.1 337.474 979.982 442.803 924.023 537.765C899.794 578.871 875.95 618.925 850.006 656.629C782.409 754.902 696.844 857.863 566.169 864.783C471.354 869.803 377.022 818.236 296.545 756.257M1928.71 755.794C1897.29 694.066 1847.25 626.459 1791.72 558.927C1700.09 447.47 1595.72 333.608 1466.01 266.294C1378.06 220.642 1270.72 204.356 1171.09 245.367C1159.04 250.381 1147.57 256.255 1136.68 262.895C1037 323.594 972.249 430.069 917.264 526.82C893.563 568.518 870.351 609.406 844.959 648.074C778.775 748.887 694.052 856.909 563.184 866.714C467.144 873.912 371.861 822.269 291.258 761.04M1923.03 759.615C1890.36 695.415 1841.07 626.879 1786.86 558.863C1695.59 444.345 1591.49 327.944 1461.54 257.754C1373.15 210.013 1264.64 192.214 1163.99 232.74C1151.85 237.676 1140.3 243.485 1129.29 250.003C1028.99 309.872 964.495 417.305 910.512 515.856C887.34 558.145 864.764 599.856 839.907 639.505C775.135 742.859 691.271 855.981 560.192 868.631C462.935 878.021 366.694 826.289 285.966 765.81M1917.35 763.436C1883.42 696.764 1834.91 627.286 1782 558.802C1691.15 441.207 1587.27 322.283 1457.07 249.218C1368.27 199.381 1258.55 180.082 1156.89 220.126C1144.67 224.984 1133.01 230.699 1121.9 237.122C1020.86 295.958 956.736 404.551 903.747 504.898C881.1 547.789 859.159 590.324 834.855 630.937C771.496 736.832 688.519 855.064 557.2 870.549C458.737 882.157 361.527 830.309 280.673 770.58M1911.68 767.26C1876.49 698.126 1828.78 627.7 1777.15 558.741C1686.77 438.032 1583.05 316.612 1452.6 240.681C1363.39 188.748 1252.46 167.94 1149.8 207.502C1137.49 212.282 1125.74 217.895 1114.51 224.244C1012.75 282.04 948.978 391.798 897.001 493.947C874.874 537.426 853.577 580.788 829.818 622.385C767.871 730.821 685.789 854.202 554.233 872.487C454.575 886.341 356.384 834.35 275.405 775.37M1906 771.081C1869.56 699.477 1822.67 628.1 1772.28 558.677C1682.42 434.838 1578.96 310.714 1448.12 232.151C1358.58 177.972 1246.37 155.818 1142.69 194.895C1130.29 199.597 1118.45 205.119 1107.12 211.373C1004.61 268.136 941.203 379.06 890.232 482.999C868.624 527.066 847.973 571.256 824.753 613.823C764.213 724.786 683.059 853.339 551.229 874.411C450.391 890.527 351.204 838.376 270.096 780.157M1900.32 774.902C1862.63 700.826 1816.56 628.504 1767.42 558.612C1678.13 431.617 1574.68 305.147 1443.64 223.611C1353.65 167.403 1240.27 143.672 1135.59 182.278C1123.1 186.892 1111.15 192.329 1099.73 198.491C996.492 254.226 933.305 366.255 883.476 472.045C862.332 516.679 842.387 561.73 819.707 605.268C760.579 718.772 680.364 852.499 548.243 876.341C446.237 894.747 346.039 842.42 264.809 784.94M1894.64 778.723C1855.69 702.175 1810.49 628.905 1762.56 558.552C1673.9 428.387 1570.42 299.586 1439.18 215.075C1348.74 156.838 1234.18 131.54 1128.49 169.654C1002.46 215.11 931.059 341.615 876.724 461.08C856.143 506.33 836.8 552.181 814.658 596.689C756.943 712.734 677.69 851.657 545.255 878.249C442.096 898.961 340.876 846.43 259.52 789.7" stroke="url(#paint0_linear_401_122)" stroke-width="0.5658" stroke-miterlimit="10"/>
<defs>
<linearGradient id="paint0_linear_401_122" x1="967.024" y1="333.806" x2="1446.12" y2="1052.41" gradientUnits="userSpaceOnUse">
<stop stop-color="#FFCE07"/>
<stop offset="1" stop-color="#B40FE7"/>
</linearGradient>
</defs>
</svg>
