<svg width="1440" height="760" viewBox="0 0 1440 760" fill="none" xmlns="http://www.w3.org/2000/svg">
<path opacity="0.5" d="M-1369.14 256.81C-195.147 609.92 -450.065 -206.867 -211.242 -357.015C-144.529 -398.96 -62.4195 -346.675 -31.7837 -281.102C9.38045 -192.998 -77.9382 -79.5964 -167.722 -128.929C-258.356 -178.723 -218.376 -345.213 -137.728 -390.595C-97.7155 -413.11 -49.3585 -410.778 -7.64566 -396.012C146.556 -341.395 209.123 -154.911 310.759 -35.7142C385.085 51.4672 475.736 126.475 582.895 161.917C702.535 201.496 837.053 183.194 942.969 102.747C1200.2 -92.5959 1363.05 -600.547 1753.73 -512.752C2098.86 -435.173 2202.47 52.01 2243.84 367.038M2246.75 354.626C2219.13 166.184 2167.13 -84.5248 2054.94 -265.266C2007.14 -342.043 1949.3 -405.561 1878.08 -448.382C1838.69 -472.054 1795 -489.439 1746.54 -498.979C1669.92 -514.249 1601.76 -507.107 1539.68 -484.544C1427.08 -443.653 1333.62 -351.009 1248.13 -250.826C1188.26 -180.661 1133.3 -107.573 1079.25 -40.0841C1038.63 10.644 996.667 58.0277 950.387 95.3088C906.067 131.074 855.407 155.585 802.53 168.528C734.502 185.252 663.048 183.004 595.948 162.379C488.744 129.699 396.921 56.6453 322.062 -30.9561C218.049 -152.544 151.466 -329.593 1.73778 -378.086C-8.10068 -381.276 -18.2826 -383.671 -28.5599 -385.181C-60.2214 -389.847 -93.2111 -386.516 -121.542 -370.122C-197.316 -326.428 -233.539 -169.337 -149.094 -124.68C-135.027 -117.24 -121.15 -113.942 -107.88 -114.171C-39.9763 -114.949 11.0305 -203.411 -24.7051 -274.024C-56.4702 -336.801 -137.8 -386.511 -204.616 -344.379C-229.483 -328.707 -249.16 -305.936 -265.762 -278.117C-408.059 -39.4731 -343.574 558.45 -1357.85 230.122M2249.67 342.181C2219.34 155.093 2162.86 -94.0847 2047.79 -268.015C1998.62 -341.894 1940.54 -400.886 1869.89 -439.987C1830.8 -461.581 1787.42 -477.048 1739.39 -485.266C1663.54 -498.249 1595.76 -490.141 1533.65 -467.329C1421.4 -426.213 1326.08 -335.712 1240.51 -241.624C1180.58 -175.721 1127.43 -109.553 1078.23 -45.5458C1040.86 3.06964 1002.01 50.0166 957.829 87.8039C915.554 124.131 866.06 149.875 813.953 163.982C746.855 182.342 675.978 181.638 609.018 162.791C501.831 132.613 408.759 61.7677 333.363 -26.2372C226.956 -150.221 156.325 -317.848 11.1276 -360.178C1.61075 -362.949 -8.18409 -364.864 -17.9665 -365.949C-47.9885 -369.283 -78.9269 -365.407 -105.348 -349.666C-176.256 -307.644 -208.704 -160 -130.459 -120.448C-117.122 -113.707 -104.067 -110.804 -91.6314 -111.394C-27.3164 -113.655 19.4475 -199.316 -17.6512 -266.974C-50.53 -326.95 -131.111 -374.095 -198.031 -331.776C-222.845 -316.104 -242.65 -293.511 -259.48 -265.982C-403.742 -29.8966 -369.478 543.822 -1346.6 203.421M2252.57 329.731C2219.53 143.997 2158.58 -103.65 2040.62 -270.754C1990.08 -341.716 1931.76 -396.216 1861.67 -431.565C1822.87 -451.08 1779.84 -464.678 1732.21 -471.51C1657.16 -482.282 1589.71 -473.119 1527.56 -450.075C1415.66 -408.718 1318.52 -320.386 1232.85 -232.377C1172.87 -170.737 1121.55 -111.499 1077.17 -50.9797C1043.08 -4.48779 1007.31 42.0275 965.221 80.3376C925.001 117.248 876.67 144.187 825.341 159.48C759.181 179.46 688.845 180.398 622.055 163.247C514.844 135.726 420.579 66.94 344.651 -21.4849C235.861 -147.843 161.111 -306.091 20.511 -342.252C11.3219 -344.621 1.91401 -346.057 -7.38907 -346.723C-35.7775 -348.708 -64.6529 -344.32 -89.1712 -329.215C-155.206 -288.881 -183.888 -150.708 -111.847 -116.205C-99.2226 -110.156 -87.0053 -107.654 -75.3891 -108.6C-14.6474 -112.339 27.8889 -195.193 -10.5883 -259.902C-44.5808 -317.076 -124.412 -361.657 -191.414 -319.162C-216.16 -303.483 -236.094 -281.069 -253.173 -253.818C-399.399 -20.2919 -395.343 529.229 -1335.32 176.749M2255.47 317.297C2219.73 132.9 2154.71 -113.549 2033.43 -273.498C1981.71 -341.704 1922.97 -391.552 1853.44 -423.148C1814.93 -440.585 1772.23 -452.315 1725.02 -457.775C1650.76 -466.343 1583.66 -456.114 1521.46 -432.843C1409.92 -391.262 1310.93 -305.089 1225.17 -223.159C1165.11 -165.788 1115.67 -113.485 1076.1 -56.4421C1045.3 -12.0458 1012.48 33.8986 972.611 72.8321C934.336 110.191 887.251 138.338 836.726 154.939C771.467 176.394 701.692 179.114 635.089 163.664C527.845 138.777 432.396 72.0731 355.914 -16.7609C244.747 -145.51 165.837 -294.413 29.8637 -324.338C20.9962 -326.289 11.9658 -327.268 3.16702 -327.486C-23.5973 -328.144 -50.3717 -323.156 -73.0152 -308.754C-134.08 -269.941 -159.121 -141.471 -93.2499 -111.968C-81.3483 -106.634 -69.9593 -104.51 -59.1776 -105.819C-2.01525 -111.018 36.3091 -191.059 -3.55605 -252.842C-38.6373 -307.185 -117.723 -349.242 -184.851 -306.548C-209.544 -290.869 -229.605 -268.633 -246.913 -241.673C-395.103 -10.7046 -421.263 514.596 -1324.09 150.06M2258.39 304.853C2219.94 121.809 2150.53 -123.207 2026.27 -276.231C1973.22 -341.565 1914.23 -386.871 1845.22 -414.742C1807.03 -430.096 1764.66 -439.979 1717.86 -444.03C1644.42 -450.403 1577.62 -439.103 1515.41 -415.595C1404.23 -373.788 1303.39 -289.775 1217.55 -213.934C1157.43 -160.809 1109.89 -115.469 1075.08 -61.8813C1047.61 -19.608 1017.8 25.8986 980.056 65.3662C943.811 103.281 897.903 132.628 848.167 150.437C783.82 173.484 714.605 177.892 648.178 164.121C540.89 141.902 444.253 77.2404 367.254 -12.0079C253.689 -143.137 170.557 -282.718 39.2936 -306.395C30.7322 -307.934 22.1106 -308.444 13.7851 -308.226C-11.3707 -307.563 -36.0535 -301.997 -56.8034 -288.253C-112.967 -251.062 -132.238 -136.865 -74.6124 -107.697C-63.8168 -102.224 -52.8732 -101.333 -42.9105 -102.997C10.6631 -109.679 44.8101 -186.858 3.5165 -245.748C-32.6165 -297.267 -111.015 -336.781 -178.225 -293.911C-202.85 -278.226 -223.04 -256.169 -240.591 -229.504C-390.745 -1.09415 -447.127 500.003 -1312.8 123.394M2261.3 292.402C2220.14 110.696 2146.31 -132.861 2019.11 -278.987C1964.72 -341.449 1905.45 -382.201 1837.01 -406.337C1799.12 -419.612 1757.1 -427.637 1710.69 -430.306C1638.05 -434.492 1571.59 -422.109 1509.33 -398.374C1398.51 -356.343 1295.82 -274.489 1209.91 -204.72C1149.73 -155.858 1104.12 -117.486 1074.04 -67.3486C1049.93 -27.187 1023.08 17.865 987.482 57.8558C953.251 96.3202 908.537 126.873 859.574 145.886C796.154 170.529 727.474 176.598 661.217 164.521C553.89 144.953 456.075 82.3571 378.523 -7.30032C262.58 -140.82 175.122 -271.08 48.6581 -288.514C40.409 -289.657 32.1743 -289.687 24.3531 -289.022C0.784375 -287.028 -21.7793 -280.911 -40.6356 -267.825C-91.8923 -232.272 -107.11 -128.998 -56.0032 -103.492C-46.0152 -98.5029 -35.8152 -98.2221 -26.687 -100.248C23.3133 -108.407 53.3041 -182.735 10.5544 -238.704C-26.6148 -287.393 -104.327 -324.366 -171.64 -281.308C-196.213 -265.623 -216.515 -243.738 -234.309 -217.368C-386.427 8.48239 -473.016 485.381 -1301.56 96.6879M2264.22 279.958C2220.35 99.6051 2142.11 -142.508 2011.93 -281.725C1956.22 -341.316 1896.67 -377.532 1828.8 -397.915C1791.19 -409.111 1749.52 -415.285 1703.52 -416.566C1631.69 -418.558 1565.56 -405.115 1503.26 -381.131C1392.79 -338.859 1288.26 -259.163 1202.25 -195.49C1142.02 -150.891 1098.42 -119.52 1072.99 -72.7829C1052.3 -34.7491 1028.35 9.86431 994.891 50.3949C962.674 89.409 919.153 121.169 870.978 141.389C808.47 167.624 740.334 175.375 674.27 164.983C566.892 148.099 467.895 87.5294 389.827 -2.54227C271.507 -138.452 179.638 -259.404 58.0357 -270.571C50.0927 -271.302 42.2357 -270.875 34.9404 -269.773C12.9276 -266.458 -7.48594 -259.78 -24.4486 -247.352C-70.7826 -213.431 -82.062 -121.348 -37.381 -99.2271C-28.2127 -94.6879 -18.7442 -95.0504 -10.435 -97.4326C35.9921 -107.069 61.8363 -178.523 17.6117 -231.615C-20.5843 -277.452 -97.6339 -311.911 -165.051 -268.667C-189.556 -252.975 -210.001 -231.274 -228.024 -205.194C-382.106 18.098 -498.918 470.793 -1290.31 70.0269M2267.12 267.524C2220.55 88.5306 2137.85 -152.156 2004.76 -284.464C1947.7 -341.188 1887.89 -372.862 1820.58 -389.509C1783.27 -398.627 1741.96 -402.943 1696.34 -402.826C1625.33 -402.64 1559.51 -388.11 1497.18 -363.894C1387.07 -321.397 1280.71 -243.855 1194.6 -186.261C1134.31 -145.907 1092.74 -121.597 1071.94 -78.2335C1054.72 -42.3436 1033.64 1.85295 1002.31 42.901C972.117 82.487 929.759 115.442 882.394 136.86C820.807 164.708 753.216 174.141 687.334 165.411C579.896 151.19 479.743 92.6741 401.127 2.17673C280.408 -136.113 184.024 -247.756 67.4254 -252.662C59.773 -252.986 52.303 -252.08 45.5181 -250.547C25.0243 -245.907 6.80735 -238.649 -8.27116 -226.902C-49.6823 -194.613 -60.4068 -105.199 -18.7624 -95.0007C-9.72897 -92.7821 -1.67665 -91.9174 5.79804 -94.6615C48.6518 -105.775 70.4019 -174.354 24.6653 -224.566C-14.5142 -267.571 -90.9388 -299.512 -158.444 -256.075C-182.896 -240.383 -203.454 -218.854 -221.72 -193.07C-377.773 27.6801 -524.801 456.155 -1279.03 43.3157M2270.04 255.079C2220.77 77.4231 2133.63 -161.793 1997.59 -287.203C1939.17 -341.061 1879.13 -368.187 1812.35 -381.092C1775.35 -388.126 1734.36 -390.613 1689.15 -389.092C1618.96 -386.729 1553.46 -371.105 1491.1 -346.657C1381.34 -303.935 1273.13 -228.552 1186.94 -177.036C1126.59 -140.946 1087.16 -123.773 1070.88 -83.69C1057.2 -49.9766 1038.9 -6.16986 1009.71 35.418C981.53 75.5537 940.365 109.715 893.789 132.341C833.129 161.787 766.067 172.896 700.377 165.851C592.882 154.33 491.553 97.8241 412.415 6.92905C289.319 -133.752 188.274 -236.027 76.8088 -234.736C69.4316 -234.66 62.3701 -233.285 56.105 -231.299C37.1085 -225.322 21.1005 -217.518 7.90957 -206.412C-28.5694 -175.734 -36.1292 -96.4037 -0.140393 -90.7353C8.16881 -89.4199 15.3941 -88.7456 22.0498 -91.8459C61.3148 -104.442 79.008 -170.152 31.7223 -217.477C-8.40988 -257.641 -84.231 -287.052 -151.855 -243.433C-176.239 -227.735 -196.926 -206.384 -215.441 -180.88C-373.458 37.3122 -550.702 441.566 -1267.78 16.6545M2272.95 242.629C2220.96 66.3261 2129.35 -171.447 1990.42 -289.958C1930.65 -340.933 1870.35 -363.517 1804.14 -372.687C1767.43 -377.642 1726.81 -378.288 1681.98 -375.352C1612.61 -370.828 1547.43 -354.094 1485.02 -329.42C1375.62 -286.473 1265.56 -213.249 1179.28 -167.807C1118.88 -135.979 1081.65 -126.071 1069.83 -89.1243C1059.77 -57.6696 1044.17 -14.1482 1017.12 27.9406C990.968 68.6482 950.996 104.016 905.183 127.823C845.429 158.876 778.911 171.667 713.42 166.29C605.858 157.448 503.373 102.996 423.694 11.6588C298.22 -131.413 192.379 -224.239 86.1768 -216.817C79.0686 -216.322 72.3943 -214.468 66.6671 -212.079C49.1249 -204.743 35.3999 -196.404 24.0716 -185.967C-7.45361 -156.911 -12.1422 -81.0524 18.4629 -86.5147C25.6946 -84.5615 32.44 -85.6017 38.2828 -89.0747C73.9745 -103.148 87.6264 -165.983 38.7701 -210.411C-2.2777 -247.738 -77.5481 -274.62 -145.255 -230.824C-169.571 -215.12 -190.395 -193.97 -209.144 -168.739C-369.125 46.8942 -576.576 426.951 -1256.53 -10.0457M2275.87 230.184C2221.17 55.2353 2125.09 -181.078 1983.26 -292.691C1922.14 -340.784 1861.59 -358.842 1795.94 -364.276C1759.53 -367.153 1719.26 -365.963 1674.84 -361.617C1606.3 -354.933 1541.42 -337.094 1478.99 -312.182C1369.96 -268.989 1258.04 -197.946 1171.67 -158.582C1111.2 -131 1076.27 -128.566 1068.82 -94.5804C1062.44 -65.4946 1049.5 -22.1651 1024.58 20.4578C1000.44 61.7373 961.649 98.3059 916.63 123.304C857.798 155.971 791.803 170.456 726.5 166.725C618.875 160.6 515.221 108.141 435.019 16.4057C307.146 -129.046 196.405 -212.329 95.5974 -198.896C88.7428 -197.99 82.4709 -195.65 77.2911 -192.835C61.1696 -184.097 49.7456 -175.272 40.2954 -165.5C13.7611 -138.069 12.5138 -71.2746 37.1219 -82.2547C43.5946 -80.9173 49.5478 -82.4353 54.556 -86.2701C86.6745 -101.821 96.328 -161.803 45.8639 -203.328C3.92821 -237.845 -70.8126 -262.187 -138.629 -218.188C-162.892 -202.483 -183.829 -181.506 -202.822 -156.57C-364.767 56.5044 -602.44 412.357 -1245.23 -36.7122M2278.77 217.75C2221.37 44.1386 2120.81 -190.699 1976.08 -295.436C1913.58 -340.651 1852.8 -354.178 1787.71 -355.859C1751.59 -356.658 1711.68 -353.627 1667.64 -347.866C1599.93 -339.021 1535.37 -320.089 1472.88 -294.934C1364.21 -251.516 1250.44 -182.615 1164 -149.341C1103.47 -126.022 1070.88 -131.327 1067.75 -100.004C1065.1 -73.4744 1054.75 -30.1326 1031.97 12.9913C1009.86 54.8427 972.243 92.6122 928.019 118.802C870.101 153.1 804.636 169.261 739.537 167.181C631.833 163.767 527.041 113.313 446.292 21.1523C316.042 -126.69 200.213 -200.255 104.959 -180.96C98.3523 -179.625 92.4771 -176.783 87.8569 -173.576C73.1161 -163.375 64.0545 -154.136 56.4547 -144.999C34.9423 -119.184 37.127 -61.4748 55.7225 -77.9784C61.4361 -77.2568 66.5972 -79.2525 70.7924 -83.46C99.3222 -100.493 105.03 -157.622 52.9059 -196.245C10.1038 -227.964 -64.12 -249.733 -132.04 -205.546C-156.235 -189.835 -177.3 -169.036 -196.537 -144.396C-360.446 66.12 -628.342 397.769 -1233.98 -63.3734M2281.69 205.306C2221.58 33.048 2116.52 -200.319 1968.92 -298.168C1905.06 -340.507 1844.05 -349.63 1779.49 -347.437C1743.68 -346.229 1704.11 -341.307 1660.46 -334.126C1593.59 -323.136 1529.32 -303.084 1466.8 -277.697C1358.48 -234.054 1242.89 -167.306 1156.33 -140.133C1095.75 -121.077 1059.8 -133.376 1066.69 -105.477C1063 -81.8464 1060.03 -38.1496 1039.36 5.48619C1019.27 47.9095 982.834 86.8797 939.404 114.262C882.408 150.172 817.465 168.027 752.57 167.598C644.788 166.896 538.858 118.446 457.57 25.8823C324.937 -124.334 203.911 -187.977 114.328 -163.04C107.946 -161.265 102.483 -157.916 98.4129 -154.339C85.0503 -142.62 78.3692 -133.016 72.6105 -124.538C56.1691 -100.376 61.7149 -51.703 74.3195 -73.741C79.2895 -73.6295 83.6431 -76.1086 87.0039 -80.678C111.954 -99.172 113.75 -153.491 59.9379 -189.184C16.3126 -218.126 -57.4527 -237.306 -125.455 -192.943C-149.598 -177.232 -170.79 -156.611 -190.255 -132.261C-356.129 75.6966 -654.231 383.147 -1222.72 -90.0735M2284.59 192.856C2221.77 21.9511 2112.22 -209.929 1961.75 -300.924C1896.51 -340.369 1835.26 -344.982 1771.29 -339.048C1735.77 -335.761 1696.57 -329.016 1653.3 -320.419C1587.26 -307.285 1523.29 -286.107 1460.75 -260.487C1352.79 -216.62 1235.34 -152.031 1148.71 -130.931C1088.06 -116.121 1053.71 -135.53 1065.67 -110.955C1065.07 -89.5718 1065.35 -46.1662 1046.81 -2.03513C1028.74 40.9601 993.493 81.1533 950.832 109.699C894.767 147.246 830.353 166.776 765.647 167.993C657.796 170.025 550.702 123.552 468.883 30.5683C333.856 -122.044 207.539 -175.462 123.72 -145.186C117.558 -142.956 112.538 -139.088 109.015 -135.179C97.0371 -121.864 92.7636 -112.017 88.8123 -104.154C77.5187 -81.7108 86.3702 -42.0194 92.9624 -69.581C97.1732 -70.0852 100.719 -73.0476 103.276 -77.9675C124.654 -97.9387 122.543 -149.464 67.0096 -182.184C22.5826 -208.36 -50.7301 -224.935 -118.852 -180.39C-142.92 -164.689 -164.247 -144.23 -183.955 -120.175C-351.793 85.2236 -680.112 368.454 -1211.47 -116.829M2287.52 180.411C2221.99 10.8436 2107.91 -219.522 1954.58 -303.662C1887.97 -340.214 1826.48 -340.296 1763.07 -330.626C1727.84 -325.261 1689 -316.696 1646.12 -306.662C1580.91 -291.401 1517.25 -269.079 1454.66 -243.233C1347.05 -199.125 1227.76 -136.711 1141.05 -121.684C1080.35 -111.137 1047.59 -137.639 1064.63 -116.367C1067.12 -97.2305 1070.63 -54.1059 1054.22 -9.47384C1038.19 34.1155 1004.11 75.4875 962.245 105.225C907.101 144.385 843.204 165.626 778.708 168.477C670.782 173.26 562.547 128.753 480.19 35.365C342.786 -119.638 211.112 -162.554 133.116 -127.199C127.175 -124.513 122.597 -120.126 119.599 -115.875C109.056 -100.909 107.159 -90.9236 104.996 -83.6255C98.8776 -63.0231 110.987 -32.1809 111.588 -65.2769C115.039 -66.3969 117.794 -69.8371 119.516 -75.1188C137.32 -96.5672 131.353 -145.338 74.0701 -175.057C28.8596 -198.517 -44.0282 -212.458 -112.238 -167.721C-136.254 -152.019 -157.694 -131.733 -177.651 -107.957C-347.453 94.8834 -705.994 353.91 -1200.19 -143.446M2290.42 167.977C2222.19 -0.23066 2103.57 -229.088 1947.41 -306.401C1879.42 -340.059 1817.7 -335.627 1754.85 -322.204C1719.91 -314.744 1681.43 -304.377 1638.94 -292.922C1574.56 -275.539 1511.2 -252.075 1448.59 -225.99C1341.34 -181.657 1220.2 -121.387 1133.4 -112.455C1072.64 -106.17 1041.49 -139.781 1063.58 -121.818C1069.16 -104.928 1075.93 -62.0953 1061.64 -16.968C1047.65 27.199 1014.75 69.7717 973.661 100.696C919.448 141.492 856.058 164.419 791.757 168.9C683.756 176.433 574.363 133.886 491.49 40.084C351.703 -117.293 214.683 -149.403 142.512 -109.307C136.793 -106.126 132.681 -101.231 130.198 -96.6595C121.162 -79.9971 121.555 -69.9802 121.189 -63.1694C120.203 -44.6294 135.618 -22.4309 130.216 -61.0282C132.909 -62.764 134.87 -66.6819 135.774 -72.3198C149.989 -95.251 140.193 -141.295 81.1487 -167.98C35.1822 -188.751 -37.3142 -200.014 -105.628 -155.09C-129.576 -139.382 -151.159 -119.28 -171.344 -95.794C-343.11 104.488 -731.874 339.311 -1188.92 -170.118M2293.34 155.532C2222.4 -11.3218 2099.25 -238.665 1940.25 -309.134C1870.88 -339.882 1808.93 -330.934 1746.64 -313.798C1712 -304.26 1673.87 -292.09 1631.78 -279.177C1568.23 -259.688 1505.19 -235.075 1442.52 -208.747C1335.63 -164.189 1212.65 -106.078 1125.77 -103.219C1064.95 -101.197 1035.39 -141.901 1062.55 -127.263C1071.22 -112.62 1081.26 -70.0729 1069.07 -24.4394C1057.12 20.3051 1025.39 64.0951 985.087 96.1885C931.789 138.615 868.932 163.258 804.831 169.351C696.749 179.651 586.221 139.053 502.8 44.8254C360.62 -114.948 218.323 -135.908 151.911 -91.3754C146.394 -87.6891 142.783 -82.2916 140.807 -77.4218C133.354 -59.0346 135.872 -49.1035 137.398 -42.7074C141.29 -26.3981 160.28 -12.6695 148.85 -56.796C150.784 -59.1475 151.954 -63.5431 152.023 -69.5428C162.665 -93.9512 149.042 -137.323 88.2024 -160.93C41.4923 -179.045 -30.6095 -187.593 -99.0267 -142.481C-122.922 -126.773 -144.618 -106.843 -165.046 -83.6531C-338.777 114.07 -757.747 324.695 -1177.65 -196.812M2296.24 143.082C2222.61 -22.4348 2094.92 -248.208 1933.07 -311.895C1862.3 -339.738 1800.14 -326.271 1738.42 -305.398C1704.06 -293.781 1666.3 -279.81 1624.6 -265.459C1561.87 -243.865 1499.13 -218.092 1436.45 -191.527C1329.91 -146.744 1205.1 -90.7856 1118.1 -94.0111C1057.21 -96.2412 1029.26 -144.049 1061.49 -132.719C1073.25 -120.324 1086.55 -78.068 1076.48 -31.9392C1066.58 13.4051 1036.01 58.3904 996.472 91.6477C944.105 135.71 881.764 162.062 817.865 169.768C709.701 182.835 598.016 144.197 514.078 49.5552C369.521 -112.609 222.069 -122.129 161.279 -73.4554C156.005 -69.23 152.861 -63.3798 151.363 -58.1847C145.553 -38.0887 150.027 -28.1731 153.554 -22.2459C162.003 -8.05956 184.868 -2.89776 167.447 -52.5587C168.643 -55.5369 168.999 -60.3992 168.25 -66.7551C175.318 -92.6406 157.887 -133.39 95.244 -153.847C47.8021 -169.34 -23.9268 -175.161 -92.4478 -129.862C-116.275 -114.147 -138.099 -94.396 -158.771 -71.5013C-334.466 123.663 -783.658 310.084 -1166.41 -223.518M2299.15 130.632C2222.8 -33.5315 2090.57 -257.757 1925.89 -314.634C1853.74 -339.55 1791.36 -321.601 1730.2 -296.976C1696.14 -283.281 1658.74 -267.524 1617.42 -251.702C1555.53 -228.019 1493.09 -201.065 1430.36 -174.273C1324.18 -129.266 1197.52 -75.466 1110.45 -84.7644C1049.5 -91.2573 1023.14 -146.158 1060.44 -138.153C1075.29 -128.005 1091.85 -86.0349 1083.89 -39.3999C1076.04 6.52771 1046.63 52.708 1007.88 87.1514C956.455 132.855 894.616 160.911 830.917 170.23C722.681 186.086 609.851 149.375 525.366 54.3075C378.426 -110.231 226.024 -108.106 170.662 -55.5297C165.624 -50.7487 162.984 -44.4512 161.95 -38.9363C157.862 -17.1586 164.141 -7.1268 169.741 -1.77308C182.635 10.5495 209.509 6.87449 186.075 -48.3099C186.512 -51.9039 186.076 -57.244 184.492 -63.9617C187.972 -91.3302 166.75 -129.507 102.291 -146.781C54.1301 -159.684 -17.2283 -162.723 -85.853 -117.237C-109.628 -101.522 -131.58 -81.9487 -152.48 -59.3438C-330.145 133.279 -809.548 295.463 -1155.15 -250.196M2302.06 118.204C2223 -44.6059 2086.25 -267.262 1918.72 -317.373C1845.18 -339.363 1782.62 -316.787 1721.99 -288.57C1688.26 -272.708 1651.17 -255.243 1610.25 -237.979C1549.17 -212.196 1487.06 -184.07 1424.3 -157.046C1318.47 -111.798 1189.97 -60.1741 1102.8 -75.5512C1041.79 -86.3068 1023.48 -166.476 1059.39 -143.604C1075.96 -133.053 1097.18 -94.0128 1091.31 -46.8938C1085.51 -0.383007 1057.26 47.0089 1019.29 82.6218C968.795 129.978 907.48 159.727 843.981 170.659C735.674 189.304 621.699 154.52 536.676 59.0488C387.343 -107.886 230.246 -93.9464 180.046 -37.6039C175.275 -32.2558 173.12 -25.5555 172.521 -19.6934C170.19 3.72211 178.254 14.0136 185.906 18.7107C203.308 29.3803 234.106 16.6685 204.676 -44.0338C204.353 -48.2436 203.125 -54.0614 200.722 -61.1353C200.629 -89.9809 175.599 -125.629 109.343 -139.676C60.4429 -150.034 -10.542 -150.252 -79.2704 -104.578C-102.977 -88.8571 -125.057 -69.4626 -146.2 -47.1534C-325.83 142.911 -835.44 280.897 -1143.9 -276.84M2304.97 105.754C2223.21 -55.7191 2081.89 -276.778 1911.55 -320.111C1836.62 -339.175 1773.84 -312.118 1713.76 -280.154C1680.32 -262.213 1643.58 -242.968 1603.05 -224.228C1542.79 -196.362 1480.99 -167.055 1418.2 -139.798C1312.74 -94.3198 1182.37 -44.8438 1095.13 -66.3104C1034.06 -81.3122 1011.56 -155.901 1058.33 -149.044C1079.92 -145.87 1102.48 -101.985 1098.7 -54.3603C1094.96 -7.2662 1067.86 41.3373 1030.67 78.1142C981.099 127.106 920.294 158.582 857.002 171.109C748.633 192.565 633.488 159.681 547.933 63.7897C396.222 -105.536 234.654 -79.7195 189.398 -19.6898C184.919 -13.7468 183.21 -6.67702 183.084 -0.47303C182.542 24.5363 192.774 34.3826 202.068 39.1555C223.294 50.0425 249.584 31.2507 223.279 -39.813C221.587 -44.4117 220.177 -50.9342 216.955 -58.3642C213.288 -88.687 184.452 -121.862 116.396 -132.626C66.7546 -140.478 -3.84691 -137.853 -72.6635 -91.9863C-96.3175 -76.2648 -118.526 -57.0485 -139.897 -35.0292C-321.491 152.476 -861.323 266.259 -1132.63 -303.551M2307.89 93.3087C2223.42 -66.8102 2077.57 -286.261 1904.4 -322.861C1828.07 -338.981 1765.1 -307.453 1705.56 -271.743C1672.42 -251.723 1636.03 -230.698 1595.9 -210.499C1536.45 -180.572 1474.98 -150.071 1412.13 -122.572C1307.04 -76.8685 1174.82 -29.5516 1087.49 -57.1135C1026.36 -76.378 1005.03 -157.222 1057.29 -154.528C1081.68 -153.277 1107.82 -110.013 1106.13 -61.8874C1104.46 -14.2044 1078.52 35.6109 1042.09 73.5516C993.473 124.185 933.179 157.387 870.064 171.499C761.626 195.783 645.332 164.786 559.239 68.4922C405.146 -103.208 239.372 -65.567 198.794 -1.79721C194.644 4.73558 193.358 12.1857 193.683 18.7425C194.944 45.3126 206.65 56.3179 218.267 59.5952C245.024 67.1393 276.221 40.4211 241.919 -35.5974C239.567 -40.7943 237.267 -47.8121 233.21 -55.6039C225.964 -87.3873 193.308 -118.15 123.456 -125.593C73.0788 -130.955 2.86366 -125.448 -66.0567 -79.3943C-89.6426 -63.6666 -111.979 -44.6284 -133.6 -22.888C-317.158 162.059 -887.212 251.637 -1121.36 -330.246M2310.79 80.8585C2223.61 -77.9067 2073.23 -295.754 1897.21 -325.605C1819.5 -338.776 1756.31 -302.789 1697.33 -263.343C1664.49 -241.245 1628.43 -218.446 1588.73 -196.775C1530.09 -164.771 1468.95 -133.077 1406.07 -105.345C1301.33 -59.4174 1167.28 -14.2537 1079.86 -47.8943C1018.67 -71.4216 998.679 -158.569 1056.26 -159.973C1083.56 -160.638 1113.15 -117.991 1113.55 -69.3646C1113.94 -21.1149 1089.16 29.9342 1053.5 69.0388C1005.83 121.314 946.046 156.241 883.122 171.944C774.622 199.04 657.158 169.942 570.533 73.2279C414.047 -100.868 244.295 -51.4512 208.178 16.1287C204.378 23.2403 203.507 31.0482 204.255 37.9852C207.314 66.0773 220.857 77.4924 234.432 80.0789C265.961 86.0666 302.347 49.5925 260.526 -31.3378C257.526 -37.1661 254.322 -44.6458 249.452 -52.8104C238.617 -86.0766 202.133 -114.45 130.513 -118.505C79.3596 -121.41 9.55605 -112.994 -59.462 -66.7691C-82.9953 -51.0409 -105.445 -32.1753 -127.308 -10.7306C-312.831 171.658 -913.092 237.038 -1110.11 -356.929M2313.71 68.4306C2223.84 -88.9918 2068.91 -305.198 1890.05 -328.338C1810.97 -338.56 1747.54 -298.097 1689.13 -254.915C1656.59 -230.733 1620.86 -206.165 1581.56 -183.013C1523.71 -148.953 1462.91 -116.049 1400 -88.0858C1295.61 -41.9166 1159.72 1.07136 1072.22 -38.6423C1010.97 -66.4157 992.432 -159.993 1055.23 -165.401C1085.5 -167.999 1118.5 -125.963 1120.98 -76.8363C1123.44 -27.9976 1099.82 24.2631 1064.93 64.5316C1018.2 118.464 958.929 155.102 896.196 172.395C787.643 202.324 669.015 175.109 581.852 77.9915C422.982 -98.4791 249.462 -37.4717 217.592 34.0658C214.165 41.7454 213.67 49.9166 214.878 57.2287C219.749 86.8096 235.153 98.6622 250.656 100.547C286.994 104.973 328.22 58.7837 279.185 -27.0776C275.5 -33.5321 271.43 -41.4792 265.726 -50.0056C251.317 -84.749 210.979 -110.761 137.592 -111.427C85.6681 -111.893 16.27 -100.55 -52.8363 -54.1324C-76.3016 -38.398 -98.8945 -19.7165 -120.986 1.43832C-308.473 181.268 -938.95 222.428 -1098.82 -383.595M2316.62 55.9803C2224.03 -100.088 2064.59 -314.664 1882.88 -331.077C1802.42 -338.35 1738.76 -293.428 1680.9 -246.498C1648.66 -220.238 1613.25 -193.895 1574.37 -169.278C1517.32 -133.163 1456.86 -99.0444 1393.92 -70.8487C1289.89 -24.4549 1152.15 16.3742 1064.55 -29.4181C1003.24 -61.4543 986.236 -161.511 1054.16 -170.841C1087.47 -175.426 1123.81 -133.947 1128.37 -84.3028C1132.91 -34.8917 1110.45 18.5805 1076.31 60.0072C1030.54 115.587 971.759 153.962 909.223 172.829C800.611 205.608 680.81 180.253 593.116 82.7156C431.868 -96.1457 254.718 -23.6855 226.945 51.9798C223.921 60.2388 223.772 68.7618 225.419 76.4598C232.085 107.524 249.373 119.803 266.796 121.002C307.971 123.839 353.766 68.005 297.767 -22.846C293.387 -29.9489 288.454 -38.3246 281.937 -47.2237C263.956 -83.4443 219.73 -107.144 144.624 -104.367C91.8836 -102.41 22.959 -88.1345 -46.2725 -41.5188C-69.6697 -25.7784 -92.3906 -7.27505 -114.726 13.5842C-304.176 190.855 -964.876 207.812 -1087.59 -410.285M2319.54 43.5357C2224.25 -111.196 2060.28 -324.108 1875.71 -333.832C1793.87 -338.14 1730.01 -288.769 1672.69 -238.109C1640.74 -209.77 1605.68 -181.67 1567.2 -155.555C1510.94 -117.368 1450.82 -82.0559 1387.84 -53.628C1284.17 -7.00947 1144.58 31.6773 1056.9 -20.2046C995.542 -56.5036 980.123 -163.111 1053.12 -176.309C1089.48 -182.892 1129.16 -141.974 1135.8 -91.8134C1142.41 -41.8299 1121.1 12.8707 1087.73 55.4613C1042.9 112.683 984.653 152.789 922.288 173.257C813.638 208.876 692.658 185.398 604.425 87.457C440.785 -93.8007 260.139 -10.0634 236.334 69.8891C233.711 78.6886 233.911 87.6024 236.012 95.692C244.464 128.217 263.644 140.945 282.989 141.459C329.016 142.712 379.194 77.2586 316.401 -18.6138C311.327 -26.3651 305.537 -35.1859 298.185 -44.4468C276.615 -82.1503 228.476 -103.566 151.677 -97.3168C98.1266 -92.954 29.648 -75.7187 -39.6657 -28.9266C-63.0104 -13.1856 -85.8439 5.14507 -108.423 25.7087C-299.837 200.421 -990.759 193.174 -1076.32 -436.996M2322.44 31.1018C2224.44 -122.276 2055.96 -333.535 1868.53 -336.554C1785.3 -337.897 1721.22 -284.066 1664.47 -229.671C1632.82 -199.253 1598.07 -169.384 1560.02 -141.799C1504.53 -101.562 1444.78 -65.0452 1381.77 -36.3685C1278.45 10.4747 1137.01 47.0025 1049.25 -10.9581C987.822 -51.5032 974.023 -164.744 1052.07 -181.743C1091.52 -190.33 1134.49 -149.952 1143.2 -99.2741C1151.9 -48.7348 1131.73 7.21047 1099.13 50.9649C1055.26 109.85 997.524 151.683 935.324 173.713C826.647 212.194 704.456 190.581 615.698 92.2035C449.674 -91.4284 265.611 3.3708 245.696 87.8256C243.488 97.1714 244.022 106.47 246.578 114.951C256.806 148.915 277.894 162.098 299.149 161.959C350.039 161.596 404.481 86.6103 335.001 -14.3379C329.227 -22.7211 322.586 -32.0031 314.416 -41.6203C289.272 -80.8009 237.189 -99.9446 158.722 -90.1952C104.314 -83.4434 36.3438 -63.2256 -33.0891 -16.2519C-56.3657 -0.504833 -79.3428 17.6417 -102.149 37.9155C-295.528 210.07 -1016.66 178.624 -1065.08 -463.646M2325.36 18.6572C2224.65 -133.367 2051.67 -342.951 1861.37 -339.309C1776.77 -337.681 1712.45 -279.413 1656.26 -221.265C1624.91 -188.763 1590.48 -157.132 1552.84 -128.058C1498.12 -85.7781 1438.75 -48.0344 1375.69 -19.1312C1272.72 27.9532 1129.46 62.3111 1041.59 -1.7282C980.113 -46.5361 967.962 -166.437 1051.03 -187.171C1093.58 -197.795 1139.84 -157.941 1150.63 -106.746C1161.41 -55.6341 1142.48 1.59006 1110.56 46.4577C1067.75 107.063 1010.42 150.565 948.398 174.164C839.693 215.506 716.313 195.748 627.023 96.9507C458.622 -89.0719 271.19 16.6564 255.111 105.763C253.33 115.622 254.176 125.316 257.186 134.189C269.175 169.586 292.203 183.235 315.357 182.421C371.106 180.458 429.706 95.9394 353.651 -10.1001C347.167 -19.1374 339.685 -28.8589 330.68 -38.8379C301.963 -79.4957 245.905 -96.3782 165.807 -83.1342C110.542 -73.9934 43.0699 -50.815 -26.4512 -3.64842C-49.6692 12.0826 -72.7651 30.0731 -95.821 50.0679C-291.164 219.663 -1042.52 164.014 -1053.78 -490.329M2328.26 6.2068C2224.85 -144.48 2047.38 -352.084 1854.2 -342.048C1768.23 -337.315 1703.67 -274.743 1648.03 -212.865C1616.98 -178.285 1582.85 -144.89 1545.67 -114.335C1491.71 -69.994 1432.71 -31.046 1369.63 -1.90495C1267.02 45.4041 1121.91 77.6031 1033.95 7.48518C972.411 -41.5855 961.909 -168.203 1049.99 -192.639C1095.66 -205.309 1145.26 -165.979 1158.05 -114.24C1170.97 -62.6048 1153.11 -4.12536 1121.96 41.9227C1080.08 104.147 1023.3 149.426 961.447 174.587C852.708 218.807 728.145 200.887 638.302 101.681C467.508 -86.7384 276.731 29.7591 264.485 123.666C263.131 134.038 264.299 144.151 267.764 153.415C281.514 190.245 306.463 204.409 331.534 202.871C392.148 199.386 454.835 105.29 372.264 -5.85717C365.069 -15.5485 356.746 -25.7094 346.922 -36.0446C314.617 -78.1852 254.574 -92.8289 172.855 -76.0681C116.702 -64.5496 49.7527 -38.3829 -19.8566 8.97662C-43.0065 24.7138 -66.2245 42.5096 -89.5299 62.2253C-286.837 229.262 -1068.4 149.392 -1042.52 -517.007M2331.18 -6.23781C2225.06 -155.571 2043.11 -361.644 1847.04 -344.798C1759.72 -337.166 1694.93 -270.079 1639.84 -204.454C1609.08 -167.795 1575.21 -132.688 1538.52 -100.606C1485.27 -54.2768 1426.69 -14.0462 1363.57 15.3214C1261.31 62.8551 1114.35 92.9117 1026.33 16.6877C964.73 -36.6457 955.906 -170.006 1048.97 -198.117C1097.76 -212.857 1150.59 -174.012 1165.5 -121.761C1180.46 -69.5486 1163.78 -9.8684 1133.4 37.3658C1092.47 101.21 1036.25 148.331 974.539 174.988C865.829 222.203 740.005 205.999 649.645 106.378C476.468 -84.4153 282.348 42.7021 273.918 141.554C272.998 152.422 274.471 162.947 278.385 172.62C293.895 210.883 320.78 225.474 347.755 223.3C413.242 218.127 479.958 114.657 390.91 -1.6579C383 -11.9867 373.841 -22.6038 363.182 -33.3008C327.298 -76.9021 263.225 -89.3238 179.936 -69.0457C122.864 -55.1609 56.4848 -25.9889 -13.2437 21.5522C-36.341 37.2899 -59.6871 54.9073 -83.2205 74.3331C-282.498 238.828 -1094.27 134.744 -1031.24 -543.734M2334.08 -18.6718C2225.25 -166.651 2038.82 -371.193 1839.85 -347.526C1751.16 -336.978 1686.12 -265.382 1631.6 -196.021C1557.14 -101.317 1464.34 -17.5127 1357.46 32.586C1255.58 80.35 1106.75 108.242 1018.63 25.9392C956.973 -31.6403 949.823 -171.783 1047.88 -203.529C1099.8 -220.35 1155.85 -181.979 1172.87 -129.2C1189.89 -76.4211 1174.34 -15.5347 1144.76 32.8913C1034.02 214.11 803.222 267.772 660.89 111.152C466.145 -103.136 244.458 89.6243 288.929 191.89C351.99 336.924 569.851 153.03 379.407 -30.4578C304.09 -116.519 124.295 -75.3963 -76.9473 86.5402C-278.189 248.477 -1120.18 120.188 -1020.01 -570.368M2333.28 -29.8159C2227.96 -173.014 2044.14 -362.354 1845.66 -333.612C1758.45 -320.981 1693.89 -250.543 1639.46 -181.712C1565.16 -87.7931 1472.91 -4.61499 1366.86 45.5633C1265.47 93.5643 1118.51 121.855 1030.13 42.744C968.217 -12.6016 958.998 -148.246 1051.53 -179.517C1072.52 -186.622 1094.24 -183.945 1113.4 -174.565C1138.96 -162.111 1159.94 -137.82 1168.56 -109.024C1183.84 -58.5136 1167.38 -0.309339 1137.55 46.0552C1026.02 219.362 797.652 271.364 654.845 119.788C461.391 -85.5429 242.829 101.66 282.382 202.857C338.323 346.017 547.247 168.236 359.129 -9.07043C281.943 -92.0433 105.45 -50.0495 -95.3718 102.337C-300.2 257.742 -1126.38 119.645 -1025.12 -562.045M2332.46 -40.9441C2230.66 -179.383 2049.53 -353.571 1851.45 -319.666C1765.77 -304.995 1701.66 -235.649 1647.28 -167.36C1573.15 -74.2254 1481.44 8.34314 1376.22 58.5622C1275.35 106.789 1130.21 135.468 1041.58 59.548C979.424 6.44208 968.137 -124.704 1055.15 -155.483C1074.86 -162.494 1095.27 -160.05 1113.2 -151.197C1137.16 -139.438 1156.6 -116.273 1164.22 -88.8208C1177.64 -40.5136 1160.4 14.9105 1130.3 59.2411C1018 224.609 792.101 275 648.772 128.45C456.716 -67.9222 241.147 113.601 275.807 213.851C324.609 354.998 524.622 183.452 338.817 12.3607C259.768 -67.5404 86.3242 -24.7494 -113.84 118.155C-322.501 267.127 -1132.61 119.129 -1030.29 -553.689M2331.67 -52.0829C2233.38 -185.746 2055.01 -344.864 1857.27 -305.747C1773.11 -289.091 1709.46 -220.782 1655.15 -153.029C1581.17 -60.6849 1490.01 21.2797 1385.62 71.5395C1285.26 120.009 1141.96 149.081 1053.07 76.3304C990.659 25.4584 977.303 -101.19 1058.79 -131.476C1077.21 -138.377 1096.31 -136.189 1113.01 -127.84C1135.38 -116.759 1153.34 -94.7373 1159.91 -68.6448C1171.52 -22.5737 1153.47 30.1083 1123.09 72.4049C1010.04 229.823 786.65 278.653 642.727 137.086C452.148 -50.3557 239.458 125.371 269.27 224.84C310.919 363.818 502.044 198.685 318.548 33.7701C237.615 -43.0483 66.9836 0.415919 -132.255 133.974C-345.006 276.587 -1138.79 118.591 -1035.4 -545.35M2330.86 -63.2274C2236.08 -192.115 2060.52 -336.256 1863.07 -291.817C1780.46 -273.227 1717.22 -205.91 1663 -138.705C1589.19 -47.1447 1498.57 34.1939 1395 84.5276C1295.15 133.223 1153.68 162.699 1064.53 93.1238C1001.89 44.4914 986.447 -77.6649 1062.42 -107.453C1079.56 -114.261 1097.35 -112.328 1112.83 -104.482C1133.62 -94.0915 1150.06 -73.2068 1155.6 -48.4688C1165.41 -4.63376 1146.54 45.2899 1115.86 85.5634C1002.11 234.993 781.25 282.308 636.666 145.716C447.682 -32.8268 237.724 136.973 262.707 235.802C297.248 372.44 479.424 213.885 298.249 55.1681C215.446 -18.5619 47.3605 25.4403 -150.711 149.76C-367.81 286.051 -1145.01 118.042 -1040.55 -537.043M2330.05 -74.3552C2238.78 -198.467 2066.08 -327.709 1868.87 -277.887C1787.82 -257.412 1725 -191.049 1670.85 -124.363C1597.2 -33.6042 1507.11 47.1356 1404.39 97.5213C1305.06 146.443 1165.42 176.328 1076.03 109.928C1013.13 63.5299 995.692 -53.9337 1066.08 -83.4402C1081.95 -90.0935 1098.42 -88.4549 1112.66 -81.1185C1131.86 -71.4234 1146.81 -51.687 1151.31 -28.2647C1159.31 13.3286 1139.63 60.4994 1108.68 98.7555C994.275 240.175 775.96 286.002 630.668 154.369C443.374 -15.2967 236.06 148.433 256.222 246.791C283.707 380.903 456.883 229.112 278.027 76.5945C193.361 5.93632 27.5665 50.308 -169.079 165.595C-390.797 295.579 -1151.16 117.538 -1045.62 -528.67M2329.24 -85.4997C2241.48 -204.836 2071.71 -319.266 1874.67 -263.958C1795.2 -241.647 1732.76 -176.177 1678.68 -110.028C1605.2 -20.0533 1515.65 60.0772 1413.76 110.504C1314.92 159.662 1177.13 189.941 1087.49 126.716C1024.34 82.5568 1004.84 -30.3699 1069.7 -59.4228C1084.29 -65.9604 1099.44 -64.5995 1112.45 -57.7725C1130.07 -48.767 1143.5 -30.1681 1146.97 -8.10034C1153.16 31.2347 1132.69 75.6584 1101.44 111.908C986.423 245.295 770.691 289.684 624.592 162.993C439.095 2.15036 234.342 159.704 249.644 257.747C270.16 389.138 434.264 244.312 257.733 97.9758C171.198 30.406 7.44588 74.9624 -187.535 181.381C-414.133 305.053 -1157.39 116.983 -1050.75 -520.359M2328.43 -96.6275C2244.17 -211.188 2077.35 -310.911 1880.49 -250.022C1802.59 -225.931 1740.55 -161.293 1686.55 -95.6969C1613.22 -6.51284 1524.23 72.9972 1423.16 123.481C1324.84 172.866 1189.01 203.339 1098.97 143.515C1035.66 101.436 1014.03 -6.78877 1073.33 -35.3996C1086.64 -41.8271 1100.48 -40.7216 1112.26 -34.3983C1128.29 -26.0881 1140.21 -8.64321 1142.65 12.1089C1147.01 49.18 1125.78 90.8457 1094.2 125.1C978.632 250.439 765.508 293.418 618.535 171.662C434.96 19.5937 232.663 170.821 243.085 268.747C256.758 397.22 411.649 259.55 237.437 119.413C149.033 54.9313 -12.8984 99.4601 -205.972 197.211C-437.701 314.538 -1163.58 116.479 -1055.89 -512.008M2327.62 -107.772C2246.87 -217.557 2083.03 -302.657 1886.29 -236.092C1809.98 -210.276 1748.31 -146.421 1694.4 -81.3555C1621.23 7.04408 1532.78 85.9447 1432.55 136.491C1334.74 186.119 1200.74 216.963 1110.45 160.33C1046.91 120.475 1023.22 16.8092 1076.98 -11.3703C1089.02 -17.6821 1101.52 -16.8379 1112.09 -11.035C1126.55 -3.41436 1136.94 12.8708 1138.36 32.2906C1140.89 67.0979 1118.93 106 1087 138.269C970.959 255.551 760.444 297.12 612.505 180.303C430.959 36.9551 231.088 181.75 236.563 279.742C243.564 405.115 389.07 274.783 217.184 140.828C126.917 79.4184 -33.4362 123.718 -224.387 213.029C-461.495 323.92 -1169.77 115.941 -1061 -503.652M2326.81 -118.9C2249.57 -223.926 2088.73 -294.507 1892.09 -222.162C1817.36 -194.677 1756.09 -131.56 1702.25 -67.0142C1629.24 20.6008 1541.33 98.8919 1441.93 149.479C1344.63 199.333 1212.49 230.554 1121.92 177.123C1058.13 139.485 1032.4 40.3844 1080.6 12.6471C1091.36 6.45109 1102.56 7.02334 1111.89 12.3334C1124.75 19.2753 1133.63 34.3898 1134.02 52.494C1134.72 85.015 1112.04 121.176 1079.76 151.461C963.317 260.673 755.425 300.838 606.432 188.966C427.061 54.2783 229.552 192.524 229.988 290.736C230.543 412.829 366.439 290.016 196.872 162.259C104.736 103.938 -54.2261 147.752 -242.839 228.854C-485.559 333.222 -1175.98 115.431 -1066.15 -495.307M2326 -130.045C2252.27 -230.295 2094.45 -286.484 1897.9 -208.249C1824.75 -179.133 1763.87 -116.699 1710.11 -52.7057C1637.27 34.1083 1549.9 111.79 1451.32 162.434C1354.54 212.514 1224.22 244.122 1133.41 193.889C1069.39 158.474 1041.62 63.938 1084.26 36.6429C1093.75 30.5626 1103.62 30.8736 1111.73 35.6799C1123.01 41.9322 1130.36 55.8651 1129.73 72.6592C1128.58 102.888 1105.23 136.309 1072.56 164.608C955.776 265.758 750.53 304.508 600.409 197.591C423.331 71.4761 228.188 203.118 223.463 301.693C217.788 420.341 343.873 305.216 176.616 183.635C82.6101 128.402 -75.1543 171.491 -261.258 244.634C-509.814 342.323 -1182.18 114.871 -1071.25 -487M2325.19 -141.172C2254.97 -236.647 2100.16 -278.555 1903.69 -194.303C1832.13 -163.612 1771.62 -101.811 1717.93 -38.3536C1645.25 47.6702 1558.43 124.748 1460.68 175.45C1364.39 225.766 1235.92 257.735 1144.85 210.71C1080.58 177.528 1050.82 87.5576 1087.86 60.6711C1096.08 54.7066 1104.62 54.7565 1111.51 59.0425C1121.2 64.5994 1127.03 77.3395 1125.38 92.8567C1122.39 120.761 1098.38 151.48 1065.31 177.794C948.264 270.91 745.672 308.172 594.327 206.232C419.669 88.5859 226.918 213.595 216.894 312.67C205.25 427.744 321.248 320.432 156.31 205.05C60.4352 152.905 -96.304 195.018 -279.71 260.458C-534.298 351.284 -1188.39 114.36 -1076.4 -478.656M2324.39 -152.311C2257.69 -243.01 2105.88 -270.737 1909.52 -180.384C1839.53 -148.178 1779.42 -86.9437 1725.8 -24.0229C1653.28 61.2163 1567 137.684 1470.09 188.433C1374.32 238.976 1247.68 271.331 1156.35 227.514C1091.83 196.551 1060.08 111.145 1091.51 84.7003C1098.47 78.8572 1105.69 78.6292 1111.32 82.4167C1119.44 87.284 1123.74 98.8091 1121.06 113.049C1116.24 138.596 1091.57 166.652 1058.09 190.975C940.888 276.074 740.962 311.816 588.291 214.89C416.189 105.631 225.859 223.981 210.357 323.66C193.029 435.095 298.654 335.659 136.035 226.476C38.2975 177.403 -117.557 218.3 -298.141 276.271C-558.966 360.028 -1194.6 113.833 -1081.53 -470.305M2323.58 -163.439C2260.4 -249.357 2111.57 -263.041 1915.31 -166.438C1846.88 -132.762 1787.17 -72.0552 1733.65 -9.68155C1661.29 74.7731 1575.54 150.61 1479.47 201.421C1384.21 252.206 1259.4 284.933 1167.82 244.308C1103.06 215.567 1069.34 134.694 1095.15 108.723C1100.85 102.985 1106.72 102.507 1111.14 105.774C1117.66 109.947 1120.47 120.245 1116.74 133.242C1110.11 156.397 1084.81 181.818 1050.86 204.149C933.568 281.277 736.329 315.394 582.224 223.536C412.81 122.544 224.981 234.302 203.798 334.66C181.059 442.387 276.053 350.904 115.745 247.896C16.1381 201.912 -138.955 241.305 -316.577 292.101C-583.791 368.526 -1200.8 113.307 -1086.66 -461.954M2322.77 -174.584C2263.1 -255.726 2117.22 -255.473 1921.12 -152.524C1854.24 -117.418 1794.95 -57.2107 1741.51 4.64326C1669.31 88.3134 1584.1 163.54 1488.85 214.409C1394.1 265.421 1271.13 298.535 1179.31 261.107C1114.29 234.6 1078.65 158.242 1098.79 132.73C1103.24 127.097 1107.76 126.369 1110.95 129.132C1115.89 132.609 1117.22 141.655 1112.43 153.418C1104.02 174.138 1078.07 196.996 1043.65 217.314C926.372 286.526 731.81 318.901 576.195 232.177C409.584 139.326 224.341 244.598 197.266 345.633C169.385 449.638 253.471 366.098 95.492 269.311C-5.98413 226.415 -160.419 264.06 -334.993 307.92C-608.742 376.697 -1206.98 112.791 -1091.77 -453.615M2321.96 -185.712C2265.8 -262.095 2122.82 -247.999 1926.91 -138.578C1861.56 -102.084 1802.72 -42.3165 1749.35 19.0012C1677.31 101.865 1592.64 176.504 1498.23 227.413C1403.99 278.668 1282.84 312.169 1190.77 277.916C1125.5 253.643 1087.97 181.736 1102.42 156.77C1105.62 151.225 1108.8 150.246 1110.76 152.506C1114.12 155.31 1113.98 163.069 1108.12 173.611C1097.97 191.874 1071.35 212.196 1036.41 230.488C919.235 291.852 727.368 322.343 570.128 240.824C406.46 155.975 223.915 254.934 190.698 356.61C157.94 456.935 230.846 381.314 75.1925 290.709C-28.1467 250.885 -182.006 286.525 -353.433 323.711C-633.819 384.539 -1213.2 112.242 -1096.9 -445.281M2321.15 -196.856C2268.5 -268.463 2128.38 -240.67 1932.72 -124.665C1868.9 -86.8232 1810.49 -27.4609 1757.18 33.3205C1685.31 115.399 1601.19 189.413 1507.62 240.385C1413.87 291.86 1294.56 325.771 1202.24 294.693C1136.72 272.654 1097.31 205.108 1106.04 180.771C1108.01 175.298 1109.84 174.108 1110.57 175.858C1112.33 177.966 1110.78 184.44 1103.79 193.797C1091.98 209.615 1064.63 227.418 1029.18 243.663C912.167 297.279 723.036 325.674 564.062 249.47C403.442 172.476 223.69 265.344 184.145 367.594C146.728 464.317 208.252 396.541 54.9024 312.13C-50.3059 275.394 -203.641 308.786 -371.885 339.535C-659.01 392.021 -1219.41 111.732 -1102.04 -436.936M2320.34 -207.984C2271.19 -274.816 2133.87 -233.424 1938.51 -110.718C1876.18 -71.5626 1818.26 -12.5668 1765.03 47.6618C1693.32 128.956 1609.74 202.36 1517 253.373C1423.77 305.074 1306.28 339.373 1213.71 311.503C1147.92 291.698 1106.57 228.413 1109.68 204.794C1110.4 199.37 1110.87 197.985 1110.38 199.215C1110.57 200.634 1107.62 205.844 1099.48 213.973C1086.09 227.352 1057.94 242.668 1021.97 256.827C905.174 302.79 718.821 328.88 558.038 258.095C400.597 188.796 223.766 275.845 177.613 378.567C135.733 471.778 185.664 411.752 34.6337 333.539C-72.4437 299.891 -225.285 330.78 -390.294 355.337C-684.185 399.077 -1225.59 111.194 -1107.15 -428.613M2319.53 -219.128C2273.9 -281.185 2139.28 -226.317 1944.32 -96.805C1883.47 -56.3737 1826.03 2.27227 1772.89 61.9868C1701.32 142.491 1618.3 215.291 1526.38 266.361C1433.66 318.305 1318 352.991 1225.17 328.296C1159.14 310.725 1115.7 251.634 1113.3 228.812C1112.72 223.421 1111.89 221.841 1110.16 222.578C1108.76 223.302 1104.47 227.287 1095.12 234.171C1080.21 245.173 1051.24 257.951 1014.71 269.991C898.191 308.417 714.661 331.936 551.941 266.73C397.775 204.956 223.955 286.519 171.014 389.533C124.841 479.39 163.008 426.957 14.3031 354.926C-94.6375 324.35 -247.001 352.542 -408.771 371.134C-709.46 405.684 -1231.83 110.639 -1112.33 -420.279M2318.72 -230.256C2276.59 -287.537 2144.61 -219.316 1950.11 -82.8585C1890.71 -41.1852 1833.79 17.1666 1780.73 76.3449C1709.33 156.064 1626.85 228.238 1535.77 279.372C1443.56 331.541 1329.72 366.648 1236.67 345.117C1170.37 329.78 1124.73 274.948 1116.96 252.863C1115.08 247.521 1112.97 245.753 1110.01 245.964C1107.02 245.998 1101.39 248.797 1090.85 254.381C1074.43 263.083 1044.61 273.302 1007.54 283.189C891.326 314.2 710.669 334.867 545.951 275.405C395.149 220.963 224.457 297.44 164.538 400.545C114.176 487.198 140.492 442.213 -5.90963 376.375C-116.719 348.887 -268.567 374.134 -427.146 386.986C-734.605 411.888 -1237.98 110.152 -1117.4 -411.906M2317.93 -241.395C2279.31 -293.9 2149.87 -212.416 1955.94 -68.9397C1897.95 -26.0524 1841.59 32.0331 1788.59 90.6529C1717.36 169.571 1635.42 241.153 1545.16 292.327C1453.46 344.739 1341.45 380.233 1248.15 361.877C1181.59 348.791 1133.69 298.311 1120.59 276.831C1117.37 271.56 1114 269.575 1109.82 269.283C1105.24 268.621 1098.28 270.296 1086.53 274.534C1068.59 281.008 1037.96 288.64 1000.32 296.33C884.422 320.043 706.706 337.527 539.897 284.018C392.519 236.742 225.063 308.51 157.982 411.49C103.528 495.105 117.879 457.396 -26.1971 397.739C-138.876 373.34 -290.178 395.464 -445.574 402.744C-759.752 417.472 -1244.18 109.569 -1122.5 -403.622M2317.11 -252.523C2282 -300.252 2155 -205.622 1961.73 -54.9934C1905.15 -10.8977 1849.34 46.9218 1796.43 105.011C1725.36 183.145 1643.95 254.111 1554.53 305.348C1463.33 357.98 1353.15 393.901 1259.6 378.704C1192.81 367.857 1142.61 321.851 1124.22 300.887C1119.67 295.715 1115.03 293.47 1109.62 292.69C1103.47 291.339 1095.15 291.916 1082.21 294.76C1062.72 299.056 1031.29 304.084 993.072 309.539C877.467 326.075 702.783 340.032 533.818 292.698C389.943 252.373 225.786 319.887 151.416 422.507C92.8995 503.246 95.2573 472.651 -46.4993 419.193C-161.047 397.882 -311.747 416.679 -464.039 418.601C-784.821 422.652 -1250.41 109.092 -1127.67 -395.227M2316.31 -263.668C2284.71 -306.638 2160.03 -198.917 1967.54 -41.08C1912.32 4.19052 1857.13 61.7662 1804.28 119.336C1733.37 196.679 1652.51 267.025 1563.91 318.319C1473.23 371.194 1364.86 407.519 1271.07 395.497C1204.02 386.901 1151.61 345.397 1127.84 324.905C1121.97 319.848 1116.05 317.342 1109.42 316.042C1101.67 314.012 1091.98 313.503 1077.87 314.947C1056.78 317.097 1024.6 319.523 985.84 322.713C870.497 332.194 698.91 342.255 527.773 301.334C387.416 267.777 226.625 331.474 144.863 433.49C82.3002 511.546 72.6632 487.878 -66.774 440.619C-183.185 422.38 -333.206 437.69 -482.454 434.42C-809.709 427.242 -1256.6 108.571 -1132.78 -386.887M2315.5 -274.812C2287.41 -313.006 2164.95 -192.313 1973.34 -27.1667C1919.47 19.273 1864.9 76.6219 1812.14 133.644C1741.39 210.203 1661.07 279.939 1573.32 331.28C1483.15 384.381 1376.6 421.126 1282.58 412.269C1215.27 405.923 1160.68 368.971 1131.52 348.89C1124.34 343.954 1117.14 341.187 1109.28 339.377C1099.96 336.658 1088.84 335.085 1073.61 335.101C1050.88 335.133 1017.95 334.994 978.672 335.856C863.534 338.392 695.142 344.142 521.771 309.948C384.951 282.96 227.579 343.273 138.359 444.435C71.7421 519.975 50.1029 503.062 -87.0089 461.984C-205.289 446.834 -354.524 458.509 -500.851 450.189C-834.379 431.236 -1262.75 107.989 -1137.87 -378.597M2314.68 -285.94C2290.1 -319.359 2169.74 -185.771 1979.14 -13.2205C1926.57 34.3547 1872.66 91.5161 1819.98 148.002C1749.4 223.777 1669.62 292.903 1582.69 344.301C1493.03 397.629 1388.32 434.8 1294.04 429.095C1226.48 425.005 1169.74 392.595 1135.13 372.94C1126.64 368.125 1118.16 365.076 1109.05 362.757C1098.14 359.342 1085.6 356.704 1069.25 355.316C1044.84 353.212 1011.2 350.543 971.397 349.052C856.39 344.748 691.271 345.784 515.677 318.622C382.377 298.01 228.456 355.381 131.779 455.446C61.0622 528.64 27.4656 518.311 -107.327 483.432C-227.492 471.364 -375.802 479.267 -519.315 466.047C-858.889 434.744 -1268.99 107.506 -1143.02 -370.197M2313.88 -297.085C2292.82 -325.722 2174.4 -179.319 1984.94 0.692716C1933.67 49.4143 1880.43 106.371 1827.82 162.321C1757.4 237.295 1678.17 305.812 1592.06 357.267C1502.9 410.831 1400.01 448.429 1305.5 445.866C1237.67 444.027 1178.81 416.17 1138.75 396.942C1128.97 392.253 1119.18 388.931 1108.86 386.109C1096.35 381.999 1082.37 378.307 1064.92 375.486C1038.81 371.258 1004.45 366.091 964.171 362.211C849.217 351.131 687.424 347.022 509.616 327.252C379.789 312.81 229.377 367.656 125.216 466.408C50.3302 537.4 4.86187 533.516 -127.621 504.814C-249.648 495.818 -396.94 499.833 -537.765 481.815C-883.131 437.618 -1275.2 106.941 -1148.17 -361.908M2313.06 -308.212C2295.52 -332.074 2178.92 -172.912 1990.74 14.6392C1940.72 64.4959 1888.2 121.249 1835.67 176.663C1765.4 250.846 1686.72 318.759 1601.46 370.261C1512.81 424.051 1411.75 462.092 1316.98 462.665C1248.91 463.082 1187.91 439.772 1142.39 420.948C1131.32 416.37 1120.23 412.798 1108.68 409.45C1094.6 404.65 1079.16 399.899 1060.61 395.662C1032.79 389.304 997.694 381.673 956.96 375.375C841.969 357.581 683.532 347.905 503.587 335.893C377.172 327.449 230.303 380.158 118.685 477.38C39.5596 546.313 -17.7197 548.71 -147.889 526.223C-271.786 520.315 -417.902 520.35 -556.18 497.634C-907.012 439.986 -1281.39 106.42 -1153.28 -353.568M2312.26 -319.357C2298.22 -338.443 2183.32 -166.573 1996.55 28.5524C1947.74 79.5494 1895.98 136.11 1843.52 190.987C1773.42 264.386 1695.28 331.69 1610.84 383.233C1522.7 437.266 1423.47 475.881 1328.45 479.458C1260.12 482.259 1197.03 463.364 1146.03 444.971C1133.65 440.514 1121.27 436.659 1108.49 432.824C1092.81 427.329 1075.91 421.496 1056.3 415.854C1026.73 407.338 990.885 397.293 949.728 388.55C834.596 364.079 679.522 348.389 497.52 344.539C374.384 341.932 231.153 392.819 112.126 488.38C28.6815 555.376 -40.3355 563.949 -168.185 547.66C-293.951 544.84 -438.734 540.803 -574.639 513.475C-930.591 441.865 -1287.62 105.92 -1158.44 -345.19M2311.46 -330.479C2300.93 -344.806 2187.59 -160.279 2002.36 42.5046C1954.74 94.6305 1903.75 151.005 1851.38 205.351C1781.44 277.966 1703.84 344.643 1620.23 396.259C1532.6 450.518 1435.21 489.544 1339.94 496.296C1271.37 501.336 1206.18 486.983 1149.67 469.034C1136.01 464.692 1122.31 460.576 1108.31 456.22C1091.05 450.052 1072.69 443.121 1051.99 436.069C1020.68 425.395 984.064 412.946 942.52 401.752C827.163 370.648 675.392 348.529 491.485 353.197C371.499 356.248 231.957 405.652 105.588 499.37C17.7362 564.526 -62.9139 579.182 -188.454 569.069C-316.083 569.322 -459.363 561.179 -593.047 529.277C-953.729 443.21 -1293.79 105.372 -1163.54 -336.867M2310.65 -341.624C2303.63 -351.175 2191.72 -154.02 2008.16 56.4177C1961.71 109.683 1911.53 165.866 1859.22 219.654C1789.45 291.484 1712.39 357.551 1629.6 409.208C1542.49 463.71 1446.92 503.123 1351.4 513.05C1282.58 520.324 1215.26 510.618 1153.3 493.001C1138.35 488.803 1123.35 484.399 1108.12 479.539C1089.28 472.675 1069.43 464.657 1047.67 456.223C1014.61 443.385 977.203 428.565 935.285 414.888C819.596 377.15 671.032 348.19 485.43 361.81C368.426 370.402 232.685 418.55 99.0474 510.32C6.69879 573.736 -85.5113 594.37 -208.716 590.462C-338.215 593.803 -479.81 581.491 -611.472 545.074C-976.502 444.088 -1299.99 104.828 -1168.64 -328.544M2309.84 -352.752C2306.33 -357.527 2195.7 -147.795 2013.96 70.3639C1968.63 124.775 1919.29 180.738 1867.07 234.012C1797.44 305.035 1720.92 370.51 1638.99 422.219C1552.38 476.941 1458.66 516.769 1362.88 529.866C1293.82 539.379 1224.42 534.166 1156.93 517.041C1140.69 512.936 1124.4 508.282 1107.92 502.907C1087.5 495.354 1066.16 486.248 1043.34 476.41C1008.52 461.408 970.283 444.2 928.052 428.063C811.927 383.689 666.454 347.49 479.364 370.457C365.137 384.476 233.306 431.597 92.4788 521.298C-4.46496 583.05 -108.136 609.586 -229.016 611.86C-360.383 618.289 -500.114 601.798 -629.912 560.865C-998.861 444.555 -1306.19 104.285 -1173.78 -320.232M2309.03 -363.896C2309.03 -363.896 1763.42 744.062 1107.73 526.281C904.666 450.209 633.611 208.133 85.9352 532.304C-461.747 856.491 -1399.21 374.053 -1178.92 -311.848M2602.17 330.337C2602.17 330.337 2142.01 -130.962 1871.33 304.195C1688.22 598.563 1636.15 856.276 1466.74 964.399C1324.36 1055.28 1090.03 960.286 985.284 875.275C839.253 756.755 748.256 472.696 592.44 367.936C266.722 148.961 -294.659 741.212 -116.789 1269.55M2600.26 336.43C2600.26 336.43 2146.01 -117.298 1874.59 302.159C1691.28 585.455 1635.25 835.355 1465.42 943.214C1433.25 963.68 1396.48 974.881 1357.62 979.068C1333.16 981.713 1307.95 981.622 1282.56 979.327C1170.89 969.263 1055.48 915.673 989.785 865.718C844.034 755.221 751.692 483.526 596.383 383.719C273.019 174.597 -279.15 745.144 -118.71 1244.35M2598.35 342.508C2598.35 342.508 2150.04 -103.678 1877.85 300.124C1694.36 572.337 1634.34 814.434 1464.11 922.013C1432.18 942.248 1395.79 953.608 1357.4 958.247C1333.22 961.183 1308.34 961.549 1283.33 959.827C1173.32 952.302 1059.77 902.566 994.287 856.161C848.837 753.676 754.876 494.808 600.333 399.487C278.788 201.147 -263.62 749.066 -120.626 1219.14M2596.42 348.579C2596.42 348.579 2154.09 -90.0902 1881.09 298.084C1697.45 559.185 1633.42 793.508 1462.78 900.823C1431.07 920.838 1395.09 932.346 1357.16 937.438C1333.26 940.68 1308.72 941.492 1284.11 940.328C1175.75 935.325 1064.05 889.453 998.779 846.581C853.609 752.119 758.202 505.843 604.268 415.249C284.853 227.224 -248.105 752.982 -122.556 1193.92M2594.51 354.673C2594.51 354.673 2158.2 -76.4967 1884.35 296.049C1700.59 546.034 1632.52 772.587 1461.47 879.638C1429.99 899.44 1394.38 911.084 1356.94 916.617C1333.32 920.15 1309.12 921.425 1284.9 920.834C1178.22 918.377 1068.45 876.164 1003.28 837.024C858.647 750.173 761.538 516.9 608.217 431.016C290.956 253.296 -232.59 756.898 -124.471 1168.7M2592.59 360.744C2592.59 360.744 2162.35 -62.964 1887.58 294.002C1703.73 532.844 1631.58 751.633 1460.12 858.442C1428.86 878.024 1393.66 889.816 1356.69 895.802C1333.34 899.642 1309.48 901.362 1285.64 901.323C1180.62 901.388 1072.73 862.995 1007.76 827.438C863.446 748.494 764.871 527.918 612.136 446.772C297.049 279.345 -217.091 760.808 -126.418 1143.48M2590.68 366.821C2590.68 366.821 2166.56 -49.4469 1890.84 291.967C1706.94 519.677 1630.68 730.712 1458.8 837.257C1427.79 856.609 1392.96 868.56 1356.46 874.998C1333.38 879.123 1309.88 881.311 1286.42 881.846C1183.07 884.455 1077.03 849.854 1012.25 817.897C868.263 746.861 768.238 538.986 616.08 462.556C303.209 305.4 -201.582 764.741 -128.361 1118.29M2588.76 372.915C2588.76 372.915 2170.85 -35.9406 1894.1 289.932C1710.18 506.488 1629.77 709.791 1457.49 816.056C1426.72 835.195 1392.28 847.286 1356.24 854.177C1333.44 858.609 1310.27 861.238 1287.21 862.352C1185.53 867.484 1081.34 836.697 1016.76 808.323C873.071 745.205 771.624 550.004 620.03 478.323C309.398 331.428 -186.051 768.663 -130.276 1093.08M2586.84 378.986C2586.84 378.986 2175.17 -22.4781 1897.34 287.891C1713.47 493.277 1628.85 688.865 1456.16 794.866C1425.61 813.785 1391.57 826.025 1356 833.368C1333.48 838.09 1310.65 841.182 1287.97 842.847C1187.95 850.524 1085.59 823.54 1021.24 798.76C877.858 743.561 775.009 561.023 623.964 494.085C315.598 357.423 -170.53 772.562 -132.207 1067.86M2584.92 385.08C2584.92 385.08 2179.59 -8.99803 1900.6 285.873C1716.82 480.106 1627.75 667.588 1454.84 773.697C1424.48 792.33 1390.87 804.784 1355.78 812.564C1333.53 817.593 1311.04 821.131 1288.76 823.369C1190.4 833.569 1089.89 810.399 1025.74 789.219C882.633 741.949 778.404 572.063 627.902 509.885C321.846 383.435 -155.027 776.511 -134.134 1042.67M2583 391.151C2583 391.151 2184.07 4.44918 1903.83 283.81C1720.2 466.874 1626.82 646.6 1453.5 752.485C1423.38 770.887 1390.14 783.439 1355.53 791.732C1333.54 797.007 1311.42 801.052 1289.52 803.847C1192.84 816.592 1094.16 797.224 1030.22 779.617C887.394 740.276 781.813 583.015 631.833 525.608C328.098 409.337 -139.516 780.388 -136.068 1017.42M2581.09 397.228C2581.09 397.228 2188.66 17.8973 1907.09 281.774C1723.66 453.687 1625.91 625.657 1452.18 731.3C1422.28 749.483 1389.46 762.166 1355.3 770.928C1333.59 776.493 1311.81 781.001 1290.29 784.364C1195.26 799.648 1098.41 784.106 1034.72 770.076C892.147 738.675 785.251 594.034 635.771 541.409C334.4 435.294 -124.013 784.338 -137.996 992.235M2579.18 403.322C2579.18 403.322 2193.32 31.3739 1910.34 279.756C1727.18 440.522 1624.99 604.731 1450.87 710.115C1421.21 728.068 1388.75 740.904 1355.08 750.124C1333.64 755.996 1312.2 760.888 1291.08 764.887C1197.69 782.499 1102.69 770.976 1039.22 760.519C896.906 737.058 788.707 605.003 639.72 557.176C340.727 461.185 -108.483 788.259 -139.911 967.021M2577.25 409.394C2577.25 409.394 2198.08 44.8462 1913.59 277.715C1730.75 427.359 1624.06 583.782 1449.54 688.925C1420.1 706.659 1388.04 719.641 1354.84 729.315C1333.67 735.471 1312.58 740.832 1291.85 745.388C1200.12 765.523 1106.96 757.841 1043.7 750.956C901.622 735.462 792.148 615.967 643.649 572.954C347.081 487.048 -92.974 792.192 -141.847 941.817M2575.34 415.487C2575.34 415.487 2202.95 58.3801 1916.84 275.68C1734.41 414.245 1623.14 562.856 1448.22 667.74C1419.02 685.26 1387.35 698.385 1354.62 708.494C1333.72 714.958 1312.98 720.764 1292.63 725.888C1202.55 748.562 1111.2 744.716 1048.2 741.376C906.36 733.856 795.622 626.887 647.589 588.699C353.46 512.846 -77.4684 796.086 -143.772 916.581M2573.41 421.559C2573.41 421.559 2207.92 71.9479 1920.07 273.633C1738.1 401.143 1622.21 541.907 1446.87 646.544C1417.9 663.828 1386.63 677.117 1354.37 687.679C1333.75 694.433 1313.33 700.696 1293.38 706.383C1204.97 731.58 1115.44 731.591 1052.68 731.813C911.063 732.293 799.097 637.806 651.518 604.478C359.844 538.627 -61.9595 800.018 -145.724 891.371M2571.51 427.636C2571.51 427.636 2213 85.5779 1923.33 271.598C1741.88 388.114 1621.31 520.986 1445.56 625.359C1416.82 642.43 1385.94 655.86 1354.14 666.875C1333.78 673.93 1313.73 680.645 1294.17 686.905C1207.41 714.641 1119.71 718.495 1057.18 722.256C915.798 730.742 802.598 648.699 655.467 620.245C366.269 564.347 -46.4448 803.934 -147.646 866.174M2569.59 433.73C2569.59 433.73 2218.18 99.3361 1926.59 269.563C1745.75 375.152 1620.39 500.06 1444.25 604.158C1415.73 621.009 1385.23 634.582 1353.92 646.055C1333.84 653.4 1314.13 660.578 1294.95 667.389C1209.85 697.648 1123.97 705.376 1061.68 712.676C920.511 729.202 806.097 659.552 659.402 636.007C372.717 590.001 -30.9238 807.834 -149.577 840.954M2567.67 439.801C2567.67 439.801 2223.43 113.178 1929.84 267.522C1749.65 362.24 1619.49 479.139 1442.92 582.968C1414.64 599.588 1384.53 613.319 1353.68 625.245C1333.88 632.897 1314.51 640.521 1295.72 647.906C1212.28 680.704 1128.21 692.29 1066.18 703.118C925.249 727.689 809.617 670.394 663.352 651.774C379.178 615.622 -15.3932 811.755 -151.492 815.739M2565.76 445.878C2565.76 445.878 2228.79 127.153 1933.09 265.487C1753.62 349.445 1618.59 458.218 1441.6 561.783C1413.56 578.19 1383.83 592.079 1353.46 604.424C1333.94 612.367 1314.9 620.448 1296.49 628.407C1214.71 663.743 1132.48 679.21 1070.66 693.555C929.966 726.187 813.112 681.209 667.28 667.552C385.62 641.198 0.100252 815.682 -153.428 790.535M2563.83 451.966C2563.83 451.966 2234.19 141.312 1936.32 263.441C1757.6 336.734 1617.67 437.292 1440.25 540.587C1412.45 556.78 1383.11 570.812 1353.21 583.609C1333.96 591.859 1315.26 600.386 1297.25 608.901C1217.12 646.777 1136.72 666.124 1075.14 683.97C934.682 724.686 816.61 691.968 671.199 683.308C392.061 666.681 15.5993 819.592 -155.375 765.31M2561.92 458.043C2561.92 458.043 2239.67 155.649 1939.58 261.406C1761.64 324.117 1616.76 416.388 1438.94 519.402C1411.36 535.376 1382.41 549.555 1352.98 562.805C1334 571.34 1315.66 580.335 1298.04 589.424C1219.57 629.862 1140.99 653.066 1079.65 674.435C939.464 723.246 820.139 702.739 675.158 699.098C398.539 692.158 31.1238 823.53 -157.281 740.118M2560.01 464.137C2560.01 464.137 2245.16 170.179 1942.83 259.387C1765.68 311.649 1615.88 395.511 1437.62 498.218C1410.28 513.978 1381.72 528.299 1352.76 542.001C1334.05 550.843 1316.05 560.283 1298.81 569.924C1222.01 612.907 1145.27 639.992 1084.14 664.855C944.206 721.773 823.655 713.449 679.092 714.859C405 717.535 46.6388 827.446 -159.211 714.898M2558.08 470.208C2558.08 470.208 2250.65 184.914 1946.08 257.347C1769.72 299.275 1614.97 374.607 1436.29 477.027C1409.18 492.574 1381.01 507.053 1352.52 521.192C1334.08 530.341 1316.43 540.243 1299.58 550.441C1224.44 595.963 1149.54 626.934 1088.62 655.309C948.966 720.343 827.14 724.147 683.021 730.638C411.422 742.879 62.1477 831.379 -161.148 689.694M2556.17 476.285C2556.17 476.285 2256.11 199.881 1949.34 255.295C1773.75 287.012 1614.08 353.692 1434.98 455.826C1408.11 471.159 1380.34 485.786 1352.3 500.371C1334.15 509.81 1316.84 520.198 1300.37 530.948C1226.98 579.159 1153.83 613.882 1093.14 645.74C953.785 718.898 830.658 734.801 686.986 746.411C417.868 768.157 77.678 835.301 -163.063 664.48M2554.24 482.373C2554.24 482.373 2261.48 215.08 1952.57 253.265C1777.68 274.881 1613.32 333.143 1433.63 434.647C1407.01 449.81 1379.62 464.595 1352.04 479.556C1334.18 489.346 1317.21 500.136 1301.11 511.437C1229.38 562.187 1158.09 600.802 1097.6 636.166C958.536 717.446 834.106 745.411 690.905 762.167C424.248 793.373 93.1774 839.211 -165.01 639.254M2552.34 488.45C2552.34 488.45 2266.76 230.472 1955.83 251.23C1781.61 262.861 1612.42 312.222 1432.31 413.462C1405.94 428.395 1378.93 443.339 1351.82 458.752C1334.22 468.827 1317.6 480.084 1301.9 491.959C1231.84 545.237 1162.39 587.755 1102.1 626.608C963.365 716.023 837.575 756.009 694.849 777.95C430.625 818.55 108.686 843.143 -166.937 614.073M2550.42 494.544C2550.42 494.544 2271.91 246.079 1959.08 249.195C1785.44 250.939 1611.52 291.302 1431 392.261C1404.85 406.974 1378.24 422.065 1351.6 437.931C1334.28 448.314 1318 460.017 1302.69 472.449C1234.29 528.266 1166.72 574.681 1106.61 617.034C968.205 714.567 841.04 766.569 698.805 793.701C436.974 843.661 124.229 847.032 -168.846 588.842M2548.5 500.615C2548.5 500.615 2276.92 261.839 1962.33 247.154C1789.17 239.072 1610.6 270.375 1429.67 371.07C1403.76 385.57 1377.54 400.803 1351.36 417.122C1334.32 427.794 1318.39 439.96 1303.45 452.96C1236.71 511.3 1170.99 561.623 1111.09 607.471C973.024 713.122 844.465 777.095 702.733 809.48C443.245 868.743 139.738 850.965 -170.783 563.639M2546.59 506.692C2546.59 506.692 2281.75 277.742 1965.59 245.119C1792.82 227.287 1609.7 249.438 1428.35 349.885C1402.66 364.166 1376.85 379.547 1351.14 396.318C1334.37 407.297 1318.77 419.904 1304.23 433.483C1239.16 494.368 1175.38 548.683 1115.59 597.93C978.022 711.911 847.847 787.643 706.677 825.264C449.491 893.798 155.247 854.897 -172.704 538.441M2544.67 512.786C2544.67 512.786 2286.39 293.781 1968.83 243.078C1796.33 215.546 1608.78 228.511 1427.02 328.695C1401.57 342.745 1376.14 358.285 1350.9 375.492C1334.42 386.762 1319.15 399.83 1305.01 413.967C1241.6 477.374 1179.66 535.536 1120.09 588.334C982.806 710.321 851.228 798.097 710.617 841.009C455.687 918.796 170.768 858.796 -174.629 513.204M2542.75 518.858C2542.75 518.858 1885.27 -26.5827 1350.68 354.688C1334.45 366.259 1319.55 379.78 1305.78 394.484C844.398 887.342 474.407 1160.31 -176.566 488.001M2533.37 525.166C2531.3 521.084 2429.07 435.625 2274.81 354.05C2125.27 274.96 1928.31 199.169 1721.75 206.709C1594.67 210.975 1463.43 247.069 1338.93 333.868C1322.56 345.294 1307.5 358.68 1293.55 373.228C1158.23 514.778 1032.57 641.471 906.282 732.626C844.618 776.869 782.692 812.702 719.262 837.999C554.075 903.859 378.974 899.025 172.386 783.447C61.676 721.498 -57.25 626.716 -185.331 495.903M2524.01 531.48C2519.86 523.333 2418.1 437.502 2266.81 353.956C2116.91 271.164 1921.27 190.548 1714.39 192.622C1586.56 193.891 1453.4 227.029 1327.25 313.038C1310.73 324.335 1295.5 337.564 1281.4 351.961C1144.86 491.807 1020.19 620.85 895.175 714.558C834.552 759.989 773.523 796.976 710.967 823.869C548.112 893.924 374.946 895.955 167.494 786.63C55.0443 727.366 -65.7343 633.369 -194.022 503.795M2514.63 537.804C2508.4 525.576 2407.14 439.306 2258.77 353.866C2108.5 267.318 1914.18 181.627 1706.99 178.539C1578.4 176.618 1443.34 207.016 1315.51 292.223C1298.85 303.392 1283.47 316.454 1269.19 330.711C1131.45 468.84 1007.61 600.066 884 696.483C824.351 743.003 764.264 781.255 702.614 809.756C542.091 884.005 370.774 892.945 162.543 789.829C48.3108 733.272 -74.277 640.039 -202.772 511.703M2505.25 544.113C2496.96 527.808 2396.21 441.012 2250.74 353.76C2100.11 263.4 1907.1 172.65 1699.6 164.44C1570.25 159.313 1433.27 186.964 1303.76 271.387C1286.96 282.427 1271.42 295.338 1256.97 309.438C1118.03 445.869 995.041 579.228 872.831 678.391C814.154 726 755.018 765.5 694.274 795.609C536.067 874.048 366.558 889.956 157.604 792.995C41.5522 739.15 -82.814 646.693 -211.51 519.578M2495.87 550.421C2485.51 530.034 2385.3 442.629 2242.71 353.654C2091.72 259.427 1899.99 163.668 1692.21 150.34C1562.08 142.001 1423.04 166.645 1292.06 250.545C1275.08 261.412 1259.39 274.211 1244.77 288.171C1104.61 422.88 982.469 558.389 861.662 660.3C803.965 708.98 745.765 749.762 685.911 781.473C530.037 864.106 362.266 887.033 152.643 796.171C34.7446 745.066 -91.3661 653.341 -220.27 527.464M2486.51 556.735C2474.07 532.283 2374.41 444.163 2234.71 353.559C2083.37 255.394 1892.92 154.659 1684.85 136.252C1553.95 124.685 1412.99 146.559 1280.34 229.719C1263.22 240.458 1247.35 253.078 1232.58 266.91C1090.95 399.618 969.925 537.523 850.524 642.22C793.812 691.955 736.55 734.019 677.601 767.338C524.059 854.166 357.944 884.193 147.735 799.348C27.962 751.011 -99.8659 659.989 -228.977 535.35M2477.13 563.043C2462.61 534.509 2363.56 445.631 2226.67 353.453C2075 251.299 1885.8 145.616 1677.46 122.153C1545.78 107.335 1402.91 126.486 1268.62 208.872C1251.34 219.476 1235.31 231.946 1220.38 245.626C1077.51 376.585 957.355 516.629 839.377 624.118C783.628 674.919 727.325 718.253 669.261 753.191C518.057 844.198 353.55 881.402 142.812 802.519C21.1207 756.971 -108.381 666.631 -237.72 543.242M2467.76 569.351C2451.16 536.736 2352.72 447.033 2218.64 353.347C2066.64 247.149 1878.7 136.54 1670.06 108.07C1537.61 89.985 1392.84 106.411 1256.88 188.058C1239.46 198.517 1223.27 210.852 1208.17 224.376C1064.08 353.591 944.759 495.763 828.202 606.043C773.407 657.888 718.066 702.532 660.914 739.061C512.042 834.263 349.074 878.693 137.866 805.702C14.2456 762.975 -116.918 673.285 -246.464 551.134M2458.38 575.659C2439.71 538.962 2341.93 448.357 2210.61 353.241C2058.31 242.917 1871.6 127.464 1662.67 93.9713C1529.44 72.6185 1382.76 86.3539 1245.15 167.227C1227.58 177.557 1211.23 189.719 1195.97 203.109C1050.63 330.575 932.164 474.841 817.048 587.957C763.229 640.835 708.85 686.789 652.566 724.931C506.011 824.322 344.568 876.067 132.921 808.884C7.32135 769.018 -125.455 679.939 -255.208 559.025M2449.02 581.973C2428.27 541.211 2331.17 449.615 2202.61 353.146C2050.03 238.645 1864.51 118.355 1655.31 79.8831C1521.3 55.2408 1372.72 66.2909 1233.45 146.391C1215.74 156.592 1199.23 168.603 1183.8 181.837C1037.25 307.581 919.608 453.914 805.917 569.861C753.051 623.782 699.635 671.045 644.263 710.779C500.04 814.365 340.059 873.497 128.019 812.044C0.428243 775.072 -133.948 686.57 -263.909 566.895M2439.63 588.298C2416.81 543.453 2320.44 450.83 2194.58 353.056C2041.73 234.33 1857.4 109.24 1647.91 65.8007C1513.13 37.8522 1362.65 46.2392 1221.72 125.577C1203.85 135.627 1187.18 147.504 1171.57 160.597C1023.79 284.598 906.97 433.014 794.735 551.803C742.815 606.746 690.376 655.324 635.904 696.682C494.013 804.463 335.439 871.036 123.062 815.259C-6.53841 781.23 -142.497 693.257 -272.665 574.82M2430.26 594.606C2405.36 545.68 2309.74 451.962 2186.54 352.95C2033.48 229.921 1850.29 100.086 1640.52 51.7013C1504.97 20.4302 1352.57 26.1815 1209.99 104.729C1191.98 114.651 1175.15 126.377 1159.37 139.314C1010.38 261.593 894.357 412.048 783.573 533.695C732.612 589.665 681.135 639.553 627.547 682.53C487.995 794.489 330.807 868.608 118.107 818.42C-13.5299 787.361 -151.044 699.888 -281.425 582.705M2420.89 600.92C2393.93 547.934 2299.09 453.055 2178.53 352.85C2025.28 225.474 1843.21 90.9055 1633.14 37.6079C1496.82 3.01405 1342.53 6.11894 1198.28 83.9039C1180.12 93.6972 1163.12 105.267 1147.18 118.053C996.976 238.611 881.76 391.088 772.429 515.631C722.403 572.601 671.907 623.843 619.231 668.411C482.011 784.565 326.186 866.297 113.187 821.63C-20.5052 793.591 -159.561 706.586 -290.144 590.625M2411.52 607.228C2382.48 550.16 2288.45 454.077 2170.51 352.749C2017.12 220.966 1836.13 81.7243 1625.77 23.5142C1488.67 -14.4245 1332.5 -13.9217 1186.56 63.0786C1168.26 72.7431 1151.11 84.1452 1135 96.7912C983.571 215.628 869.132 370.116 761.275 497.546C712.194 555.537 662.676 608.094 610.884 654.281C475.981 774.624 321.493 864.034 108.242 824.812C-27.5237 799.843 -168.114 713.234 -298.887 598.516M2402.14 613.537C2371.03 552.387 2277.86 455.06 2162.48 352.643C2009 216.381 1829.04 72.5212 1618.37 9.43162C1480.51 -31.8629 1322.42 -33.9404 1174.83 42.2478C1156.38 51.7672 1139.06 63.0294 1122.79 75.5245C970.167 192.645 856.487 349.138 750.122 479.46C701.976 538.451 653.439 592.362 602.559 640.14C469.987 764.678 316.829 861.839 103.319 827.983C-34.5174 806.124 -176.629 719.877 -307.61 606.397M2392.76 619.845C2359.57 554.613 2267.29 456.016 2154.45 352.537C2000.92 211.752 1821.96 63.2847 1610.98 -4.66778C1472.36 -49.3181 1312.37 -53.9867 1163.1 21.4168C1144.51 30.8076 1127.03 41.9188 1110.57 54.2682C956.741 169.673 843.812 328.149 738.931 461.38C691.705 521.364 644.187 576.624 594.191 626.021C463.951 754.753 312.092 859.748 98.3519 831.176C-41.5722 812.475 -185.187 726.541 -316.375 614.3M2383.4 626.158C2348.13 556.862 2256.78 456.917 2146.44 352.437C1992.9 207.051 1814.9 54.0375 1603.6 -18.7613C1464.22 -66.7896 1302.33 -74.0106 1151.39 0.591672C1132.65 9.85378 1115.01 20.8142 1098.38 33.007C943.346 146.713 831.137 307.16 727.793 443.3C681.502 504.283 634.965 560.897 585.865 611.88C457.958 744.807 307.395 857.69 93.4438 834.353C-48.565 818.849 -193.687 733.189 -325.082 622.186M2374.02 632.483C2336.67 559.105 2246.3 457.807 2138.41 352.353C1984.94 202.335 1807.83 44.8067 1596.22 -32.8384C1456.09 -84.2555 1292.29 -94.0347 1139.67 -20.2337C1120.78 -11.1002 1102.98 -0.296437 1086.19 11.7455C929.957 123.735 818.468 286.155 716.64 425.214C671.253 487.185 625.734 545.148 577.534 597.756C451.965 734.861 302.698 855.727 88.5142 837.541C-55.5821 825.29 -202.208 739.848 -333.816 630.099M2364.64 638.791C2325.22 561.331 2235.83 458.63 2130.38 352.246C1977.02 197.519 1800.77 35.5206 1588.83 -46.9377C1447.95 -101.744 1282.24 -114.064 1127.94 -41.0646C1108.91 -32.0598 1090.94 -21.4069 1073.98 -9.52146C916.562 100.775 805.775 265.121 705.487 407.128C661.019 470.093 616.503 529.399 569.193 583.609C445.94 724.904 297.984 853.813 83.5754 840.707C-62.611 831.763 -210.739 746.485 -342.554 637.974M2355.26 645.1C2313.77 563.558 2225.43 459.438 2122.35 352.14C1969.16 192.671 1793.73 26.2404 1581.44 -61.0369C1439.82 -119.248 1272.18 -134.077 1116.22 -61.912C1097.04 -53.0358 1078.92 -42.5336 1061.79 -30.8047C903.174 77.7981 793.065 244.082 694.323 389.02C650.76 452.973 607.256 513.645 560.852 569.463C439.932 714.952 293.282 851.96 78.6362 843.873C-69.643 838.292 -219.27 753.122 -351.292 645.849M2345.9 651.414C2302.34 565.812 2215.05 460.219 2114.34 352.04C1961.39 187.762 1786.69 16.9435 1574.06 -75.1304C1431.71 -136.764 1262.15 -154.096 1104.5 -82.7371C1085.18 -73.9896 1066.9 -63.6385 1049.58 -52.0718C889.773 54.854 780.334 223.054 683.17 370.935C640.496 435.87 598.025 497.896 552.511 555.316C433.923 705 288.594 850.168 73.6971 847.038C-76.6655 844.843 -227.807 759.776 -360.03 653.725M2336.52 657.722C2290.89 568.039 2204.71 460.977 2106.32 351.939C1953.68 182.799 1779.67 7.63562 1566.66 -89.2132C1423.6 -154.263 1252.1 -174.087 1092.76 -103.552C1073.29 -94.9327 1054.86 -84.7322 1037.37 -73.3056C876.366 31.9267 767.582 202.037 672.004 352.882C630.234 418.805 588.776 482.196 544.168 541.225C427.911 695.104 283.905 848.471 68.7555 850.259C-83.6777 851.51 -236.34 766.468 -368.771 661.655M2327.15 664.03C2279.44 570.265 2194.41 461.708 2098.29 351.833C1946.04 177.787 1772.66 -1.68859 1559.27 -103.312C1415.48 -171.801 1242.04 -194.1 1081.04 -124.399C1061.42 -115.909 1042.82 -105.865 1025.17 -94.5892C862.971 8.96604 754.841 180.987 660.836 334.791C619.954 401.697 579.545 466.448 535.827 527.078C421.909 685.135 279.242 846.801 63.8163 853.425C-90.6745 858.183 -244.871 773.105 -377.53 669.54M2317.77 670.338C2267.98 572.508 2184.13 462.412 2090.26 351.727C1938.45 172.719 1765.64 -11.035 1551.88 -117.411C1407.37 -189.333 1232 -214.107 1069.31 -145.23C1049.54 -136.868 1030.78 -126.975 1012.96 -115.856C849.586 -13.9721 742.07 159.925 649.682 316.705C609.68 384.571 570.314 450.699 527.48 512.948C415.879 675.195 274.613 845.181 58.8711 856.607C-97.6679 864.895 -253.408 779.759 -386.274 677.432M2308.4 676.668C2256.54 574.757 2173.91 463.139 2082.24 351.643C1930.96 167.631 1758.64 -20.3538 1544.5 -131.489C1399.29 -206.859 1222.08 -233.748 1057.59 -166.039C1037.7 -157.761 1018.76 -148.063 1000.77 -137.101C836.21 -36.8882 729.302 138.902 638.522 298.636C599.393 367.478 561.07 434.983 519.148 498.824C409.879 665.265 270.004 843.606 53.9416 859.795C-104.617 871.679 -261.929 786.418 -395.002 685.329M2299.02 682.976C2245.09 576.983 2163.71 463.832 2074.21 351.537C1923.53 162.471 1751.65 -29.7056 1537.11 -145.588C1391.19 -224.408 1212.03 -253.794 1045.86 -186.886C1025.82 -178.737 1006.75 -169.146 988.573 -158.384C822.984 -59.5429 716.5 117.829 627.375 280.534C589.119 350.353 551.845 419.217 510.808 484.677C403.87 655.313 265.413 842.075 49.0027 862.96C-111.567 878.463 -270.459 793.054 -403.74 693.204M2289.65 689.285C2233.63 579.209 2153.54 464.504 2066.19 351.437C1916.2 157.289 1744.69 -39.0516 1529.73 -159.681C1383.13 -241.962 1201.98 -273.824 1034.15 -207.711C1013.96 -199.691 994.721 -190.256 976.368 -179.651C809.558 -82.5146 703.691 96.7719 616.206 262.442C578.817 333.254 542.593 403.479 502.467 470.53C397.862 645.361 260.868 840.562 44.0636 866.126C-118.498 885.292 -278.99 799.692 -412.478 701.079M2280.28 695.599C2222.19 581.458 2143.41 465.187 2058.17 351.336C1908.96 152.048 1737.72 -48.4142 1522.36 -173.775C1375.07 -259.516 1191.93 -293.87 1022.44 -228.553C1002.11 -220.662 982.716 -211.394 964.18 -200.913C796.17 -105.492 690.883 75.7155 605.068 244.363C568.537 316.146 533.377 387.736 494.151 456.411C391.878 635.437 256.362 839.137 39.1649 869.326C-125.369 892.198 -287.48 806.362 -421.175 708.988M2270.91 701.907C2210.76 583.69 2133.33 465.848 2050.14 351.23C1901.78 146.774 1730.97 -58.1515 1514.96 -187.858C1367.13 -277.306 1181.87 -313.883 1010.7 -249.367C990.225 -241.604 970.677 -232.488 951.97 -222.163C782.738 -128.447 678.046 54.6864 593.893 226.288C558.219 299.042 524.124 371.998 485.788 442.276C385.838 625.474 251.855 837.712 34.2043 872.502C-132.277 899.11 -296.033 813.01 -429.941 716.89M2261.53 708.215C2199.3 585.916 2123.25 466.515 2042.11 351.124C1894.69 141.457 1723.91 -67.3434 1507.57 -201.957C1359 -294.756 1171.8 -333.935 998.971 -270.198C978.354 -262.581 958.629 -253.604 939.766 -243.43C769.327 -151.413 665.006 33.5445 582.74 208.202C547.831 281.893 514.903 356.271 477.457 428.151C379.839 615.545 247.404 836.327 29.2747 875.69C-139.136 906.078 -304.56 819.685 -438.669 724.787M2252.15 714.523C2187.85 588.143 2113.22 467.177 2034.1 351.024C1887.71 136.124 1716.88 -76.5239 1500.19 -216.051C1350.88 -312.199 1161.75 -353.965 987.261 -291.04C779.187 -215.993 661.298 -7.13518 571.592 190.1C537.612 264.807 505.678 340.506 469.122 413.988C373.836 605.577 242.99 834.936 24.3417 878.839C-145.973 913.035 -313.085 826.306 -447.401 732.646" stroke="url(#paint0_linear_365_2)" stroke-width="0.5658" stroke-miterlimit="10"/>
<defs>
<linearGradient id="paint0_linear_365_2" x1="720.676" y1="-20.0275" x2="1511.65" y2="1166.37" gradientUnits="userSpaceOnUse">
<stop stop-color="#FFCE07"/>
<stop offset="1" stop-color="#B40FE7"/>
</linearGradient>
</defs>
</svg>
